<svg width="40" height="54" viewBox="0 0 40 54" fill="none" xmlns="http://www.w3.org/2000/svg">
<g clip-path="url(#clip0_128_263)">
<path fill-rule="evenodd" clip-rule="evenodd" d="M32.6868 36.6425C32.6868 36.3469 32.2727 35.8222 32.272 35.5545C32.6201 35.493 32.9112 35.027 32.834 34.7352C32.6982 34.6325 32.342 34.4305 32.1947 34.3362C31.2973 34.3631 31.6384 33.1295 31.5368 32.5025C31.4345 31.889 31.3586 31.2476 31.2089 30.6306C30.9431 30.137 30.8184 29.5835 30.5643 29.0924C30.4508 28.9296 30.2675 28.7804 30.2126 28.5912C29.6567 27.9914 28.8916 27.6319 28.2618 27.1239C28.5062 27.0466 28.4899 26.7209 28.4741 26.5118C28.531 26.239 28.4703 25.8967 28.2184 25.743C28.1333 25.4691 27.7613 25.3734 27.5437 25.548C27.4008 24.9152 26.8418 24.5312 26.2562 24.2964C26.2567 24.2945 26.2572 24.2927 26.2577 24.2909C25.6671 24.0593 24.9592 23.9438 24.3699 24.074C24.6809 20.6494 22.0262 20.5237 20.679 20.8115C19.9898 20.9587 18.9558 21.417 18.7209 22.0541C18.5883 22.4138 18.2078 23.5738 18.1536 23.9438C17.1248 23.3637 15.9321 22.5989 15.0397 23.7667C14.861 23.9702 14.6633 24.1213 14.3959 24.1912C13.5611 24.4053 12.4531 24.4124 11.9786 25.2533C11.695 25.7742 11.95 26.1174 11.8738 26.6385C8.1159 29.246 4.97547 38.8516 5.6806 43.3203C5.85023 44.9196 6.67839 47.7502 8.72253 47.3973C9.76513 48.524 27.2648 48.524 29.0693 47.3973C30.5546 47.7812 32.0639 47.187 32.6868 45.7814C33.4778 43.854 32.6395 41.7725 32.491 39.7953C32.4008 39.2962 32.2665 38.8999 32.1947 38.3889C32.1648 38.1759 32.268 37.8217 32.1947 37.6254C32.2293 37.4976 32.6868 36.9381 32.6868 36.6425Z" fill="white"/>
<path fill-rule="evenodd" clip-rule="evenodd" d="M24.4148 22.9672C24.4562 23.142 24.4184 23.3392 24.4253 23.5186C24.4319 23.6901 24.4524 23.8607 24.4826 24.0297C24.7999 23.8648 25.1748 23.8436 25.5364 23.8967C26.0041 23.9653 26.5454 24.1173 26.912 24.426C27.0025 24.5023 27.0774 24.5926 27.1402 24.6922C27.2156 24.8116 27.2637 24.9466 27.3831 25.0321C27.5679 25.1646 27.797 25.2158 27.9746 25.3626C28.1558 25.5121 28.2682 25.7358 28.292 25.9666C28.3046 26.0894 28.2841 26.2043 28.2605 26.3241C28.2394 26.4319 28.2498 26.4761 28.2785 26.5799C28.3011 26.6614 28.258 26.7538 28.1878 26.7988C28.3383 26.9008 28.4867 27.0059 28.6325 27.1154C29.4821 27.7525 30.2005 28.5466 30.6985 29.4811L30.7105 29.5043L30.7245 29.5322C30.8458 29.7785 31.1634 30.4987 31.2028 30.6607C31.231 30.7452 31.2584 30.8301 31.2838 30.9155C31.3508 31.1419 31.4077 31.3711 31.4549 31.6021L31.4675 31.6652C31.5057 31.8592 31.5716 32.0891 31.561 32.2959C31.6713 32.8606 31.769 33.4276 31.8524 33.997C31.8633 34.0716 31.8332 34.1322 31.7866 34.1725C31.8981 34.1902 32.009 34.2119 32.1186 34.2339L32.1823 34.2471L32.2141 34.2541C32.4424 34.305 32.6678 34.3791 32.8173 34.5685C32.9785 34.7735 32.9818 35.0369 32.8199 35.2432C32.6824 35.4186 32.4816 35.5019 32.272 35.5545C32.2306 35.5647 32.1888 35.5742 32.147 35.5826C32.119 35.5884 32.1005 35.5505 32.127 35.5358L32.1715 35.5116L32.2322 35.4787C32.3903 35.3926 32.5543 35.2955 32.6417 35.1402C32.7604 34.9295 32.6665 34.7343 32.4628 34.6274C32.2922 34.5377 32.0813 34.5147 31.8919 34.484L31.8137 34.4713C31.6157 34.4401 31.4137 34.4198 31.2139 34.4421C31.039 34.4618 30.8619 34.5207 30.7206 34.6262L30.7076 34.6364L30.694 34.6476C30.5702 34.7537 30.392 34.9919 30.6257 35.0606C30.8042 35.1128 31.0218 35.0998 31.2095 35.1099L31.2338 35.1114C31.3909 35.122 31.5551 35.122 31.7141 35.1406C31.771 35.1471 31.8272 35.1563 31.8823 35.1691C32.0402 35.206 31.9859 35.4135 31.8468 35.4281C31.8128 35.4317 31.7781 35.4335 31.7433 35.4343C31.6523 35.5019 31.5266 35.5326 31.4191 35.5745C31.3163 35.6148 31.2131 35.6546 31.1093 35.6937C31.1987 35.6977 31.2882 35.705 31.3773 35.7159C31.4061 35.7192 31.4065 35.7576 31.3773 35.7605C31.1628 35.7821 30.9484 35.8054 30.7347 35.835C30.4038 35.8803 30.0751 35.941 29.7539 36.0333C29.519 36.1012 29.2871 36.1819 29.0621 36.2762L28.9941 36.3051L28.966 36.3172C28.7618 36.4047 28.4976 36.507 28.3803 36.6996C28.3189 36.8001 28.292 36.9554 28.3785 37.0515C28.471 37.155 28.6648 37.1431 28.7944 37.1482L28.8048 37.1486C29.0791 37.1618 29.3538 37.1636 29.6285 37.1541C30.2041 37.134 30.7802 37.0719 31.3455 36.9627C31.4498 36.9426 31.4949 37.0971 31.3899 37.1212C30.7231 37.2743 30.0489 37.3583 29.3648 37.3622L29.2898 37.3623C29.0233 37.4127 28.7619 37.4877 28.5028 37.5725L28.451 37.5895C28.2979 37.6407 28.0365 37.6915 27.9463 37.8416C27.8864 37.9413 27.9075 38.0096 27.9666 38.056C28.0709 38.1375 28.2927 38.1528 28.4007 38.1569C28.8332 38.1729 29.2662 38.1758 29.6991 38.1667C29.9154 38.1619 30.1317 38.1543 30.348 38.1433C30.5595 38.1324 30.7853 38.1013 30.9961 38.1214C31.0867 38.1301 31.117 38.2617 31.0187 38.2862C30.7588 38.3512 30.4673 38.3455 30.1988 38.3538L30.1679 38.3548C29.8795 38.365 29.5908 38.3695 29.3024 38.3687C29.0549 38.3678 28.8074 38.3628 28.5602 38.3538L28.3416 38.3453L28.3028 38.3434C28.1863 38.3373 28.0673 38.324 27.9641 38.2766C27.8687 38.4344 27.94 38.6459 28.0631 38.7709C28.1803 38.89 28.3493 38.9485 28.5112 38.985C28.5264 38.9883 28.5416 38.9915 28.5567 38.9945C28.9124 39.066 29.2747 39.0599 29.6075 39.2213C29.8873 39.3572 30.1435 39.5837 30.457 39.6374C30.7373 39.6856 30.941 39.5636 31.0904 39.3379C31.0985 39.3254 31.1067 39.313 31.1144 39.3006C31.232 39.1135 31.3166 38.9075 31.4405 38.7241C31.5037 38.6306 31.5751 38.5408 31.6623 38.4677C31.7015 38.4344 31.9758 38.2906 32.0188 38.2474C32.2032 38.0604 32.0398 37.667 32.0879 37.4325C32.1441 37.1596 32.387 37.0635 32.5327 36.852C32.8095 36.4495 32.0501 36.0724 32.2772 35.6323C32.2801 35.6268 32.2838 35.6228 32.2886 35.6202C32.3086 35.6096 32.3404 35.6228 32.3386 35.6487C32.3134 35.9768 32.6299 36.2025 32.7441 36.4867C32.8742 36.81 32.6665 37.0058 32.4543 37.2217C32.1821 37.499 32.3737 37.8095 32.3131 38.1433C32.3051 38.1871 32.2924 38.2257 32.2759 38.2602C32.3224 38.2887 32.3583 38.3359 32.3661 38.4018C32.4595 39.1835 32.5598 39.9628 32.7236 40.7338L32.7586 40.8976L32.8055 41.1161C32.9223 41.6626 33.0312 42.2113 33.0519 42.77C33.117 43.2415 33.1428 43.7169 33.1043 44.1915C32.9874 45.6363 32.1699 47.1479 30.6848 47.5913C30.341 47.694 29.9764 47.7207 29.6237 47.6487C29.5028 47.6242 29.3335 47.5701 29.1815 47.4883C29.1906 47.5846 29.1977 47.6809 29.2007 47.777C29.2508 47.8321 29.2735 47.9153 29.2449 47.9865C29.1238 47.9471 29.0137 47.8848 28.9146 47.7995L28.8982 47.7851C28.8394 47.5693 28.8222 47.3332 28.8137 47.1059L28.8115 47.0412C28.8092 46.9784 28.8078 46.9167 28.8055 46.8564C28.793 46.4812 28.8018 46.1053 28.8214 45.7305L28.8358 45.4546C28.8688 44.8111 28.8957 44.1691 28.8776 43.5238C28.8569 42.7811 28.7926 42.0417 28.712 41.3032C28.6702 40.9221 28.6229 40.5419 28.5744 40.1616C28.5356 39.8555 28.4706 39.526 28.4695 39.2104C28.2206 39.1578 27.9763 39.0569 27.8232 38.8506C27.6609 38.6317 27.6369 38.3519 27.781 38.1276C27.6417 37.9391 27.7559 37.7616 27.9282 37.6418C27.6635 37.4953 27.516 37.0956 27.4768 36.8177C27.4501 36.627 27.4416 36.3417 27.5241 36.1272C27.4058 36.1313 27.2875 36.1433 27.1692 36.1634C27.0323 36.1872 26.8982 36.2218 26.7658 36.265L26.6987 36.2869C26.6649 36.2981 26.6269 36.3113 26.589 36.3267C26.8283 36.7175 26.521 37.0719 26.1269 37.1731C26.0519 37.1924 25.9753 37.206 25.8981 37.2169C25.7239 37.2407 25.5461 37.248 25.3734 37.2637C25.0429 37.2936 24.7105 37.3364 24.3789 37.3503C24.306 37.3536 24.2591 37.32 24.2369 37.2732C24.2362 37.2725 24.2358 37.2721 24.2358 37.2714C24.2281 37.259 24.2228 37.2458 24.221 37.2319C24.2221 37.233 24.2236 37.2337 24.2247 37.2345C24.2088 37.1468 24.2621 37.0401 24.3789 37.0274C24.8577 36.974 25.3431 36.9715 25.8234 36.9324L25.8541 36.9299C26.0049 36.917 26.1824 36.8934 26.3018 36.799C26.4127 36.7114 26.4227 36.5974 26.3783 36.4944C26.3776 36.4969 26.3769 36.4998 26.3765 36.5024C26.3731 36.5228 26.3447 36.5221 26.3354 36.5079C26.3077 36.4663 26.3007 36.4253 26.3077 36.3859C26.2744 36.3479 26.2341 36.3143 26.1905 36.2883C25.9971 36.1722 25.7428 36.1404 25.5228 36.106C25.2821 36.0685 25.0396 36.0512 24.7967 36.04C24.3186 36.0176 23.8391 36.056 23.3688 36.1407C23.3492 36.1441 23.3411 36.117 23.3603 36.1108C23.5437 36.0509 23.7311 36.0005 23.9208 35.9607C23.9163 35.9599 23.9119 35.9592 23.9075 35.9581C23.8909 35.9541 23.879 35.934 23.8846 35.9179C23.8853 35.9154 23.8864 35.9128 23.8875 35.9106C23.8069 35.8741 23.7733 35.7514 23.8709 35.7017C24.1751 35.5464 24.5323 35.4763 24.8662 35.4123C25.1867 35.3513 25.5106 35.3086 25.8349 35.2706C26.3831 35.2071 26.981 35.2085 27.5085 35.0375L27.5302 35.0304C27.7451 34.9571 28.0015 34.8088 28.0166 34.5583C28.0387 34.1795 27.469 34.2781 27.2316 34.2873C26.5821 34.3117 25.9332 34.3563 25.2866 34.425C25.1545 34.4389 25.0225 34.4531 24.8906 34.4677C24.6884 34.49 24.4857 34.5134 24.2839 34.5382C24.1711 34.5521 24.0558 34.5704 23.9397 34.5879C23.9034 34.5967 23.868 34.6029 23.8325 34.6062C23.8298 34.6065 23.8277 34.6058 23.8258 34.6047C23.6568 34.6281 23.4871 34.6459 23.3222 34.6409C23.3034 34.6405 23.2916 34.6112 23.3115 34.6025C23.5245 34.5134 23.7615 34.4608 23.9992 34.4195C24.1463 34.311 24.3241 34.2241 24.4702 34.14C24.6706 34.0246 24.9002 33.8548 25.1276 33.7857C25.23 33.7061 25.346 33.6421 25.4529 33.5987C25.4222 33.5516 25.4112 33.4861 25.4167 33.431C25.437 33.2334 25.5971 33.123 25.782 33.0843C25.8393 33.0727 25.9055 33.0639 25.9761 33.0606C25.9775 33.0237 25.9942 32.9875 26.0311 32.9605L26.0421 32.9523L26.0498 32.9462C26.1739 32.8467 26.4202 32.5664 26.1236 32.5459C25.9661 32.5349 25.833 32.6489 25.7076 32.726C25.4473 32.8863 25.1956 32.8943 24.8984 32.8545L24.7647 32.8356L24.7425 32.8326C24.5276 32.8048 24.3096 32.8009 24.1896 33.0175C24.0609 33.2491 24.0158 33.4602 23.7563 33.5877C23.5082 33.7094 23.2328 33.7335 23.005 33.9008C22.761 34.0797 22.5776 34.3311 22.378 34.5539C21.9376 35.0449 21.4337 35.4785 20.9146 35.8862L20.8223 35.9585C20.3443 36.3317 19.8508 36.6992 19.3156 36.9868C19.3119 36.9886 19.3082 36.9894 19.3049 36.9894C19.2905 36.9879 19.2797 36.9696 19.2927 36.9572C19.9179 36.357 20.6492 35.8705 21.2913 35.2863C21.576 35.0274 21.847 34.7548 22.1077 34.4721C22.3354 34.2241 22.5373 33.9453 22.8028 33.7342C22.9318 33.6315 23.0712 33.553 23.2272 33.4982C23.3729 33.4467 23.5363 33.4211 23.6705 33.3422C23.9334 33.1881 23.9079 32.8228 24.1707 32.6569C24.3961 32.5147 24.6707 32.5666 24.9206 32.6004L24.9505 32.6043C25.1124 32.6255 25.2799 32.6434 25.4344 32.5802C25.5875 32.5178 25.7106 32.4009 25.8648 32.3388C26.0796 32.2515 26.3842 32.2723 26.4944 32.5057C26.5998 32.7285 26.456 32.9302 26.2881 33.0781C26.5169 33.119 26.7177 33.2283 26.7347 33.4511C26.9026 33.4456 27.0701 33.4397 27.2379 33.4339C27.8225 33.4138 28.4099 33.3751 28.9948 33.3853C28.9815 33.3265 28.9756 33.2659 28.9748 33.2042C28.9745 33.1698 28.976 33.1355 28.9785 33.1004C28.983 33.0405 29.0229 33.0043 29.0821 32.9981L29.2142 32.9842L29.2584 32.9798C29.5059 32.9567 29.7827 32.9519 29.9713 33.1135C30.0726 33.2009 30.1543 33.4018 30.1047 33.5358C30.22 33.5749 30.3299 33.6249 30.4301 33.6882C30.6286 33.6224 30.8371 33.6297 31.0367 33.6984L31.0605 33.7067C31.2024 33.7582 31.4035 33.8557 31.4806 33.9948C31.2934 32.7412 31.0412 31.4983 30.7241 30.2703C30.5217 29.78 30.2659 29.3113 29.9557 28.8787C29.1745 27.7886 28.0491 27.039 27.0383 26.1773C26.9491 26.2743 26.853 26.3666 26.7632 26.4554L26.7251 26.4932C26.5421 26.6763 26.3512 26.8516 26.1561 27.022C25.7483 27.3781 25.3191 27.7069 24.893 28.0409C24.034 28.7142 23.2573 29.4292 22.6111 30.3083C22.5995 30.3242 22.5673 30.3149 22.5763 30.2938C23.0195 29.2529 23.9383 28.4614 24.773 27.7271C25.2119 27.3409 25.6611 26.9641 26.0832 26.5597C26.2799 26.3712 26.4705 26.1761 26.6503 25.9717L26.695 25.9204C26.8126 25.7844 27.0879 25.3693 27.2698 25.6688C27.308 25.7315 27.3063 25.8116 27.2698 25.8743C27.2182 25.9635 27.1525 26.0485 27.0808 26.1301C27.3359 26.2672 27.5857 26.412 27.8301 26.5652C27.8161 26.4914 27.8196 26.4098 27.8326 26.3281L27.8369 26.3022L27.8547 26.2009C27.8802 26.0517 27.8934 25.9129 27.7975 25.7673C27.6776 25.5852 27.4516 25.5284 27.2716 25.4231C27.0642 25.3018 26.9558 25.1396 26.8448 24.9336C26.6321 24.5394 26.1516 24.3813 25.7386 24.2544L25.6866 24.2385C25.305 24.1216 24.8921 24.0591 24.5106 24.1714C24.5464 24.336 24.5932 24.4983 24.6518 24.6563C24.714 24.8246 24.8564 25.0116 24.8418 25.1934C24.8317 25.3192 24.679 25.4536 24.5523 25.3575C24.3729 25.2214 24.337 24.9999 24.2889 24.7888C24.2424 24.5847 24.2127 24.3756 24.2001 24.1668C24.1879 23.9655 24.1974 23.7643 24.2225 23.5644L24.2418 23.4176L24.2465 23.3835C24.2674 23.2352 24.2986 23.0794 24.3831 22.9631C24.3912 22.9519 24.4111 22.9516 24.4148 22.9672ZM19.2081 22.1327C19.2108 22.1446 19.2127 22.1563 19.2144 22.168C19.2268 22.2181 19.2314 22.2662 19.2299 22.3145C19.2306 22.3319 19.2293 22.3494 19.226 22.3667C19.2194 22.4236 19.2055 22.4819 19.1868 22.5457C19.1469 22.6815 19.1012 22.8157 19.0501 22.9478C18.9492 23.2091 18.8301 23.4584 18.6828 23.6974C18.4167 24.1291 18.0784 24.4874 17.6796 24.7971C17.7553 24.8588 17.8293 24.923 17.9034 24.986C18.2617 25.2907 18.6103 25.6091 18.948 25.936C19.5476 26.5166 20.1352 27.1079 20.709 27.7134C20.9921 28.012 21.2698 28.3146 21.5461 28.6192L21.5551 28.6294L21.5649 28.6409C21.663 28.7582 21.8591 29.0377 22.0054 28.9928C22.0793 28.9701 22.1571 28.8612 22.2074 28.8092L22.3002 28.7137C22.331 28.6817 22.3617 28.6496 22.3918 28.617C22.9314 28.0328 23.442 27.4262 23.9215 26.7922C24.1554 26.4828 24.3816 26.1676 24.5995 25.847C24.7116 25.6821 24.8215 25.5158 24.9293 25.3481C25.0335 25.1859 25.1177 25.0116 25.2713 24.8905C25.3839 24.8017 25.5401 24.8831 25.5117 25.0288C25.4669 25.2581 25.3063 25.4521 25.1797 25.646C25.0527 25.8408 24.9226 26.0337 24.7896 26.2246C24.5337 26.5921 24.2666 26.9518 23.99 27.3043C23.7518 27.6079 23.5033 27.9037 23.2481 28.1935L23.1784 28.2724C22.9038 28.5816 22.6344 28.9098 22.331 29.1921C22.0594 29.4448 21.7627 29.3712 21.5153 29.1255C21.2023 28.815 20.9118 28.4792 20.6106 28.1573C20.0089 27.5141 19.4008 26.8758 18.7865 26.2442L18.5846 26.0364C18.3491 25.7935 18.1146 25.5492 17.8862 25.3003L17.8567 25.2679C17.5963 24.9784 17.3314 24.6158 16.9612 24.4686C16.9344 24.458 16.9442 24.4204 16.9731 24.4257C17.2102 24.469 17.408 24.587 17.5922 24.7279C17.7577 24.4573 17.9053 24.1721 18.0341 23.8804L17.9515 23.845C17.3605 23.5927 16.6944 23.3383 16.06 23.3792C15.8043 23.3956 15.5315 23.4913 15.3549 23.681C15.1951 23.8528 15.1152 24.0845 14.9685 24.2674C14.8005 24.477 14.5813 24.5713 14.3124 24.5798L14.1816 24.5837C14.0311 24.5886 13.8869 24.5964 13.7343 24.6291C13.3209 24.7176 12.885 24.8613 12.5383 25.1067C12.4125 25.1956 12.2827 25.318 12.2219 25.4529C12.1616 25.5864 12.1442 25.7428 12.1383 25.8869C12.1355 25.9572 12.1568 26.05 12.139 26.1173C12.141 26.1096 12.142 26.1137 12.1422 26.1217C12.1976 26.1649 12.2354 26.2367 12.2395 26.3082C12.5851 26.1302 12.9429 25.9742 13.3076 25.8336C13.7137 25.6771 14.1324 25.5517 14.5512 25.4329C14.9611 25.3167 15.3901 25.2686 15.8079 25.1857C15.8611 25.1752 15.8796 25.2462 15.83 25.265C15.3909 25.4317 14.9659 25.6292 14.5231 25.786C14.0805 25.9428 13.6412 26.1124 13.2115 26.301C12.3808 26.6656 11.5784 27.1295 10.924 27.7589C10.2848 28.3737 9.79177 29.1206 9.33325 29.8715C8.87147 30.6277 8.45935 31.4114 8.09203 32.2165C7.36539 33.8092 6.8205 35.4837 6.46176 37.1942C6.11263 38.8587 5.91757 40.5826 5.98253 42.2839C6.01336 43.092 6.11326 43.9006 6.34559 44.6778C6.45658 45.0491 6.59552 45.4118 6.77106 45.7582C6.95618 46.1233 7.20559 46.4486 7.37463 46.8199C7.38853 46.8505 7.39386 46.8798 7.39308 46.9071C8.11403 47.5242 9.24248 47.1083 10.0227 46.7399C11.8181 45.8916 13.5802 44.9634 15.255 43.8982C16.908 42.8469 18.4745 41.6735 20.004 40.4557C19.8857 40.3351 19.7814 40.2 19.6898 40.0776C19.5005 39.8248 19.3581 39.5384 19.2602 39.2396C19.1455 38.8896 19.11 38.5152 19.1426 38.1495L19.1518 38.0461C19.183 37.7009 19.219 37.3505 19.2956 37.0131C19.2963 37.0087 19.2997 37.0069 19.3034 37.0069C19.3071 37.0069 19.3108 37.0091 19.3123 37.0131C19.519 37.6666 19.5356 38.3691 19.7677 39.0142C19.8613 39.2736 20.0062 39.5242 20.18 39.7393C20.2551 39.8324 20.3431 39.9132 20.4329 39.9921C20.4388 39.9519 20.4469 39.9121 20.4591 39.873L20.4688 39.8421C20.4808 39.8045 20.4957 39.7627 20.5164 39.7258C20.4872 39.7174 20.4588 39.7083 20.4307 39.698C20.4085 39.69 20.4037 39.6546 20.4307 39.6487C20.5043 39.6319 20.58 39.6235 20.6573 39.6199C20.6695 39.618 20.6813 39.6177 20.6931 39.6184C20.8377 39.614 20.9849 39.6242 21.1243 39.6264C21.3657 39.6301 21.6064 39.6344 21.8474 39.6451C22.3088 39.6648 22.8297 39.7521 23.2838 39.6461C23.6964 39.5497 24.1031 39.2779 24.434 39.0222C24.7231 38.7987 24.946 38.5331 25.186 38.2683C25.1687 38.2709 25.1516 38.2735 25.1346 38.2758L24.9799 38.2968C24.7846 38.3225 24.5528 38.3427 24.3978 38.25C24.3386 38.2146 24.3556 38.1342 24.4159 38.1123C24.5741 38.0549 24.7704 38.1024 24.939 38.0944C25.0713 38.0881 25.2052 38.0743 25.3357 38.0473C25.3786 38.0385 25.4211 38.0283 25.4632 38.0162C25.7723 37.9282 26.1354 37.6184 25.8899 37.2801C25.8807 37.2674 25.891 37.2557 25.9036 37.2534C25.9092 37.2524 25.9151 37.2534 25.9199 37.2575C26.1994 37.4861 26.0541 37.896 25.7897 38.0717C25.6988 38.1324 25.596 38.1748 25.4895 38.2058C25.5099 38.2427 25.5135 38.288 25.4891 38.3311C25.2821 38.6957 24.9316 39.016 24.6033 39.2736C24.2661 39.538 23.8772 39.7875 23.459 39.9044C22.9762 40.0388 22.4456 39.9377 21.9558 39.8949C21.6903 39.8719 21.4256 39.8445 21.1605 39.8142C21.0895 39.8062 21.0159 39.8 20.9412 39.793C21.0115 39.8843 21.0673 39.9895 21.1039 40.0527C21.223 40.258 21.1132 40.5284 20.8825 40.5912C20.8584 40.5978 20.8336 40.6014 20.8093 40.6021C20.7471 40.7252 20.5992 40.8158 20.4624 40.7694C20.4029 40.7494 20.3456 40.722 20.2906 40.6891C19.4302 41.4358 18.5244 42.1364 17.5927 42.7932C15.865 44.0111 14.0541 45.1234 12.1763 46.1013C11.7534 46.3216 11.3272 46.536 10.8974 46.742L10.5275 46.9182C10.118 47.1129 9.69893 47.3065 9.26408 47.4273C9.1793 47.4509 9.09053 47.4699 8.99958 47.4845C8.9984 47.4925 8.9981 47.5002 8.99864 47.5076C8.91687 47.5184 8.84552 47.52 8.7846 47.5125L8.77072 47.5106C8.2377 47.5475 7.66756 47.4189 7.32464 47.0342C7.26749 47.0739 7.18415 47.0782 7.11061 47.0212C6.74078 46.7345 6.52032 46.298 6.32685 45.8812C6.13068 45.4584 5.97691 45.0179 5.86392 44.5665C5.63825 43.665 5.54874 42.7351 5.54402 41.8078C5.52696 38.2345 6.4327 34.6298 8.00592 31.4218C8.40492 30.6082 8.84474 29.8098 9.33299 29.045C9.81991 28.2822 10.3853 27.5734 11.1094 27.0171C11.3176 26.8572 11.5343 26.7109 11.7577 26.5762C11.6077 26.5028 11.5482 26.316 11.5377 26.1501C11.5144 25.7816 11.5588 25.3571 11.7772 25.0462C12.0835 24.61 12.6318 24.3411 13.1402 24.2103C13.4057 24.1421 13.6802 24.1023 13.954 24.0889C14.0951 24.0819 14.2418 24.1048 14.3813 24.0898C14.5043 24.0766 14.5804 24.004 14.6512 23.9086C14.8324 23.6641 14.9505 23.4077 15.2105 23.2285C15.4773 23.0446 15.823 22.9743 16.1444 22.9933C16.5188 23.0156 16.8604 23.1613 17.1901 23.3288C17.4878 23.48 17.7767 23.6474 18.0582 23.8261C18.1098 23.7066 18.1584 23.5862 18.2036 23.4654C18.2913 23.2312 18.3676 22.9895 18.4295 22.7474C18.4922 22.5018 18.4831 22.1776 18.6726 21.993C18.8374 21.8325 19.1547 21.8955 19.2081 22.1327ZM31.9811 38.515L31.9798 38.5152C31.5965 38.7397 31.4132 39.3006 31.2327 39.5457C31.2475 39.6279 31.2578 39.7115 31.2782 39.7893C31.3248 39.968 31.3858 40.1452 31.4564 40.3154C31.5806 40.616 31.7363 40.9024 31.8801 41.1939C31.9958 41.4283 32.1092 41.667 32.1974 41.9138C32.1879 41.9232 32.179 41.9345 32.1715 41.9484C32.0758 42.1254 32.0009 42.0906 31.8244 42.052L31.8243 42.0516C31.7233 41.7463 31.5777 41.4595 31.4468 41.1665L31.415 41.095L31.3835 41.0234C31.2741 40.7726 31.1743 40.5195 31.1162 40.2507C31.0793 40.0794 31.0641 39.9033 31.0619 39.7283C30.9662 39.8062 30.8512 39.8621 30.7063 39.8836C30.3962 39.9299 30.1153 39.738 29.8626 39.584L29.8057 39.5496C29.6475 39.4545 29.4907 39.3667 29.3083 39.3217C29.1013 39.2706 28.8872 39.2706 28.6769 39.2447C28.6517 39.2414 28.6262 39.2381 28.6007 39.2341C28.6828 39.5026 28.7208 39.7941 28.7697 40.063C28.8377 40.44 28.8932 40.8202 28.9464 41.1994C29.0499 41.9344 29.122 42.6752 29.1586 43.4164C29.194 44.1341 29.1762 44.849 29.1499 45.5665L29.1368 45.9163C29.1263 46.2012 29.1176 46.4863 29.1227 46.7713C29.1368 46.7723 29.1508 46.7746 29.1649 46.7779C29.3106 46.8115 29.41 46.9583 29.5431 47.0237C29.8241 47.1618 30.1635 47.16 30.4626 47.0902C31.1429 46.9309 31.7086 46.4618 32.0812 45.8887C32.5286 45.2012 32.6928 44.3921 32.6875 43.5826C32.6814 42.6715 32.5321 41.8005 32.3242 40.921L32.3108 40.8648C32.1359 40.1321 32.0263 38.5219 31.9811 38.515ZM12.9317 36.6768C12.9356 36.9218 12.8348 37.1839 12.7793 37.422C12.7197 37.6786 12.6601 37.9351 12.5998 38.1915L12.5455 38.4213C12.5003 38.6127 12.4558 38.8043 12.4159 38.997C12.383 39.1553 12.3693 39.364 12.3155 39.5386C12.9554 39.2829 13.5962 39.0298 14.236 38.7749C15.0243 38.4608 15.8162 38.1554 16.6063 37.8463C17.3934 37.5388 18.1761 37.1888 18.9792 36.9258C19.1703 36.863 19.2997 37.1643 19.1167 37.2479C18.3011 37.6217 17.4382 37.9143 16.6026 38.2416L15.3939 38.7157C14.2859 39.1501 13.1772 39.5824 12.0628 39.9998C11.3038 40.284 10.5477 40.5766 9.78388 40.8465C9.4197 40.9751 9.05224 41.0968 8.68988 41.2301C8.38634 41.3419 8.05803 41.5077 7.94564 41.8299C7.93972 41.8467 7.91643 41.8398 7.91902 41.8226C7.96449 41.5106 8.19893 41.3156 8.46324 41.168C8.81406 40.9716 9.19938 40.8287 9.56969 40.6712L9.62009 40.6497C10.3763 40.3238 11.1386 40.0112 11.9031 39.7037C11.8955 39.6855 11.891 39.6659 11.8907 39.6454L11.8885 39.646C11.8746 39.5064 11.9394 39.3818 11.9861 39.2519L12.1198 38.8792C12.2089 38.631 12.2888 38.3797 12.3712 38.1292C12.4573 37.8674 12.5442 37.6059 12.631 37.3444C12.7045 37.1228 12.7539 36.8588 12.8796 36.6607C12.8948 36.6369 12.9365 36.6503 12.9317 36.6768ZM27.6572 36.1258L27.6477 36.1734C27.6366 36.229 27.6261 36.2851 27.6235 36.3413C27.6161 36.4885 27.6331 36.6357 27.6727 36.7779C27.7115 36.9185 27.7659 37.0544 27.8432 37.179C27.9164 37.2962 28.0225 37.3883 28.0901 37.5085C28.0971 37.5212 28.1016 37.534 28.1034 37.5464C28.1293 37.5358 28.1548 37.5263 28.1796 37.5186C28.3859 37.454 28.5966 37.3999 28.8103 37.3594L28.7764 37.3571L28.7545 37.3554C28.3975 37.3256 28.0606 37.2102 28.1334 36.7983C28.1746 36.5655 28.3595 36.4093 28.5578 36.2987L28.5826 36.2851C28.5933 36.2792 28.6044 36.2733 28.6151 36.2683C28.4358 36.2383 28.3057 36.2014 28.0857 36.1649C27.9429 36.1411 27.7999 36.128 27.6572 36.1258ZM11.3456 31.0525C11.6967 31.7533 11.9608 32.4985 12.1601 33.2546C12.2563 33.6197 12.3379 33.9884 12.4036 34.3601L12.4251 34.4842L12.4374 34.5515C12.4987 34.8828 12.5766 35.2417 12.4865 35.5649C12.4571 35.6705 12.2797 35.7123 12.23 35.5981C12.0801 35.2532 12.1012 34.8569 12.0577 34.4878C12.0121 34.1006 11.9498 33.7152 11.8721 33.333C11.723 32.5986 11.5137 31.8814 11.2803 31.1696L11.2543 31.0905C11.2345 31.0378 11.3208 31.003 11.3456 31.0525ZM24.8403 34.1879C24.7356 34.2365 24.631 34.2811 24.5386 34.3256C24.5316 34.3293 24.5242 34.3325 24.5168 34.3362C24.6214 34.3187 24.7264 34.3022 24.8314 34.2869C24.8303 34.2533 24.8337 34.22 24.8403 34.1879ZM28.9343 33.8369C28.9186 33.8419 28.9047 33.85 28.8926 33.8612L28.8867 33.8671C28.8723 33.8803 28.8621 33.896 28.8562 33.9141C28.8469 33.9315 28.8426 33.9503 28.8434 33.9704L28.8487 34.0092C28.8557 34.034 28.8684 34.0554 28.8867 34.0737L28.9166 34.0965C28.9368 34.1081 28.9584 34.1146 28.9814 34.1162L28.9913 34.1165L29.0212 34.1165C29.0383 34.116 29.0544 34.1118 29.0696 34.1039C29.0853 34.0989 29.0992 34.0908 29.1112 34.0796L29.1171 34.0737C29.1316 34.0605 29.1418 34.0448 29.1477 34.0267C29.1557 34.0118 29.1599 33.9958 29.1605 33.9789L29.1605 33.9704L29.1552 33.9315C29.149 33.9099 29.1386 33.8907 29.1237 33.8741L29.1171 33.8671L29.0872 33.8442C29.067 33.8327 29.0455 33.8261 29.0225 33.8246L29.0126 33.8243H28.9913C28.9709 33.8235 28.9519 33.8277 28.9343 33.8369ZM27.9723 33.7874C27.8938 33.8017 27.8492 33.8958 27.8691 33.9671C27.891 34.0461 27.967 34.0812 28.0433 34.0705L28.051 34.0692C28.1404 34.053 28.228 34.0592 28.3131 34.0903C28.388 34.1176 28.4752 34.0597 28.495 33.9882C28.5177 33.9066 28.4669 33.8359 28.3917 33.8085C28.2568 33.7592 28.112 33.762 27.9723 33.7874ZM12.3957 28.5982C12.5746 28.8572 12.6863 29.2016 12.7965 29.4976L12.8075 29.527C12.9246 29.8381 13.0376 30.1516 13.143 30.4669C13.3533 31.0961 13.6274 31.7545 13.6781 32.4192C13.6874 32.5419 13.4974 32.5911 13.4423 32.4823C13.2841 32.1698 13.1989 31.8439 13.1053 31.5088C13.016 31.1892 12.9229 30.8707 12.8298 30.5521C12.7368 30.2338 12.6467 29.9145 12.5551 29.5957C12.4659 29.2856 12.3418 28.9408 12.3214 28.6181C12.3188 28.5761 12.3751 28.5684 12.3957 28.5982ZM16.4334 26.5129C16.6722 26.6767 16.8677 26.9162 17.0698 27.121C17.2748 27.3289 17.4771 27.5387 17.6775 27.7509C18.0124 28.1056 18.3411 28.4661 18.6807 28.8165C19.3575 29.5148 20.123 30.1574 21.057 30.4855C21.283 30.565 21.184 30.9233 20.9575 30.8422C20.0022 30.5 19.2108 29.8673 18.5127 29.1515C18.1512 28.7808 17.8194 28.3846 17.496 27.9815C17.3446 27.7928 17.1944 27.6035 17.0463 27.4124L16.9577 27.2976C16.7714 27.0548 16.5436 26.8128 16.4073 26.5387C16.3996 26.5233 16.4164 26.5013 16.4334 26.5129Z" fill="black"/>
<path fill-rule="evenodd" clip-rule="evenodd" d="M27.6187 13.7661C27.284 12.3723 26.5525 11.0753 25.3812 10.0271C21.8568 6.58428 15.3844 8.45296 15.4137 13.641C15.2873 14.2469 15.236 14.87 15.2778 15.488C15.2951 15.7516 15.4106 16.1196 15.2555 16.3569C14.9055 16.8008 14.702 17.1281 14.8212 17.7186C14.9207 18.2342 15.2758 18.5995 15.7552 18.7937C16.0426 18.8752 16.3153 19.0527 16.4218 19.3234C17.0617 20.4808 17.5357 21.4435 18.5444 22.2322C18.8047 22.4353 21.4742 23.6533 22.3538 23.6533C24.929 23.6533 28.1746 22.7316 28.2285 19.8896C28.2378 19.2654 28.1269 18.6339 28.0573 18.0146C27.8881 16.6014 27.9478 15.1369 27.6187 13.7661Z" fill="white"/>
<path fill-rule="evenodd" clip-rule="evenodd" d="M27.5607 13.0689C27.5615 13.0517 27.5865 13.0478 27.5914 13.0648C27.6871 13.4004 27.7413 13.7422 27.8162 14.0829C27.8883 14.4111 27.9563 14.7403 28.013 15.0714C28.1199 15.6963 28.2099 16.3228 28.2937 16.951L28.3145 17.1081C28.4601 18.2133 28.7006 19.3648 28.4903 20.4765C28.3109 21.4252 27.7093 22.1897 26.9341 22.7503C26.2 23.281 25.31 23.6216 24.4263 23.8153C23.4778 24.0232 22.3536 24.0852 21.5818 23.398C21.2729 23.1228 21.6941 22.5768 22.0292 22.8252C22.8162 23.4081 23.8173 23.2363 24.7053 23.0043L24.7322 22.9973C25.5116 22.7921 26.2962 22.4812 26.915 21.9568C27.599 21.3768 27.9373 20.572 27.9764 19.6893C27.9983 19.1934 27.9515 18.698 27.901 18.205L27.8954 18.1503C27.8375 17.5865 27.7767 17.0229 27.7206 16.4589C27.6694 15.9446 27.6253 15.4273 27.6019 14.9107L27.5911 14.6501C27.5684 14.1248 27.5379 13.5917 27.5607 13.0689ZM18.331 8.70393C19.6116 8.04519 21.0834 7.80943 22.5086 8.03051C23.8787 8.24304 25.1361 8.94156 26.0759 9.94317C26.5348 10.4322 26.9421 10.9979 27.2024 11.6158C27.3316 11.9228 27.4329 12.2431 27.4868 12.572C27.5145 12.7411 27.5418 12.9163 27.547 13.0877C27.5518 13.2464 27.5046 13.3953 27.5102 13.5566C27.511 13.5819 27.4719 13.5867 27.4659 13.5626C27.4214 13.3827 27.3142 13.2466 27.2469 13.0757C27.1966 12.9481 27.1395 12.8236 27.0815 12.6994L27.0315 12.593C26.8867 12.2837 26.7136 11.9871 26.5423 11.6916C26.1974 11.0963 25.7548 10.5554 25.2366 10.099C24.3268 9.29758 23.1595 8.78028 21.9413 8.68713C20.6768 8.5904 19.3942 8.88819 18.3144 9.54784C17.2346 10.2075 16.4181 11.2328 15.9942 12.4134C15.7803 13.0092 15.6622 13.63 15.6347 14.2611C15.6208 14.5806 15.6338 14.9028 15.6564 15.2216L15.6677 15.3737C15.6809 15.556 15.6899 15.7377 15.6623 15.9156C15.8571 15.8556 16.0613 15.8307 16.2662 15.8604C16.5706 15.9046 16.7525 16.0279 16.8891 16.2967C16.8962 16.3107 16.8819 16.3247 16.8678 16.3177C16.6907 16.2304 16.4043 16.2764 16.2167 16.3222C16.0216 16.3698 15.8458 16.4526 15.68 16.5646C15.3733 16.7717 15.1328 17.0926 15.0738 17.4608C15.0167 17.8165 15.1645 18.1766 15.4127 18.4315C15.5405 18.5628 15.6933 18.6763 15.8642 18.747C16.0718 18.8329 16.2772 18.8302 16.4608 18.972C16.5743 19.0596 16.5469 19.2096 16.4699 19.3069C16.8572 19.7265 17.2007 20.1856 17.5881 20.6069C17.7676 20.8022 17.9457 20.9977 18.1177 21.1993L18.1819 21.2752C18.3537 21.48 18.627 21.6964 18.7055 21.954C18.7543 22.1142 18.5806 22.3238 18.4051 22.2508C18.1357 22.1388 17.9435 21.8473 17.7615 21.6237L17.7496 21.6092C17.5588 21.3775 17.3893 21.1329 17.2344 20.8765L17.1835 20.7921C16.9034 20.3266 16.6257 19.8439 16.447 19.3325C16.4352 19.3445 16.4227 19.3554 16.4096 19.3646C16.1523 19.5454 15.7782 19.4064 15.5212 19.289C15.2786 19.1782 15.0562 19.0115 14.8828 18.8106C14.5058 18.3736 14.3319 17.8077 14.4579 17.2406C14.5645 16.7602 14.9015 16.2929 15.3433 16.0499C15.1394 15.8179 15.055 15.5052 14.9988 15.1995C14.927 14.8092 14.9127 14.4093 14.9322 14.0136C14.9711 13.2254 15.1764 12.4484 15.4938 11.7267C16.0616 10.4353 17.0654 9.355 18.331 8.70393ZM15.6357 17.3217C15.9045 17.2719 16.1549 17.2599 16.4142 17.3723C16.6954 17.4943 16.8933 17.6956 17.0773 17.9315C17.2866 18.1999 16.7501 18.493 16.6149 18.1368L16.6109 18.1258C16.5746 18.0203 16.5098 17.9184 16.4276 17.8245C16.4029 17.8619 16.3699 17.8947 16.3312 17.9135C16.2843 17.9363 16.2126 17.9206 16.2013 17.8613C16.1888 17.7956 16.2027 17.716 16.2411 17.6604L16.2463 17.6528C16.0598 17.5045 15.8355 17.3962 15.6357 17.3613C15.6157 17.3578 15.6159 17.3253 15.6357 17.3217Z" fill="black"/>
<path fill-rule="evenodd" clip-rule="evenodd" d="M24.0516 21.1708C23.8031 21.0707 23.5813 20.9036 23.4192 20.6901C23.3628 20.6159 23.3482 20.5375 23.3601 20.4659C23.3733 20.3853 23.4216 20.3122 23.4874 20.2632C23.5534 20.2141 23.636 20.1898 23.7158 20.2022C23.7852 20.2129 23.8543 20.2505 23.9089 20.3283L23.9203 20.3439C24.0167 20.4727 24.1423 20.5784 24.2854 20.6465C24.4234 20.7122 24.5776 20.7429 24.7373 20.725C25.0413 20.6911 25.2509 20.5286 25.4736 20.308C25.5013 20.2802 25.5289 20.2514 25.5566 20.2222C25.5742 20.1958 25.5985 20.1788 25.6255 20.1699C25.6555 20.1599 25.6894 20.1605 25.7205 20.1712C25.7505 20.1816 25.7773 20.2011 25.7953 20.2272C25.8123 20.252 25.822 20.2826 25.8189 20.3178C25.7985 20.5464 25.6775 20.7505 25.5056 20.9107C25.3148 21.0887 25.0618 21.2118 24.8236 21.2549C24.5612 21.3025 24.2938 21.2684 24.0516 21.1708ZM24.9474 17.6436C25.2266 17.8112 25.652 18.2022 25.3516 18.6179C24.9981 18.9844 24.4891 18.5642 24.2382 18.3741C24.0057 18.2268 23.7443 18.6057 23.9601 18.7776C25.7726 20.1035 26.5082 17.6874 25.0886 17.4464C24.9323 17.4199 24.8742 17.5917 24.9474 17.6436ZM21.6994 16.1012C21.7302 15.7229 22.3133 15.637 22.3714 16.0114C22.4233 16.3467 22.3622 16.6548 22.2093 16.9567C22.0632 17.2451 21.696 17.1106 21.6683 16.8479C21.6311 16.4958 21.6802 16.3366 21.6994 16.1012ZM26.1383 15.9338C26.2196 15.8286 26.337 15.7567 26.4777 15.7973C26.9171 15.9242 26.7876 16.5406 26.6332 16.8406C26.5494 17.0035 26.2783 17.0448 26.1559 16.9014C25.9562 16.6674 25.8606 16.2002 26.1144 15.9698C26.1213 15.9579 26.1289 15.9459 26.1383 15.9338ZM22.2031 14.4459L22.2725 14.4339C22.4872 14.3972 22.7542 14.3619 22.9061 14.5325C22.9867 14.6229 23.0144 14.791 22.9061 14.8776C22.7156 15.0299 22.505 14.9709 22.2768 14.9838C22.0887 14.9945 21.9079 15.0252 21.7267 15.0764C21.3291 15.1887 21.0052 15.3936 20.6657 15.6186C20.6212 15.6481 20.5757 15.5918 20.597 15.5507C20.7929 15.1714 21.1728 14.8598 21.5532 14.6699C21.7562 14.5685 21.9784 14.4844 22.2031 14.4459ZM25.7378 14.276L25.7909 14.2867C26.369 14.4061 27.1202 14.6446 27.3939 15.2057C27.4044 15.285 27.3934 15.302 27.3844 15.3132L27.3814 15.3168C27.374 15.3263 27.3681 15.3394 27.3333 15.3502C27.3237 15.3479 27.3139 15.3455 27.3041 15.343C27.1786 15.3105 27.0793 15.2657 26.9831 15.2193L26.8789 15.1685C26.758 15.11 26.636 15.0535 26.5067 15.0118C26.2309 14.9229 25.9471 14.8603 25.6589 14.8268C25.5964 14.8196 25.5363 14.7988 25.4889 14.7631C25.4438 14.7292 25.4094 14.6823 25.3937 14.6199C25.3734 14.5392 25.3792 14.4781 25.4231 14.4053C25.456 14.3507 25.5032 14.3128 25.5573 14.291C25.6125 14.2688 25.6753 14.2636 25.7378 14.276Z" fill="black"/>
<path fill-rule="evenodd" clip-rule="evenodd" d="M26.3727 19.1214C25.8541 19.035 25.3153 19.1627 24.8153 19.2988C24.021 18.7835 22.9919 19.3036 22.423 19.9473C22.2283 20.1057 21.8195 20.3162 22.0349 20.6184C21.9533 20.8321 21.9314 20.9326 22.1004 20.6828C23.0568 20.7916 24.083 20.5861 25.0295 20.3923C25.3518 20.4993 25.6364 20.7497 25.9906 20.6639C26.3256 20.7343 26.6882 20.8 26.9906 20.5877C27.2209 20.5785 27.7332 20.987 27.725 20.5119C27.6537 20.0565 26.7398 19.2988 26.3727 19.1214Z" fill="white"/>
<path fill-rule="evenodd" clip-rule="evenodd" d="M26.7615 20.5834C26.1985 20.6449 25.6276 20.5545 25.1561 20.2315C25.1069 20.1978 25.0584 20.1981 25.0189 20.2179C24.9708 20.2126 24.9216 20.2316 24.893 20.2859C24.7746 20.5112 24.3823 20.461 24.1666 20.4656C23.461 20.479 22.7309 20.4406 22.0519 20.6513C22.7013 19.3971 23.5993 18.8556 24.989 19.348C24.8635 19.4479 25.4897 19.2141 25.5446 19.2097C26.5061 18.9717 27.2993 19.7684 27.6868 20.558C27.3937 20.4891 27.0652 20.5502 26.7615 20.5834ZM28.1045 20.7968C27.6805 19.8533 26.8446 18.8159 25.6786 18.9789C25.4392 19.0137 25.1874 19.1753 24.9464 19.1462C24.2486 18.8915 23.6725 18.7621 22.9737 19.1739C22.6771 19.1958 21.0085 21.2369 21.8015 21.0703C22.7748 20.518 24.4671 21.0382 25.0716 20.5443C26.2582 21.3139 27.223 20.4779 27.8917 20.9589C28.008 21.0643 28.1711 20.9331 28.1045 20.7968Z" fill="black"/>
<path fill-rule="evenodd" clip-rule="evenodd" d="M28.2562 17.866C27.8074 18.3243 27.058 18.4558 26.4608 18.21C24.9274 17.577 25.6779 15.6026 26.8605 15.0724C27.0083 15.036 27.2056 14.9497 27.3855 14.9301C27.4018 14.9222 27.4372 14.945 27.4802 14.9234C28.7842 15.0673 29.0811 17.0674 28.2562 17.866ZM23.3102 17.9833C22.8068 18.6431 21.8708 18.8466 21.1061 18.5399C19.5953 17.9521 20.1311 16.2013 21.1648 15.5149C23.3482 14.7043 24.2498 16.7669 23.3102 17.9833ZM20.0352 16.5215C20.0338 16.5208 20.0324 16.5205 20.031 16.5199C20.039 16.5164 20.047 16.5129 20.0549 16.5094C20.0523 16.5161 20.0495 16.5227 20.047 16.5293C20.0431 16.5267 20.0396 16.5236 20.0352 16.5215ZM29.2956 15.8083C29.1723 15.8086 28.9943 15.8286 28.8922 15.9131C28.6406 15.0746 27.7118 14.2986 26.904 14.8645C26.2679 15.0666 25.7959 15.5148 25.5276 16.1108C25.0439 15.8265 24.2833 15.9479 23.8639 16.3238C23.5892 15.427 22.9131 15.1129 22.1084 15.0666C21.2301 14.9245 20.3547 15.7672 20.0816 16.4433C19.8545 16.4178 19.5151 16.3464 19.3014 16.4849C17.9147 16.1256 15.4903 15.9274 15.2084 16.1271C15.0075 16.2032 14.8972 16.6718 15.1778 16.6971C15.4224 16.6628 15.1493 16.3538 15.3958 16.32C16.7091 16.2396 17.9841 16.5009 19.2836 16.6106C19.3996 16.7648 19.7744 16.8164 19.9744 16.7544C19.6595 17.9013 20.3394 18.6816 21.3581 18.9153C22.9356 19.2733 24.308 17.879 23.8955 16.4288C24.3734 16.1939 24.9231 16.204 25.4436 16.3277C24.5738 19.4908 29.7297 19.3489 28.9245 16.0215C29.4604 16.2849 29.5767 15.8615 29.2956 15.8083Z" fill="black"/>
</g>
<defs>
<clipPath id="clip0_128_263">
<rect width="40" height="54" fill="white"/>
</clipPath>
</defs>
</svg>
