<svg width="40" height="54" viewBox="0 0 40 54" fill="none" xmlns="http://www.w3.org/2000/svg">
<path fill-rule="evenodd" clip-rule="evenodd" d="M32.039 44.0308C31.8734 43.0949 31.7215 42.1565 31.5835 41.2161C31.518 40.7697 31.4541 40.3228 31.3966 39.8752C31.3564 39.5615 31.2951 39.2029 31.5084 38.9707C31.8085 38.6437 32.0812 38.3639 32.1179 37.8956C32.1525 37.455 32.0035 36.9747 31.9104 36.547C31.7151 35.6501 31.472 34.7643 31.2034 33.8869C30.9305 32.9955 30.6312 32.1124 30.3276 31.2311C30.0438 30.407 29.771 29.5755 29.4013 28.7849C28.6998 27.2845 27.5129 26.1734 26.0461 25.4315C25.6813 25.247 24.9372 24.5883 24.5561 24.4408C24.2057 24.3052 24.207 24.7011 23.8621 24.552C23.5865 24.4328 23.3298 24.2738 23.1754 24.0075C23.0078 23.7184 22.5876 23.314 22.5236 22.9775C22.388 22.2641 22.5349 21.657 22.0259 21.12C21.5741 20.6433 20.9668 20.3167 20.3385 20.1413C18.9562 19.7556 17.1127 20.0253 16.2787 21.3102C15.8804 21.9239 15.7412 22.6656 15.2037 23.1664C14.7343 23.6037 14.8393 23.9027 14.2315 24.128C14.197 24.1408 13.2638 23.9406 13.2294 23.9534C12.5644 23.811 11.9288 24.2095 11.3187 24.4408C10.4091 24.7855 9.54311 25.2342 8.72953 25.7674C7.08902 26.8427 5.68395 28.239 4.52558 29.8191C3.35763 31.4122 2.45142 33.1978 1.80617 35.064C1.64947 35.5173 1.50872 35.9761 1.38457 36.4394C1.31508 36.6987 1.24081 36.9676 1.32543 37.2331C1.39464 37.4503 1.54858 37.612 1.72936 37.7423C1.97442 37.9189 2.46597 38.0337 2.45639 38.389C2.44908 38.6591 2.35747 38.9434 2.31276 39.2103C2.25954 39.5282 2.21582 39.848 2.17209 40.1673C1.97319 41.6206 1.81838 43.0821 1.74991 44.5477C1.68251 45.9908 1.62658 47.4635 1.72665 48.9061C1.73327 49.0013 1.76162 49.0886 1.80736 49.1624C1.76467 49.1788 1.76138 49.2584 1.81451 49.2697C1.85175 49.2776 1.8889 49.2854 1.92613 49.2933C2.00347 49.3519 2.09993 49.3878 2.21093 49.3913C2.28617 49.3937 2.36138 49.397 2.43654 49.4009C3.22974 49.5668 4.02281 49.7235 4.82636 49.8421C5.80313 49.9863 6.78277 50.1039 7.76546 50.1995C9.78471 50.3958 11.7881 50.3307 13.81 50.2249C15.8288 50.1192 17.8464 50.0945 19.8673 50.147C21.8899 50.1997 23.9119 50.2877 25.935 50.3237C28.1952 50.3639 30.452 50.3021 32.7057 50.1224C33.0147 50.0978 33.2059 49.8519 33.1449 49.5448C32.7798 47.7054 32.366 45.8782 32.039 44.0308Z" fill="white"/>
<path fill-rule="evenodd" clip-rule="evenodd" d="M12.5987 23.9081C12.8078 23.899 13.0209 23.9329 13.2294 23.9534C13.2476 23.9551 13.2545 23.9832 13.234 23.9874C12.8608 24.0654 12.4917 24.1721 12.1252 24.2805L11.9683 24.327C11.555 24.4493 11.1538 24.5754 10.7537 24.7386C9.95627 25.0637 9.19891 25.5025 8.50188 26.0067C5.81782 27.948 3.87521 30.8873 2.64932 33.9304C2.3164 34.7569 2.03432 35.6039 1.80582 36.4651C1.75026 36.6747 1.69799 36.885 1.64842 37.0961C1.63388 37.1579 1.57046 37.3164 1.60523 37.3797C1.63597 37.4357 1.75548 37.4702 1.811 37.4993L1.99844 37.5966C2.36407 37.7851 2.97311 38.095 3.03418 38.1252L3.12943 38.1721C4.68741 38.9361 6.35209 39.5841 8.1053 39.6289L8.11903 39.4791C8.19719 38.6511 8.29977 37.8187 8.52366 37.0161C8.5357 36.9729 8.59056 36.9875 8.59558 37.0258C8.7203 37.976 8.68044 38.9335 8.63692 39.888C8.55987 41.5786 8.45754 43.2683 8.36659 44.9583C8.32106 45.8037 8.26221 46.6485 8.20907 47.4934C8.15585 48.34 8.13863 49.207 8.01711 50.0466C7.99003 50.2338 7.7709 50.3356 7.60496 50.3158C7.42134 50.294 7.2801 50.1322 7.27923 49.9467C7.27701 49.4576 7.33845 48.9627 7.3726 48.4747C7.40503 48.0112 7.43984 47.5478 7.47551 47.0845C7.60586 45.3935 7.75582 43.7045 7.89452 42.0143C7.94367 41.4148 7.99677 40.8158 8.05143 40.2169C6.19417 40.157 4.45906 39.4688 2.8038 38.6647C2.77984 39.2089 2.72197 39.7522 2.66596 40.2941C2.50959 41.8064 2.37171 43.3182 2.26852 44.8353C2.21641 45.6015 2.17848 46.3686 2.14544 47.1359C2.12921 47.5129 2.11597 47.8901 2.10582 48.2674C2.10243 48.3931 2.09936 48.5189 2.09664 48.6447L2.09099 48.9328C2.08637 49.1154 2.06782 49.2845 1.91427 49.4174C1.75831 49.5523 1.54766 49.5595 1.3933 49.4174C1.18667 49.227 1.2232 48.9677 1.22933 48.712C1.23442 48.4964 1.24055 48.2808 1.24766 48.0653C1.26192 47.6341 1.28012 47.2031 1.30227 46.7723C1.37978 45.2661 1.53466 43.766 1.73705 42.2718L1.81606 41.6951C1.96361 40.6229 2.12559 39.5263 2.45543 38.4934C2.327 38.4295 2.19895 38.3652 2.07138 38.3005C1.84511 38.1859 1.61115 38.0784 1.3912 37.9519C1.21671 37.8515 1.06622 37.7139 1.01764 37.5107C0.963467 37.2844 1.04631 37.0369 1.10134 36.8161L1.10612 36.7967C1.16008 36.5744 1.21819 36.353 1.27951 36.1326C1.52814 35.2389 1.83558 34.3626 2.19537 33.5076C2.91578 31.7961 3.84566 30.17 4.98151 28.6998C6.00394 27.3764 7.21175 26.1763 8.62735 25.2762C9.3194 24.8361 10.0569 24.4748 10.8369 24.2193C11.2014 24.0999 11.5981 23.9961 11.9798 23.9533C12.1857 23.9303 12.3919 23.9171 12.5987 23.9081ZM16.302 21.1959C16.5504 20.9291 17.0439 21.2052 16.9247 21.5586C16.6441 22.3898 16.1974 23.148 15.5003 23.6942C14.8449 24.2077 14.0635 24.5412 13.2219 24.47C13.2155 24.4695 13.2098 24.4678 13.2048 24.4655L13.2774 24.5639C13.8467 25.3344 14.4474 26.0942 15.1714 26.724C16.6464 28.0071 18.6548 28.6992 20.5941 28.2069C22.1199 27.8196 23.4642 26.6125 23.8595 25.0743C23.8028 25.0997 23.7355 25.1084 23.6616 25.0923C23.3452 25.0236 23.0321 24.6908 22.8281 24.4522C22.6074 24.194 22.435 23.9153 22.3087 23.6002C22.0775 23.0236 22.0034 22.2811 22.3191 21.7226C22.358 21.6537 22.4479 21.6923 22.4555 21.7595L22.4675 21.8644C22.5284 22.3879 22.6042 22.8943 22.8509 23.3716C22.9717 23.6051 23.1164 23.833 23.2926 24.0286C23.3869 24.1332 23.4891 24.2332 23.5994 24.3209C23.7069 24.4064 23.8371 24.4682 23.9335 24.5663L23.9511 24.5851L23.9516 24.5817C23.976 24.3745 24.1213 24.2832 24.2634 24.2889C24.401 24.2944 24.5626 24.355 24.6251 24.384L24.6311 24.3868C25.5907 24.8477 26.4746 25.4484 27.3064 26.1148C29.0265 27.493 30.3153 29.2948 30.9397 31.4165C31.2462 32.4578 31.4221 33.5308 31.6077 34.5988L31.722 35.2531C31.8953 36.2391 32.0889 37.2444 32.48 38.1615C32.5812 38.3988 32.5032 38.6213 32.2551 38.7146C31.9453 38.8311 31.6344 38.9439 31.323 39.0553C31.4759 39.7116 31.5691 40.3906 31.6837 41.0501C31.9272 42.452 32.2256 43.8449 32.4815 45.245C32.6123 45.9608 32.7303 46.679 32.861 47.395C32.9239 47.7397 32.9896 48.084 33.0535 48.4286C33.0879 48.6144 33.1191 48.8008 33.1519 48.9869L33.1576 49.0178C33.1764 49.1159 33.2001 49.2175 33.1731 49.3157C33.1423 49.4277 33.0549 49.5069 32.9768 49.5872C32.9126 49.6534 32.8198 49.6538 32.7411 49.6177L32.7152 49.6057C32.5746 49.5399 32.4645 49.4743 32.4146 49.3157C32.3831 49.2153 32.3717 49.1021 32.3511 48.9986C32.3115 48.8003 32.274 48.6017 32.2385 48.4025C32.1677 48.004 32.0985 47.6052 32.0309 47.2061L31.9678 46.8324C31.7512 45.5444 31.5455 44.2485 31.4416 42.9469C31.3954 42.3695 31.3466 41.7925 31.2972 41.2155L31.2602 40.7826C31.2133 40.2348 31.1561 39.6732 31.148 39.1179L30.9618 39.1841L30.0531 39.5054C29.8278 39.5851 29.541 39.7483 29.2985 39.7186C29.1798 39.704 29.0893 39.6667 29.0194 39.5987C29.1031 40.78 29.2164 41.9592 29.3673 43.1324C29.5047 44.2 29.6569 45.266 29.8368 46.3273C29.9258 46.8528 30.0173 47.3778 30.1168 47.9014C30.1664 48.1632 30.2177 48.4247 30.2706 48.6859C30.2969 48.8162 30.3283 48.9467 30.3488 49.0781C30.3723 49.2286 30.3309 49.3211 30.2469 49.4449C30.1779 49.5466 30.0398 49.5988 29.9279 49.5286C29.7797 49.4356 29.7024 49.355 29.6588 49.1856C29.6192 49.0317 29.5951 48.871 29.5645 48.7152C29.5079 48.4275 29.4532 48.1394 29.4004 47.851C29.2899 47.2478 29.1881 46.6431 29.0972 46.0366C28.7769 43.9001 28.5736 41.7457 28.471 39.5877C28.4203 38.523 28.4047 37.4574 28.4137 36.3916C28.4183 35.8453 28.4361 35.2975 28.4747 34.7525C28.5138 34.2009 28.5952 33.6604 28.6679 33.1141C28.6704 33.0948 28.6975 33.0937 28.6987 33.1141C28.7331 33.7265 28.787 34.3383 28.8134 34.9524C28.8387 35.5384 28.8497 36.1253 28.8698 36.7114C28.8961 37.482 28.9327 38.2529 28.981 39.0234C29.0686 38.9275 29.2006 38.8723 29.3327 38.8939C29.524 38.8537 29.73 38.7533 29.9124 38.6923L30.6001 38.4625C30.9616 38.3417 31.3232 38.2217 31.686 38.1054C31.3616 37.0137 31.1394 35.9058 30.9497 34.7817L30.8651 34.2762C30.6976 33.2811 30.517 32.2855 30.2136 31.3219C29.8946 30.3089 29.4173 29.367 28.7842 28.514C28.16 27.6734 27.4007 26.9332 26.6189 26.2409C25.9496 25.6482 25.2336 25.1131 24.5509 24.5367C24.558 24.5749 24.5595 24.617 24.5533 24.6632C24.4081 25.7259 23.8539 26.7156 23.0816 27.4517C21.53 28.9306 19.2333 29.2374 17.2475 28.5439C15.3265 27.8731 13.6281 26.2845 13.0281 24.3186C13.0178 24.285 13.0629 24.2716 13.0809 24.2963C13.1142 24.342 13.1477 24.3876 13.1812 24.4332C13.1789 24.4151 13.1883 24.3954 13.2107 24.3867C13.9108 24.1163 14.5983 23.7328 15.1231 23.1902C15.3789 22.9257 15.6021 22.6261 15.7783 22.303C15.8627 22.1482 15.9386 21.9879 15.999 21.8223L16.0144 21.7794C16.0877 21.5719 16.149 21.3603 16.302 21.1959Z" fill="black"/>
<path fill-rule="evenodd" clip-rule="evenodd" d="M20.01 4.02686C22.3435 4.02686 25.2661 6.68973 26.1214 7.82288C26.8406 8.77559 26.7388 13.6836 26.7388 16.595C26.7388 17.2039 26.4637 18.3564 26.3638 18.9388C25.9978 21.0731 24.4032 22.8631 21.2471 22.8631C18.6772 22.8631 16.6996 22.0488 14.7872 19.9661C14.3509 19.491 12.2201 21.192 11.7843 20.5794C10.6461 20.5794 9.69438 9.94051 11.9291 6.74946C14.1639 3.55841 17.6766 4.02686 20.01 4.02686Z" fill="white"/>
<path fill-rule="evenodd" clip-rule="evenodd" d="M12.9966 4.77623C14.345 3.54904 16.1413 2.95867 17.9536 3.00225C18.8922 3.02486 19.8276 3.2037 20.714 3.50998C21.1574 3.66374 21.5869 3.86437 21.9974 4.09131C22.1454 4.1729 22.2818 4.2685 22.4131 4.37003L22.4458 4.39554H22.4462C22.7984 4.52216 23.1128 4.74951 23.398 5.01551C23.9696 4.96987 24.5458 5.02126 25.0985 5.19763C25.8679 5.44348 26.58 5.89366 27.0802 6.53295C27.6628 7.27721 27.8564 8.17999 27.7873 9.11194L27.7746 9.27026C27.7062 10.0935 27.5838 11.1524 26.9084 11.6933C26.857 11.7345 26.8003 11.7657 26.7416 11.7846C27.1768 12.5304 27.5339 13.3584 27.7476 14.1946C28.5633 17.3886 27.9362 20.7195 26.9553 23.798C26.8747 24.0516 26.4913 24.2202 26.2961 23.9723C25.9476 23.5291 25.4413 23.1912 24.8717 23.1278C24.5203 23.0888 24.1706 23.1595 23.8385 23C23.7083 22.9371 23.5825 22.8343 23.4921 22.7093C22.9315 22.9219 22.3278 23.0222 21.7291 22.9975C20.7465 22.9572 19.6961 22.6168 19.02 21.8702C18.9115 21.7504 18.884 21.6158 18.909 21.4945C18.9938 21.4643 19.0809 21.4418 19.1705 21.4277C20.0278 21.9331 20.9727 22.2708 21.9883 22.292C22.5751 22.3043 23.1475 22.2222 23.6233 21.8556C23.7263 21.7763 23.8209 21.6884 23.9085 21.594C24.9033 20.9538 25.6047 19.8665 25.9381 18.7017C26.2488 17.6155 26.2106 16.4845 26.1037 15.3704L26.0474 14.7825C25.9652 13.9196 25.889 13.0541 25.8676 12.1875L25.8741 12.1872C26.0841 12.1736 26.0857 11.8446 25.8741 11.8583C25.3267 11.8937 24.7835 11.8039 24.2378 11.843C24.2333 11.585 24.2147 11.3281 24.1389 11.0792C24.0956 10.937 23.8481 10.9089 23.8219 11.0792C23.7868 11.3069 23.7739 11.5334 23.7701 11.7622C22.9535 11.7513 22.1377 11.6826 21.3209 11.7109C21.1703 11.5501 21.1223 11.2651 21.0518 11.0668C21.0415 11.0376 21.0313 11.0088 21.0206 10.9796C20.9587 11.263 20.8709 11.5401 20.7554 11.8114L20.5551 11.8121C19.4186 11.8174 18.259 11.8514 17.1492 12.0875C17.072 12.0283 17.0261 11.9249 17.0137 11.8311C16.9332 11.2203 16.8183 10.6258 16.6147 10.0438L16.5856 9.96166C16.5832 9.95485 16.5807 9.94761 16.5781 9.93999C16.428 10.1823 16.249 10.4081 16.0538 10.6184C15.9387 10.7423 15.818 10.8609 15.6942 10.976C15.5739 11.1096 15.4496 11.2412 15.3291 11.3753C15.3338 11.3996 15.338 11.4244 15.3413 11.4496C15.3781 11.7277 15.382 12.0098 15.355 12.289C15.3061 12.7937 15.1637 13.2801 14.9349 13.73L14.9276 13.775C14.8929 13.9859 14.8435 14.2038 14.728 14.3626C14.8721 14.5241 14.9831 14.717 15.0474 14.9313C15.1047 15.1221 14.8409 15.2874 14.704 15.1313C14.5953 15.0073 14.4745 14.9046 14.3419 14.8227C14.3335 14.8341 14.3184 14.8397 14.3014 14.8302C13.9319 14.625 13.3044 14.6871 12.9354 14.8803C12.4763 15.1204 12.2971 15.6134 12.3481 16.1129C12.397 16.5902 12.6058 17.1481 13.0106 17.3927C13.1963 17.5049 13.341 17.5144 13.5382 17.4605C13.6013 17.4434 13.6795 17.3908 13.7131 17.3647L13.7461 17.3383C13.8754 17.236 13.9959 17.166 14.1485 17.1633C14.3046 17.1146 14.4616 17.1822 14.5213 17.3459L14.525 17.3565C14.5529 17.44 14.6039 17.5448 14.5928 17.6723C14.5813 17.8088 14.5188 17.9329 14.4255 18.0328C14.4095 18.0501 14.3922 18.0674 14.3745 18.0834C15.9814 19.8237 16.1877 22.5354 15.3637 24.7094C15.328 24.8048 15.2897 24.899 15.2499 24.9923C15.1122 25.3121 14.5821 25.2131 14.5147 24.8961C14.4945 24.8011 14.4723 24.7065 14.4481 24.6128C14.4035 24.4396 14.3525 24.268 14.2949 24.0989L14.273 24.0356C14.2241 23.8958 14.1785 23.7548 14.1292 23.615L14.1243 23.599C14.1224 23.5927 14.1204 23.5854 14.1181 23.5772L14.0347 23.7593L13.7811 24.309C13.6625 24.5655 13.2855 24.4261 13.2714 24.1789L13.2711 24.1704C13.2699 24.1248 13.2682 24.0796 13.2654 24.0348C13.2473 23.6989 13.1893 23.3725 13.0973 23.053L13.0641 23.0943C12.5695 23.706 11.9891 24.2793 11.1929 24.4204C10.9932 24.4558 10.7671 24.2469 10.9044 24.0451C10.9611 23.9616 11.0158 23.8761 11.0675 23.7893C11.0227 23.7684 10.9804 23.7466 10.9414 23.7244C10.6393 23.5546 10.3878 23.3129 10.1799 23.0386C9.73891 22.4573 9.5811 21.7255 9.54247 21.0093C9.50138 20.2525 9.56795 19.4545 9.77466 18.7243C9.86425 18.4086 9.98549 18.1056 10.1256 17.8116C10.1158 17.7853 10.1063 17.759 10.0969 17.7327C9.94562 17.3109 9.82151 16.8796 9.71836 16.4434C9.51042 15.5628 9.39864 14.6542 9.38507 13.7494C9.36042 12.1283 9.63987 10.4814 10.2288 8.96967C10.837 7.4107 11.7518 5.90887 12.9966 4.77623ZM12.2392 18.9492C12.1275 18.7733 11.8481 18.9318 11.9518 19.109L11.9556 19.1153C12.1328 19.3945 12.2158 19.7118 12.3177 20.0231C12.383 20.2233 12.7007 20.1378 12.6345 19.9355L12.6126 19.868C12.5112 19.5524 12.4187 19.2316 12.2392 18.9492ZM13.2119 15.5912L13.2861 15.5553C13.5202 15.4435 13.7253 15.3674 14.0018 15.465C14.3721 15.5953 14.7686 16.0101 14.5184 16.4126C14.4263 16.561 14.2628 16.6202 14.0943 16.5853C13.8102 16.5263 13.7369 16.2704 13.5928 16.0604L13.568 16.0248C13.4801 15.8977 13.3689 15.722 13.2226 15.6722C13.1893 15.6607 13.1754 15.6089 13.2119 15.5912ZM13.4206 7.04567L13.4445 7.02424C13.6036 6.88364 13.3702 6.65177 13.2119 6.79155C12.4878 7.43166 12.2363 8.43356 11.8607 9.28746C11.7765 9.47945 12.0596 9.64719 12.1447 9.45355C12.503 8.63873 12.7408 7.66402 13.4206 7.04567ZM22.1224 6.76565C21.9332 6.68035 21.7676 6.9558 21.9495 7.0465L21.9563 7.04973C22.5958 7.33875 22.8678 7.99325 23.1284 8.60089C23.2114 8.79494 23.4946 8.62761 23.4124 8.43521L23.3654 8.32618C23.0935 7.69998 22.7764 7.06171 22.1224 6.76565ZM23.1247 6.37015C22.9241 6.30067 22.8383 6.61805 23.0372 6.68753C23.5792 6.87624 23.9511 7.28325 24.2647 7.74864C24.3822 7.92295 24.667 7.7585 24.5483 7.58254C24.1842 7.04233 23.7518 6.58886 23.1247 6.37015Z" fill="black"/>
<path fill-rule="evenodd" clip-rule="evenodd" d="M22.0241 19.9763C21.7479 19.8635 21.5014 19.6755 21.3212 19.4352C21.2585 19.3517 21.2423 19.2635 21.2554 19.1828C21.2702 19.0921 21.3238 19.0099 21.397 18.9548C21.4704 18.8995 21.5622 18.8722 21.6509 18.8861C21.728 18.8982 21.8048 18.9404 21.8655 19.028L21.8782 19.0455C21.9853 19.1905 22.125 19.3095 22.284 19.3862C22.4374 19.4601 22.6088 19.4946 22.7863 19.4745C23.1243 19.4363 23.3572 19.2535 23.6048 19.0052C23.6355 18.9738 23.6662 18.9415 23.697 18.9087C23.7165 18.8789 23.7436 18.8597 23.7736 18.8497C23.8069 18.8386 23.8447 18.8392 23.8792 18.8512C23.9125 18.8629 23.9423 18.8849 23.9623 18.9143C23.9813 18.9421 23.992 18.9766 23.9885 19.0162C23.9659 19.2735 23.8314 19.5032 23.6404 19.6835C23.4282 19.8838 23.147 20.0223 22.8822 20.0709C22.5905 20.1244 22.2933 20.0861 22.0241 19.9763ZM23.0198 16.0065C23.3301 16.1952 23.803 16.6352 23.4691 17.1031C23.0762 17.5156 22.5104 17.0426 22.2316 16.8287C21.9731 16.6629 21.6826 17.0893 21.9225 17.2829C23.9371 18.775 24.7547 16.0558 23.1768 15.7846C23.003 15.7547 22.9385 15.9481 23.0198 16.0065ZM19.4095 14.2707C19.4438 13.8449 20.092 13.7483 20.1564 14.1696C20.2142 14.547 20.1462 14.8937 19.9763 15.2335C19.8139 15.5581 19.4058 15.4067 19.3749 15.1111C19.3336 14.7148 19.3882 14.5356 19.4095 14.2707ZM24.3436 14.0822C24.434 13.9638 24.5645 13.883 24.7208 13.9287C25.2092 14.0715 25.0653 14.7651 24.8937 15.1028C24.8005 15.2861 24.4993 15.3326 24.3631 15.1712C24.1412 14.9079 24.0349 14.3821 24.317 14.1228C24.3247 14.1094 24.3332 14.0959 24.3436 14.0822ZM19.9694 12.4077L20.0466 12.3942C20.2852 12.3529 20.582 12.3132 20.7508 12.5052C20.8404 12.607 20.8712 12.7962 20.7508 12.8936C20.5391 13.065 20.305 12.9986 20.0513 13.0131C19.8422 13.0251 19.6413 13.0597 19.4398 13.1173C18.998 13.2437 18.6379 13.4743 18.2605 13.7275C18.211 13.7608 18.1605 13.6974 18.1841 13.6511C18.402 13.2242 18.8241 12.8736 19.247 12.6598C19.4727 12.5457 19.7197 12.4511 19.9694 12.4077ZM23.8984 12.2165L23.9574 12.2286C24.6001 12.3629 25.435 12.6314 25.7393 13.2628C25.7509 13.3521 25.7386 13.3713 25.7287 13.3838L25.7254 13.3879C25.7172 13.3986 25.7106 13.4133 25.6719 13.4255C25.6612 13.4229 25.6503 13.4202 25.6394 13.4173C25.4999 13.3808 25.3895 13.3304 25.2827 13.2781L25.1668 13.221C25.0324 13.1551 24.8968 13.0915 24.7531 13.0446C24.4465 12.9446 24.131 12.8741 23.8107 12.8365C23.7413 12.8283 23.6744 12.8049 23.6217 12.7647C23.5716 12.7266 23.5334 12.6738 23.516 12.6036C23.4934 12.5128 23.4998 12.444 23.5486 12.3621C23.5852 12.3005 23.6376 12.2579 23.6978 12.2334C23.7591 12.2084 23.829 12.2026 23.8984 12.2165Z" fill="black"/>
<path fill-rule="evenodd" clip-rule="evenodd" d="M35.9042 13.915C35.2467 14.515 35.6691 16.0179 35.9255 15.6116C35.9637 15.2354 36.0811 14.5144 36.4624 14.3686C39.2663 14.2489 38.6873 21.1847 33.4641 20.3311C30.1361 20.1064 26.6211 15.285 23.4916 18.2191C20.0913 15.4482 16.2518 19.6022 12.7503 20.1711C9.90341 21.0921 5.64899 19.4009 6.41514 15.8899C6.60653 14.8596 8.03075 13.681 8.90301 14.7266C9.16068 14.975 8.83335 15.8846 9.10426 15.6965C9.52599 15.2304 9.4161 14.4861 9.02634 14.0219C8.38081 13.2532 7.23012 13.5895 6.56075 14.1324C3.54089 17.1044 7.17813 21.5907 10.8183 21.2943C14.8074 21.7824 20.2321 16.2365 22.9741 18.9307C23.2537 19.2054 23.7791 19.2055 24.0222 18.9309C26.3533 16.2975 30.8523 21.6796 34.102 21.2952C37.5583 21.6101 40.3244 17.437 38.3295 14.4865C37.8325 13.7363 36.6381 13.171 35.9042 13.915Z" fill="black"/>
</svg>
