<svg width="40" height="54" viewBox="0 0 40 54" fill="none" xmlns="http://www.w3.org/2000/svg">
<path fill-rule="evenodd" clip-rule="evenodd" d="M5.79807 34.7234L33.0272 36.8858L33.0557 37.0709C33.512 40.0437 33.7424 42.0605 33.7471 43.1213L33.7472 43.1538C33.7472 44.2057 34.0699 45.8786 34.7155 48.1725L34.7554 48.3137L5.76007 48.3643L5.41803 41.4595L5.79807 34.7234ZM21.9184 19.907C23.0256 19.9617 24.1414 20.4365 24.2275 20.74C24.4195 21.4159 24.7282 24.309 25.7432 24.7535C26.7583 25.198 28.9254 24.7928 29.545 25.8543C30.1646 26.9157 32.1993 31.2428 32.1993 32.2511C32.1993 32.9232 25.5683 33.1565 12.3061 32.951C12.4754 27.537 13.1812 24.691 14.4236 24.4131L14.5345 24.3886C16.3312 23.996 17.405 23.9833 18.0179 23.3504C18.6433 22.7046 18.7568 21.596 19.0163 20.74C19.1592 20.2684 20.5598 19.84 21.9184 19.907Z" fill="white"/>
<path fill-rule="evenodd" clip-rule="evenodd" d="M24.3464 21.5991C24.3506 21.596 24.3548 21.5949 24.3593 21.5972C24.4456 21.6386 24.4634 21.7215 24.4931 21.8078C24.5364 21.9341 24.5866 22.0572 24.6329 22.1823C24.7253 22.4332 24.8135 22.6838 24.9165 22.9305C25.0221 23.1845 25.1316 23.4339 25.257 23.6791C25.3174 23.7978 25.3824 23.9141 25.4485 24.0297C25.4941 24.1099 25.5367 24.2202 25.5967 24.2954C25.6013 24.2715 25.6078 24.2487 25.6154 24.2274C25.6074 24.2312 25.5998 24.2354 25.5926 24.2399C25.5774 24.2494 25.5591 24.2304 25.5682 24.2156C25.6009 24.1616 25.6435 24.1251 25.6921 24.1004C25.8267 23.951 28.7921 24.664 29.6028 25.4649C31.071 26.9154 32.062 28.7087 32.7138 30.6165C33.0737 31.6693 33.4051 32.7323 33.7475 33.7907C34.1093 34.91 34.4871 36.0244 34.8497 37.1429C34.9291 37.3889 34.7558 37.6124 34.5369 37.6934C34.1291 37.844 33.7183 37.9858 33.304 38.117C33.5051 38.8891 33.6457 39.6777 33.7468 40.4685C33.9554 42.0991 33.9817 43.7628 34.3104 45.3764C34.3859 45.7467 34.4814 46.1118 34.5823 46.4759L34.6057 46.5599C34.6657 46.7736 34.7205 46.9891 34.7942 47.1982C34.8577 47.3781 34.9397 47.5594 34.9842 47.745C35.0363 47.9632 34.9595 48.2016 34.7554 48.3137C34.5916 48.4038 34.3571 48.3666 34.2583 48.1974C34.2382 48.1628 34.226 48.1252 34.2211 48.0871C34.2063 48.0556 34.1926 48.0233 34.1804 47.9902C34.1757 47.9775 34.1715 47.9642 34.1675 47.951L34.1557 47.9115C34.1268 47.8172 34.1002 47.7222 34.0736 47.6271C34.0303 47.4746 33.9867 47.3226 33.9385 47.1715L33.914 47.096C33.7947 46.7325 33.6879 46.366 33.5948 45.9949C33.2616 44.6644 33.1909 43.2868 33.0994 41.9233L33.0946 41.8527C33.0118 40.6308 32.9624 39.4115 33.0638 38.1922L33.05 38.1968L33.0361 38.201C32.9043 38.2413 32.772 38.2808 32.6393 38.3192C32.6352 38.3207 32.6314 38.3223 32.6272 38.3234C32.5423 38.3497 32.455 38.3747 32.3663 38.3979L32.3129 38.4116L32.2753 38.4219L32.2356 38.4331C32.11 38.4696 31.9818 38.5115 31.8515 38.5074C31.6356 38.542 31.416 38.5629 31.2001 38.5637C31.2666 39.6514 31.3434 40.7384 31.435 41.8242C31.5269 42.9158 31.6489 44.0031 31.7755 45.0905C31.8378 45.6277 31.9047 46.1637 31.9784 46.6991C32.0157 46.9705 32.0544 47.2404 32.1039 47.5096C32.1548 47.7849 32.2449 48.0792 32.1905 48.3575C32.1894 48.3571 32.1882 48.3567 32.1871 48.3567C32.1688 48.4373 32.1202 48.5095 32.0354 48.5593C31.88 48.6502 31.6626 48.597 31.5733 48.4381C31.5657 48.4247 31.5585 48.4111 31.5517 48.397C31.4601 48.4362 31.3597 48.4514 31.2366 48.4525L29.5667 48.4692C28.8077 48.4768 28.0488 48.4848 27.2895 48.4958C24.9055 48.531 22.5215 48.5715 20.1375 48.6004L19.2435 48.6107C17.9027 48.6247 16.5612 48.6525 15.2204 48.6521C14.5497 48.6521 13.8796 48.6498 13.2088 48.6335C12.8839 48.6255 12.5597 48.6129 12.2351 48.5996L12.1778 48.597C11.9187 48.5842 11.6437 48.5602 11.3903 48.6183C11.3204 48.7544 11.1418 48.7825 11.0483 48.6434C10.8346 48.325 10.7763 47.8807 10.7369 47.4916L10.723 47.3515C10.6792 46.9154 10.6409 46.4793 10.6124 46.0425C10.5113 44.4947 10.4744 42.9454 10.5208 41.3946C10.5443 40.6042 10.6169 39.8183 10.7028 39.0325C10.7298 38.7872 10.7579 38.5424 10.7883 38.2979L10.7888 38.211C10.7889 38.1832 10.7887 38.1567 10.7879 38.1318L10.7804 37.8959C10.7741 37.6993 10.7682 37.5026 10.7658 37.3058L10.7648 37.1878L10.7636 36.968C10.5759 36.9502 10.3756 36.8878 10.2137 36.8578C9.95112 36.8087 9.68923 36.7559 9.42814 36.7C8.9052 36.5874 8.38796 36.4544 7.87414 36.3072L7.76486 36.2758C7.29074 36.1392 6.8101 35.9934 6.36156 35.789C6.18598 35.7088 6.01078 35.6183 5.85687 35.4997C5.84774 35.6244 5.83368 35.7487 5.82532 35.8723C5.80864 36.1168 5.78884 36.3605 5.7725 36.6049L5.75687 36.8375C5.7312 37.2251 5.70808 37.6123 5.69763 38.001C5.65126 39.6967 5.64328 41.3995 5.73297 43.0941C5.77744 43.9423 5.8409 44.7905 5.93249 45.6353C5.97734 46.0508 6.02485 46.4675 6.08337 46.8815C6.1438 47.307 6.25287 47.7298 6.28632 48.1582C6.31824 48.5715 5.68661 48.6316 5.58285 48.2537C5.45862 47.8005 5.42697 47.3117 5.36149 46.8458L5.35407 46.7941C5.28148 46.2991 5.22333 45.8022 5.17317 45.3045C4.99999 43.5879 4.95502 41.8626 5.04585 40.1396C5.08904 39.3144 5.19143 38.4923 5.31535 37.6758L5.32974 37.5817C5.38616 37.216 5.43897 36.8503 5.50286 36.4863L5.52737 36.3498C5.58475 36.0369 5.62884 35.6967 5.72195 35.3838L5.69427 35.3582C5.64253 35.31 5.58645 35.2542 5.54561 35.194C5.40499 35.175 5.28528 35.0739 5.3001 34.8903C5.34837 34.2869 5.56879 33.6733 5.76528 33.1037C5.96252 32.5312 6.1913 31.9692 6.45049 31.4218C7.36222 29.4976 8.67527 27.7506 10.281 26.3511C11.1326 25.6086 12.066 24.9501 13.0975 24.4813C13.606 24.2498 14.1319 24.0707 14.683 23.9742C14.9559 23.9263 15.2314 23.889 15.5088 23.881C15.7339 23.7481 16.0012 23.804 16.2191 23.9498L16.2309 23.9578H16.2313L16.2872 23.9688C16.3009 23.9715 16.3005 23.9932 16.2872 23.9962C16.2864 23.9962 16.2853 23.9966 16.2845 23.997C16.3202 24.0251 16.3541 24.0551 16.3856 24.0875C16.4897 24.1939 16.4894 24.3224 16.4358 24.4262C16.7546 24.722 16.9561 25.1018 17.167 25.4847C17.3931 25.8945 17.6892 26.2489 18.0494 26.5477C19.3701 27.6434 21.3125 28.1282 22.9672 27.6107C24.1841 27.2305 25.2235 26.2013 25.5108 24.9623C25.4428 24.9866 25.3691 24.9904 25.2992 24.9653C24.9708 24.8482 24.8456 24.4892 24.72 24.189L24.7139 24.1745C24.5911 23.8837 24.4881 23.5883 24.4068 23.2834C24.3248 22.9754 24.2765 22.6503 24.2563 22.3325C24.2485 22.2068 24.252 22.0812 24.2585 21.9555L24.2642 21.8516C24.2687 21.7574 24.2673 21.6612 24.3464 21.5991ZM19.0034 20.7517C19.0079 20.7402 19.0258 20.7342 19.0326 20.7479C19.3233 21.3478 19.1326 22.1698 18.8578 22.742C18.5701 23.3404 18.1369 23.7943 17.6234 24.1871C17.5527 24.2411 17.4801 24.2943 17.4064 24.3464C16.9781 24.649 16.5965 23.8331 17.091 23.6772C17.6063 23.4153 18.0251 22.9484 18.3162 22.458C18.4736 22.193 18.6131 21.9169 18.7199 21.6272C18.8263 21.3383 18.8901 21.0376 19.0034 20.7517Z" fill="black"/>
<path fill-rule="evenodd" clip-rule="evenodd" d="M28.8876 15.9823C29.123 14.2827 28.6202 12.6425 27.969 11.0892C27.9332 10.9946 27.8765 10.9127 27.8035 10.8544C25.9655 7.14841 23.2648 6.81282 19.4971 7.06804C19.3858 7.06557 19.3792 7.06755 19.2946 7.02972C19.2807 5.52423 17.5619 4.72678 16.254 5.2235C10.4533 7.92017 12.2773 15.512 13.4316 20.4684C13.8434 22.3871 14.2553 24.3056 14.6672 26.2242C14.6811 26.2884 14.7102 26.3438 14.749 26.3906C14.6891 26.4133 14.6293 26.4346 14.5706 26.4546C14.4366 26.5002 14.4898 26.7001 14.6293 26.6677C14.766 26.6359 14.8977 26.5934 15.028 26.547C15.2312 26.5911 15.4015 26.4583 15.561 26.3524C17.4288 25.6135 18.2129 23.1852 18.692 21.3963C20.6398 22.7711 23.7521 23.8007 25.9791 22.5645C28.0658 21.3073 28.8173 18.6849 28.6691 16.3704C28.8214 16.3003 28.8828 16.1474 28.8868 15.9881H28.8877C28.8877 15.9861 28.8876 15.9842 28.8876 15.9823Z" fill="white"/>
<path fill-rule="evenodd" clip-rule="evenodd" d="M15.7188 5.36506C16.1494 5.086 16.7021 4.98213 17.2095 5.00247C17.48 5.01331 17.7327 5.08079 17.9821 5.18215C18.2133 5.27613 18.4172 5.41114 18.6423 5.51402C18.656 5.52026 18.6457 5.53946 18.6328 5.53683C18.3662 5.483 18.0531 5.51552 17.7828 5.55406L17.7559 5.55793C17.4902 5.59652 17.2199 5.61648 16.958 5.67773C16.4756 5.79053 16.0268 6.03633 15.7621 6.46386C15.4163 7.02221 15.3277 7.74495 15.3647 8.38915C15.3834 8.71509 15.4476 9.03575 15.5476 9.34648C15.6077 9.53296 15.7472 9.72059 15.8124 9.91627C15.862 9.82366 15.9132 9.73196 15.9662 9.64136C15.7247 9.52749 15.6569 9.21102 15.6444 8.92541C15.6072 8.88945 15.5833 8.8374 15.5825 8.78961C15.5804 8.66114 15.6106 8.54484 15.662 8.43843C15.6913 8.13701 15.7535 7.8365 15.8605 7.55406C16.2806 6.44515 17.3887 5.4457 18.6454 5.54444C18.9908 5.57158 19.3269 5.7183 19.5055 6.03021C19.6489 6.28068 19.6499 6.58282 19.5509 6.84922C19.5216 6.9283 19.4834 6.9997 19.4386 7.06483C19.5744 7.03038 19.7104 6.99734 19.8462 6.96461C20.3173 6.85101 20.7908 6.762 21.2731 6.7125C21.93 6.64513 22.6005 6.74706 23.2024 7.00936C23.3675 7.05182 23.5318 7.09745 23.6951 7.14619C24.4137 7.36054 25.151 7.64052 25.7315 8.12979C25.9985 8.3549 26.1896 8.61677 26.3448 8.90435C26.9258 9.42259 27.4814 10.0101 27.8736 10.6821C28.6817 12.0667 28.8747 13.7795 28.9079 15.3536C28.9385 16.7996 28.8115 18.2604 28.5406 19.6813C28.4176 20.3261 28.2188 20.9253 27.8166 21.4541C27.3688 22.043 26.7715 22.507 26.1012 22.8183C24.7367 23.4521 23.0478 23.5442 21.7215 22.759C21.3225 22.5229 21.6817 21.9073 22.0847 22.1374C23.3941 22.8849 25.0653 22.7141 26.3252 21.9217C26.8574 21.5869 27.3161 21.1291 27.6075 20.5685C27.8203 20.1591 27.9116 19.6895 27.9907 19.2323L28.0327 18.9878C28.2768 17.5819 28.3872 16.1399 28.3284 14.7137C28.2698 13.291 28.0443 11.7501 27.2387 10.5406C26.8139 9.90259 26.272 9.3437 25.7029 8.83409C25.6629 8.79828 25.6229 8.76262 25.5828 8.72707C25.3603 8.59335 25.1298 8.4766 24.903 8.37695L24.8547 8.35607C24.7242 8.30043 24.5417 8.22855 24.3724 8.17107C24.1304 8.08891 23.8845 8.01592 23.6375 7.95014C23.5081 7.91566 23.378 7.88403 23.2476 7.8538C23.2931 7.89551 23.3383 7.9376 23.3827 7.98075C23.593 8.18518 23.7598 8.42812 23.9592 8.64248C23.9818 8.66666 23.9533 8.70194 23.9247 8.68722C23.6214 8.53157 23.2852 8.43082 22.9686 8.30471C22.6692 8.18548 22.3783 8.04823 22.0842 7.91669C22.0106 7.88369 21.9372 7.84844 21.8639 7.81358C21.5748 7.81654 21.2856 7.82335 20.9971 7.83981C21.3459 8.08819 21.6644 8.38174 21.9283 8.70365C21.9501 8.73015 21.9303 8.77262 21.8936 8.76322C21.3413 8.62174 20.816 8.41379 20.2909 8.19587L20.0398 8.09127C19.8551 8.08192 19.6702 8.07755 19.4853 8.08028L19.3957 8.08178C19.2016 8.08548 19.0078 8.09318 18.8154 8.1226C18.7696 8.12956 18.7248 8.13617 18.6802 8.14226C18.4094 8.25282 18.1489 8.38611 17.9144 8.5618L17.9755 8.55819C18.3462 8.53709 18.7242 8.56902 19.0832 8.66475C19.7807 8.85086 20.3759 9.29899 20.809 9.87038C20.8219 9.88749 20.7967 9.91129 20.7797 9.89966C20.2349 9.5265 19.6029 9.33853 18.9554 9.23645C18.6425 9.18706 18.3201 9.17007 18.0042 9.19467C17.7425 9.21501 17.4719 9.3072 17.2116 9.26246C17.1407 9.35085 17.0725 9.44191 17.0069 9.53498C17.0414 9.53277 17.076 9.53076 17.1109 9.52912C17.4847 9.51156 17.8654 9.53555 18.2304 9.62162C18.9594 9.79366 19.5686 10.2315 20.1259 10.7122C20.1369 10.7217 20.1227 10.7386 20.1108 10.7318C19.5064 10.3828 18.8039 10.2786 18.1193 10.2156C17.7745 10.1839 17.4259 10.1695 17.0803 10.197C16.922 10.2096 16.7655 10.2357 16.6077 10.252C16.5949 10.2533 16.5816 10.2537 16.5685 10.2543C16.4541 10.4701 16.3504 10.6897 16.2568 10.9088C16.5424 10.8321 16.8505 10.7919 17.1453 10.8117C17.7442 10.8521 18.3382 11.1268 18.8162 11.4781C18.8312 11.4891 18.8229 11.5184 18.8025 11.5107C18.2822 11.314 17.7663 11.3124 17.2233 11.3883C16.9687 11.4239 16.7167 11.4722 16.4707 11.5479C16.3471 11.586 16.2248 11.6276 16.1074 11.6823C16.0542 11.7071 16.0023 11.736 15.9498 11.7632C15.9079 11.9057 15.8704 12.0495 15.8365 12.1942C16.7242 12.2443 17.5604 12.6634 18.2881 13.1445C18.3057 13.1561 18.2947 13.1885 18.273 13.1803C17.8386 13.0163 17.366 12.9405 16.9052 12.8963C16.5023 12.8578 16.1069 12.8787 15.7063 12.89C15.6848 13.0423 15.6674 13.195 15.6548 13.348C15.7193 13.3661 15.7825 13.3855 15.8432 13.4038C16.0431 13.4639 16.2426 13.5448 16.4291 13.6385C16.8079 13.829 17.1149 14.0864 17.4237 14.3726C17.4398 14.3875 17.423 14.4201 17.4012 14.4113C17.0427 14.2663 16.651 14.1734 16.2736 14.0913C16.0783 14.0488 15.8829 14.0095 15.6862 13.9735C15.6672 13.97 15.6479 13.9671 15.6286 13.9642C15.6267 14.3131 15.6464 14.6621 15.6899 15.0082L15.6983 15.0731C15.7219 15.2483 15.7026 15.4177 15.5867 15.5388C15.747 15.4321 15.9305 15.3582 16.1339 15.3299C16.6694 15.2554 17.1653 15.4694 17.5023 15.8834C17.5181 15.9028 17.4937 15.9282 17.4746 15.9112C17.1475 15.62 16.6436 15.5685 16.2374 15.7056C15.8614 15.8325 15.5787 16.1354 15.4654 16.5144C15.345 16.9171 15.4002 17.3618 15.6197 17.7209C15.7291 17.8998 15.8871 18.0597 16.0848 18.1383C16.1092 18.1481 16.134 18.1562 16.1592 18.1632C16.2785 18.1195 16.4069 18.1393 16.5296 18.1946L16.5456 18.2021C16.6238 18.2017 16.7018 18.1993 16.7775 18.2C16.925 18.2014 16.9958 18.3579 16.934 18.4745C16.969 18.5387 16.9947 18.611 17.0256 18.674C17.0812 18.7877 17.1395 18.9006 17.1981 19.0128C17.281 19.108 17.3602 19.2064 17.4139 19.3213C17.436 19.3684 17.4568 19.4194 17.4728 19.4706C17.5188 19.5399 17.5656 19.6088 17.6136 19.6774C17.7687 19.899 17.932 20.1089 18.1131 20.31C18.2219 20.4309 18.3471 20.5389 18.4623 20.6547C18.4973 20.6594 18.5315 20.6832 18.5423 20.7174L18.5517 20.7501C18.5889 20.792 18.6244 20.8351 18.6564 20.881C18.7274 20.9829 18.7079 21.0862 18.6456 21.1607C18.7443 21.7772 18.6771 22.4331 18.5449 23.031C18.4595 23.4172 18.3597 23.8032 18.2258 24.1758C18.1578 24.3652 18.0754 24.5472 17.9615 24.7135C17.899 24.8047 17.8177 24.9109 17.7265 24.9976C17.7126 25.0986 17.6946 25.1988 17.6688 25.2969C17.3628 26.4602 16.1103 26.8144 15.0616 26.9629C14.8592 26.9916 14.6589 26.9427 14.5487 26.7541C14.5232 26.7105 14.5061 26.6636 14.4969 26.6153C14.4512 26.6032 14.4073 26.5818 14.3679 26.551C14.3613 26.6239 14.3537 26.697 14.3441 26.771C14.3201 26.9558 14.0707 27.0114 14.0082 26.8165C13.7443 25.9936 13.601 25.1261 13.4202 24.2806C13.2398 23.4368 13.0384 22.5976 12.8519 21.7552L12.6159 20.692C12.04 18.0886 11.5006 15.4519 11.633 12.7743C11.7052 11.3126 11.9733 9.85483 12.5471 8.50416C13.0251 7.37898 13.8318 6.11488 15.1349 5.88482C15.1439 5.88326 15.1519 5.88418 15.1593 5.88608C15.3141 5.68477 15.499 5.50748 15.7188 5.36506ZM16.5051 19.5168C16.6102 19.8655 16.6852 20.2231 16.726 20.5879C16.794 21.1961 16.7603 21.819 16.7308 22.4288C16.7036 22.9889 16.6391 23.554 16.5293 24.104C16.4239 24.6322 16.2587 25.15 16.0132 25.6305C15.9735 25.7082 15.9308 25.7839 15.886 25.8581C16.0217 25.8128 16.1443 25.7601 16.272 25.687C16.4328 25.595 16.5798 25.4764 16.6603 25.3513C16.7894 25.1506 16.8328 24.9276 16.8516 24.6884C16.9002 24.0731 16.9227 23.4561 16.9537 22.8398L16.9605 22.7056C17.0106 21.7428 17.0763 20.7553 16.9782 19.7914C16.8402 19.7551 16.7157 19.6839 16.6008 19.5946C16.5691 19.5699 16.5371 19.5439 16.5051 19.5168ZM15.4556 18.3508C15.4846 18.6437 15.5123 18.9367 15.5375 19.2298C15.6266 20.2704 15.6816 21.3168 15.631 22.3611C15.6046 22.9049 15.5516 23.4502 15.46 23.9871C15.4188 24.229 15.3689 24.471 15.3131 24.7103L15.2943 24.79C15.2377 25.0271 15.2016 25.3234 15.0204 25.4959L15.0218 25.5316C15.149 25.3385 15.2667 25.1214 15.3509 24.9192C15.7264 24.0186 15.795 23.0381 15.8628 22.0778C15.9046 21.486 15.9356 20.8934 15.984 20.302L16.0075 20.0174C16.0344 19.6862 16.0576 19.3575 16.0545 19.0266C15.9821 18.9187 15.9234 18.8053 15.8869 18.6889C15.8811 18.6702 15.877 18.6512 15.8742 18.6323C15.7213 18.5598 15.5773 18.4608 15.4556 18.3508ZM17.5107 20.4116C17.5861 20.6627 17.6477 20.917 17.6915 21.1724C17.7614 21.5789 17.8033 21.9879 17.8217 22.3983L17.8603 22.2533C17.9573 21.8907 18.0604 21.5275 18.1882 21.1756C17.9861 21.034 17.8172 20.8117 17.6703 20.6258C17.6153 20.5564 17.5621 20.4847 17.5107 20.4116ZM14.6159 9.24383C14.5382 9.49468 14.4703 9.74838 14.4001 10.0013C14.2353 10.5954 14.1283 11.2057 14.054 11.8172C13.7577 14.2588 14.0045 16.7102 14.3272 19.1357C14.461 20.1407 14.6064 21.1442 14.7312 22.1504C14.7345 22.0517 14.7373 21.953 14.7391 21.8543C14.777 19.7186 14.4177 17.6128 14.2738 15.4882L14.2651 15.3587C14.1999 14.3653 14.16 13.3533 14.2781 12.3635C14.3388 11.854 14.4458 11.3555 14.5882 10.8632L14.673 10.574C14.7303 10.3796 14.7912 10.18 14.8634 9.98642C14.8538 9.96787 14.8446 9.94916 14.836 9.93042C14.7361 9.71051 14.6665 9.47936 14.6159 9.24383ZM14.8662 6.3658C14.1203 7.32781 13.4945 8.34973 13.1158 9.52513C12.2491 12.2152 12.4426 15.0918 12.9448 17.8338C13.1815 19.1258 13.4867 20.4027 13.7651 21.6857C13.467 19.3818 13.0827 17.0829 13.0215 14.7568C12.9881 13.4873 13.0537 12.2118 13.2875 10.9619L13.3013 10.8884C13.4015 10.3601 13.5256 9.80048 13.7797 9.32576C13.9176 9.06799 14.0699 8.82744 14.2505 8.59719C14.3267 8.50009 14.4122 8.42223 14.5029 8.35102C14.4763 7.68785 14.5766 6.96871 14.8662 6.3658ZM16.0831 16.6157C16.4542 16.6303 16.8249 16.7338 17.1171 16.9751C17.3457 17.1637 17.0197 17.4827 16.793 17.2993C16.5464 17.0999 16.3253 16.8734 16.0624 16.6921C16.0311 16.6704 16.0397 16.614 16.0831 16.6157ZM15.4675 15.6266C15.385 15.6692 15.303 15.6778 15.2096 15.6548C15.2062 15.654 15.2029 15.653 15.1997 15.652L15.1806 15.6458C15.1887 15.7343 15.1973 15.8228 15.2058 15.9113C15.2812 15.8051 15.3687 15.7089 15.4675 15.6266ZM15.0982 10.2853C15.0653 10.5597 15.0439 10.8356 15.0325 11.1118C15.0215 11.381 15.0168 11.6509 15.0156 11.9209L15.0152 12.0367L15.0157 12.0345C15.1433 11.49 15.3238 10.9541 15.5542 10.4413C15.5145 10.4479 15.4743 10.4468 15.4346 10.442C15.3438 10.4311 15.2568 10.3908 15.1789 10.3437C15.1505 10.3265 15.1239 10.3065 15.0982 10.2853ZM18.8832 7.10361C18.7246 7.17531 18.5715 7.25774 18.4123 7.32781C18.0967 7.4668 17.7878 7.62839 17.4957 7.81183C17.2001 7.99748 16.9154 8.19294 16.6535 8.42447C16.6228 8.45162 16.5924 8.47907 16.5621 8.50648C16.5559 8.56636 16.5515 8.62647 16.5495 8.68707C16.5484 8.71965 16.5483 8.75372 16.5488 8.78874C17.0429 8.17636 17.6404 7.69321 18.3983 7.38928C18.5297 7.33659 18.6633 7.28967 18.798 7.24626C18.8301 7.2017 18.8589 7.1544 18.8832 7.10361ZM18.8691 6.51617C18.781 6.39915 18.5276 6.40869 18.3679 6.43477C18.1096 6.47697 17.8821 6.56731 17.6608 6.69809C17.3991 6.8526 17.1734 7.06194 16.9968 7.30815C17.0837 7.25911 17.1723 7.21284 17.2627 7.16987L17.3246 7.14061C17.6671 6.98002 18.038 6.82734 18.4126 6.77755C18.5859 6.75451 18.7722 6.72117 18.9473 6.73995C18.9387 6.65483 18.9134 6.57499 18.8691 6.51617Z" fill="black"/>
<path fill-rule="evenodd" clip-rule="evenodd" d="M25.4905 19.2932C25.2494 19.1771 24.9737 19.1851 24.7209 19.2619C24.4216 19.3528 24.1567 19.5417 23.9209 19.7428C23.8288 19.8213 23.7414 19.9099 23.6536 19.999C23.5421 20.1121 23.4302 20.2264 23.306 20.3191C23.347 19.97 23.5919 19.6154 23.8022 19.359C24.0602 19.0444 24.4195 18.7895 24.8079 18.6662C25.2215 18.5349 25.6483 18.607 25.9833 18.8203C26.3152 19.0316 26.557 19.3816 26.6057 19.8096C26.6159 19.8995 26.5739 19.9817 26.5116 20.0441C26.4389 20.1168 26.3368 20.1647 26.2416 20.1647C26.1444 20.1647 26.0583 20.1256 25.9944 20.0632C25.9274 19.9977 25.8846 19.9069 25.8784 19.8082C25.8743 19.7031 25.85 19.611 25.7617 19.5C25.7023 19.4256 25.5908 19.3414 25.4905 19.2932ZM26.1034 15.6189C26.0034 15.6553 25.8872 15.7431 25.8534 15.8393C25.8459 15.8605 25.8418 15.8821 25.8414 15.9041C25.8089 15.8379 25.7965 15.7599 25.8007 15.6827C25.8142 15.4377 26.0478 15.2598 26.2469 15.1559C26.3176 15.1189 26.3903 15.0944 26.4627 15.0815L26.7191 15.0358L26.4783 14.9363C26.2564 14.8447 26.0482 14.7185 25.8625 14.5642C25.6851 14.4168 25.521 14.2262 25.4248 14.0159C25.3813 13.9209 25.3472 13.828 25.3232 13.7276L25.3168 13.6994C25.3051 13.6454 25.2922 13.6178 25.2778 13.5872C25.2693 13.5692 25.2601 13.5499 25.2502 13.5185C25.2446 13.5008 25.2415 13.486 25.2467 13.4745C25.2517 13.4634 25.2639 13.4586 25.2758 13.4541C25.3544 13.4244 25.4809 13.4446 25.5347 13.4661C25.6646 13.5181 25.7788 13.6314 25.8887 13.7374C25.9423 13.7892 25.9949 13.8398 26.047 13.8831C26.3799 14.1592 26.7954 14.3162 27.2015 14.3545L27.2259 14.3567C27.3333 14.3655 27.4328 14.4078 27.5034 14.4784C27.5665 14.5415 27.6054 14.6274 27.6054 14.7302C27.6054 14.8303 27.5604 14.9267 27.4904 14.9967C27.4236 15.0636 27.3332 15.1069 27.235 15.1034C27.1661 15.101 27.0977 15.0948 27.0298 15.0857L26.777 15.0518L26.97 15.2186C27.0083 15.2517 27.0443 15.2897 27.0767 15.3338C27.2525 15.5733 27.328 15.9384 27.3214 16.2315C27.3202 16.2874 27.3048 16.3451 27.2762 16.3949C27.2513 16.4383 27.2163 16.4757 27.1712 16.4991C27.1172 16.5272 27.0715 16.5421 27.01 16.5433C26.9431 16.5446 26.8864 16.5235 26.8399 16.488C26.7816 16.4437 26.7389 16.3783 26.7095 16.3069C26.6705 16.212 26.6681 16.1118 26.6643 16.0117C26.6616 15.9424 26.6587 15.8731 26.6472 15.8048C26.6308 15.7175 26.5913 15.6063 26.5416 15.5712C26.4681 15.5193 26.2727 15.5593 26.1513 15.6017L26.1034 15.6189ZM25.0592 16.4958C25.3462 16.6703 25.7835 17.0772 25.4748 17.5099C25.1114 17.8913 24.5882 17.454 24.3303 17.2561C24.0912 17.1028 23.8226 17.4971 24.0444 17.6761C25.9076 19.0561 26.6637 16.5414 25.2044 16.2906C25.0437 16.263 24.9841 16.4418 25.0592 16.4958ZM23.0237 15.9418C22.9453 15.8533 22.8689 15.7708 22.7509 15.7238C22.6113 15.6681 22.4422 15.6622 22.297 15.7039C22.1324 15.7512 22.002 15.8603 21.9055 15.9998C21.8206 16.1223 21.7622 16.2681 21.7289 16.4119C21.6667 16.3436 21.6376 16.2646 21.6236 16.1842C21.6005 16.0519 21.6169 15.9155 21.6619 15.7859C21.7623 15.4972 22.0041 15.2405 22.286 15.13C22.6079 15.0039 23.0062 15.046 23.302 15.2236C23.4528 15.3143 23.6267 15.4715 23.7143 15.6254C23.7741 15.7305 23.7776 15.8394 23.7395 15.9329C23.6977 16.0358 23.6073 16.1194 23.492 16.1614C23.4374 16.1813 23.3811 16.1797 23.3278 16.1656C23.2584 16.1472 23.1935 16.108 23.1406 16.0623C23.0965 16.0243 23.0597 15.9825 23.0237 15.9418ZM23.5047 14.1211C23.4386 14.2095 23.3413 14.2547 23.2399 14.2595C23.2295 14.2599 23.2191 14.26 23.2088 14.2596C23.2022 14.2671 23.1949 14.2755 23.1864 14.2852C23.1666 14.3078 23.1536 14.3226 23.1401 14.337C23.0914 14.3889 23.0401 14.4384 22.9868 14.4856C22.8679 14.5907 22.7398 14.6829 22.6013 14.7602C22.3587 14.8958 22.0926 15.0015 21.819 15.052C21.5476 15.1021 21.2796 15.1175 21.0062 15.0782L20.9399 15.0687C20.7819 15.0456 20.5749 15.0154 20.4452 14.9175C20.4963 14.9012 20.548 14.9004 20.5985 14.8982C20.6317 14.8967 20.6647 14.8952 20.6969 14.8923C20.8499 14.8784 20.9986 14.853 21.1468 14.812C21.4347 14.7322 21.6957 14.6221 21.9499 14.4644C22.1992 14.3097 22.4281 14.0992 22.6105 13.8686L22.6323 13.8407C22.6416 13.8286 22.6508 13.8167 22.6599 13.8048C22.7345 13.7072 22.803 13.6143 22.9189 13.5524C23.0107 13.5034 23.1036 13.4902 23.193 13.5043C23.2967 13.5206 23.3951 13.5728 23.4823 13.6459C23.5468 13.6999 23.5767 13.7777 23.5814 13.8575C23.587 13.9513 23.5584 14.0491 23.5047 14.1211Z" fill="black"/>
</svg>
