<svg width="40" height="54" viewBox="0 0 40 54" fill="none" xmlns="http://www.w3.org/2000/svg">
<path fill-rule="evenodd" clip-rule="evenodd" d="M26.609 26.0022C25.7008 25.1575 25.9924 24.3428 25.6888 23.3135C25.102 22.0401 23.8914 20.7859 22.4897 20.5142C21.7897 20.1042 20.8748 20.3366 20.3966 20.9796C19.9474 21.0987 19.9325 21.72 19.7824 22.0876C19.5048 22.8095 19.2927 23.5451 19.1187 24.2951C13.7119 25.4212 9.56483 29.104 8.70025 34.6897C8.55244 35.5014 8.43148 36.3186 8.31785 37.1357C8.25128 37.8397 7.89882 38.9568 8.62337 39.4123C8.64409 39.9173 8.70468 40.4273 8.89687 40.9026C8.97067 41.3763 9.0303 41.8531 9.18625 42.3098C9.53007 43.1004 9.58306 43.9677 9.96916 44.7558C10.239 45.3372 10.635 45.804 11.1249 46.2105C11.3318 46.3919 11.616 46.5888 11.6595 46.8726C11.6465 47.3004 11.971 47.9188 12.4835 47.7179C12.8472 47.8547 13.2378 47.8903 13.6231 47.8875C20.1524 47.6051 26.6953 47.5812 33.2249 47.897C33.4538 47.9076 33.6713 47.6879 33.6617 47.4598C33.5577 44.9734 33.3006 42.4941 32.8962 40.0385C31.9938 34.9537 31.0297 29.2663 26.609 26.0022Z" fill="white"/>
<path fill-rule="evenodd" clip-rule="evenodd" d="M19.6235 23.4759L19.6479 23.4086C19.7958 22.9999 19.9769 22.9694 19.8896 23.3657L19.8764 23.4254C19.8008 23.7644 19.7104 24.1148 19.5251 24.4114C19.2056 24.9229 18.3686 25.1125 17.8104 25.2945C17.8122 25.3074 17.8122 25.3203 17.8108 25.3324C18.1519 25.3845 18.5021 25.5488 18.7879 25.733C19.0494 25.9021 19.2856 26.0918 19.4616 26.3439L20.3228 25.9697C20.6071 25.8464 20.8935 25.6996 21.2023 25.6501C21.6377 25.5804 22.3089 25.8137 22.2575 26.363C22.2509 26.4371 22.2043 26.4921 22.1471 26.5193C22.1908 26.5157 22.2348 26.5145 22.2784 26.516C22.5696 26.5259 22.9811 26.7838 22.829 27.124C22.7901 27.2116 22.6779 27.1541 22.669 27.0807C22.6114 26.5982 22.113 26.7116 21.7672 26.7904C21.4543 26.8616 21.1451 26.949 20.8425 27.0557C20.519 27.1698 20.2062 27.3151 19.9175 27.5019C19.6197 27.6949 19.3414 27.929 19.3597 28.3142C19.3604 28.3223 19.3476 28.3263 19.3439 28.3186C19.1902 27.9906 19.4895 27.6446 19.7327 27.4557C20.0848 27.1823 20.497 26.9856 20.9137 26.8323C21.1279 26.7536 21.3487 26.6916 21.5704 26.6368L21.6216 26.6242C21.7518 26.5927 21.8867 26.5564 22.0224 26.5343C21.9723 26.5221 21.9285 26.4856 21.909 26.4198L21.9065 26.4107C21.7107 25.6347 20.661 26.2588 20.2359 26.4463C19.9318 26.5802 19.6241 26.7086 19.3234 26.8506L19.2846 26.8691C19.0515 26.981 18.8085 27.1133 18.6518 27.3239C18.2498 27.8633 18.6107 28.5916 18.7376 29.1611C18.7739 29.3244 18.8088 29.4975 18.811 29.6653C18.8127 29.8025 18.7707 29.932 18.7366 30.064L18.7167 30.1418C18.7343 30.1422 18.7523 30.1606 18.7464 30.1793C18.6038 30.6452 18.3624 31.0871 18.1273 31.5119C17.8874 31.9456 17.6406 32.3771 17.3758 32.7957C16.4339 34.2847 15.3556 35.6903 14.1728 36.9954C13.6058 37.6211 12.9925 38.2048 12.4391 38.8428C12.1816 39.1397 11.9406 39.4508 11.7396 39.7899C11.6311 39.9729 11.5335 40.163 11.4513 40.36L11.4351 40.3991C11.3678 40.5601 11.3016 40.702 11.1763 40.8308C11.1139 40.895 10.9892 40.8679 10.9694 40.7761C10.8773 40.3446 11.1825 39.8787 11.4041 39.5264C11.6432 39.1463 11.9226 38.7919 12.2197 38.4554C12.3037 38.36 12.3892 38.2661 12.4757 38.1732C12.0885 38.2796 11.6806 38.3079 11.2859 38.3776C10.8817 38.4488 10.4801 38.5335 10.0885 38.6568C9.72862 38.7698 9.38605 38.9192 9.05856 39.1063C8.90155 39.1962 8.74791 39.2949 8.60413 39.4053C8.59053 39.4156 8.57732 39.4266 8.56412 39.4373C8.79885 40.0273 8.9793 40.6393 9.16782 41.2443C9.29653 41.658 9.42234 42.0727 9.54732 42.4877L9.82801 43.4216C10.0305 44.0949 10.1992 44.8272 10.5561 45.4396C10.7101 45.7038 10.9184 45.9426 11.1568 46.1342C11.2724 46.2274 11.3982 46.2982 11.5287 46.3668C11.6109 46.4101 11.6835 46.4662 11.7598 46.5176C11.81 46.4603 11.8862 46.4248 11.9797 46.4398L11.9901 46.4417C12.2854 46.4996 12.5898 46.3951 12.8524 46.2659C13.126 46.1309 13.3986 45.9724 13.63 45.7728C14.0851 45.3798 14.4625 44.89 14.8304 44.4174C16.142 42.731 17.2588 40.884 18.1691 38.9518C18.6316 37.9692 19.0633 36.9701 19.469 35.9625C19.6718 35.4592 19.8717 34.9547 20.0664 34.448L20.0921 34.3802C20.2666 33.9153 20.4194 33.4105 20.6998 33.0005C20.702 32.9968 20.705 32.9939 20.7083 32.9917C20.709 32.9799 20.7127 32.9689 20.7186 32.9594C20.8055 32.8203 20.972 32.7796 21.1162 32.715C21.2786 32.642 21.4407 32.5693 21.6028 32.4967C21.7305 32.4395 21.9175 32.391 22.0132 32.2825C22.1218 32.1603 22.1582 31.9427 22.2109 31.7915C22.3305 31.4499 22.46 31.1123 22.5894 30.7744C22.7031 30.4776 22.8015 30.1591 22.961 29.8825C23.0972 29.6465 23.2918 29.522 23.5168 29.3861L23.5656 29.3566C23.6596 29.2993 23.7599 29.2306 23.7972 29.1233C23.8581 28.9479 23.7228 28.7802 23.579 28.6966C23.2595 28.5112 22.877 28.7251 22.5968 28.8885C22.3151 29.0528 22.0404 29.2502 21.7393 29.3776C21.7327 29.3801 21.7279 29.3702 21.7327 29.3658C21.9747 29.144 22.2706 28.9612 22.5486 28.7809L22.6177 28.7358C22.8022 28.6151 23.0124 28.4973 23.2346 28.4647C23.1884 28.4493 23.2027 28.3895 23.2467 28.384C23.6839 28.3307 24.1277 28.399 24.5605 28.297C24.9467 28.206 25.2837 27.9877 25.5537 27.7004C25.8082 27.4296 26.0099 27.1163 26.1981 26.7971C26.3074 26.6114 26.4142 26.4243 26.5249 26.2393C26.5414 26.2115 26.5579 26.1806 26.5748 26.1476C26.3767 26.1017 26.175 25.9542 26.0404 25.8398C25.8313 25.6622 25.6787 25.4222 25.5724 25.172C25.323 24.5846 25.3428 23.9127 25.5295 23.3117C25.5408 23.275 25.5952 23.2732 25.6058 23.3117C25.7492 23.8265 25.762 24.3846 25.9872 24.8755C26.0774 25.0722 26.2033 25.249 26.358 25.3995C26.4365 25.4754 26.5157 25.5392 26.6118 25.5921C26.7149 25.649 26.8249 25.6677 26.9067 25.7579C26.9115 25.7631 26.9159 25.7682 26.9199 25.7737C26.9678 25.7673 27.0091 25.7741 27.0421 25.7948L27.049 25.7994L27.0505 25.7972C26.9027 25.6963 26.7541 25.5965 26.5968 25.5084C26.555 25.485 26.5854 25.4288 26.6272 25.4362L26.7307 25.4545C27.0766 25.5161 27.429 25.5862 27.7448 25.74C28.0951 25.911 28.4295 26.1084 28.7486 26.3318C29.3773 26.7713 29.9494 27.2906 30.4501 27.8714C31.3736 28.9431 32.0265 30.2317 32.4303 31.5827C32.9349 33.2709 33.1301 35.0442 33.3432 36.7881C33.445 37.6229 33.5364 38.4593 33.6176 39.2966L33.6395 39.5249C33.6802 39.9557 33.7242 40.3857 33.7657 40.8154C33.839 40.9306 33.8442 41.0675 33.8009 41.1864C33.8328 41.5345 33.8614 41.8831 33.8842 42.2328C33.9421 43.135 33.9795 44.0402 33.9957 44.9446C34.0118 45.8619 33.9784 46.7777 33.9678 47.695C33.9634 48.0811 33.3787 48.0796 33.3696 47.695C33.3461 46.6816 33.2735 45.6678 33.2218 44.6551C33.1711 43.6667 33.1242 42.6786 33.0637 41.6909C33.0578 41.5969 33.0523 41.5026 33.0472 41.4087C32.9619 41.4412 32.8563 41.4546 32.7666 41.4724L32.7446 41.477C32.5644 41.5153 32.3839 41.5428 32.2008 41.5596L32.1415 41.5646C31.9755 41.5761 31.1242 41.5943 30.621 41.5026C30.661 42.1488 30.7013 42.7949 30.7457 43.4407C30.7963 44.1771 30.8058 44.9146 30.8429 45.6517C30.8616 46.0201 30.884 46.3859 30.9309 46.7521C30.9523 46.9187 30.9742 47.0857 31.0004 47.2518L31.0138 47.3347C31.0373 47.4775 31.0666 47.5996 31.0061 47.727C31.0589 47.8902 30.9768 48.0961 30.7604 48.0796C29.3732 47.9757 27.9828 47.9317 26.592 47.9255C24.1908 47.9141 21.7911 48.0103 19.391 48.0764L18.7423 48.0939C16.4942 48.1555 14.2349 48.2212 11.9971 47.9724C11.9923 48.259 11.4568 48.2557 11.4854 47.9361L11.4925 47.859C11.5247 47.5113 11.5665 47.151 11.6743 46.8163C11.5848 46.8188 11.495 46.8152 11.4106 46.7873C11.2907 46.7481 11.1755 46.6768 11.0714 46.6064C10.8396 46.4501 10.6437 46.2575 10.4747 46.0351C10.1427 45.5988 9.92227 45.0819 9.74806 44.5656C9.56282 44.0154 9.39333 43.4588 9.23498 42.9003L9.06455 42.2955C8.84821 41.5262 8.63578 40.7452 8.5069 39.9557C8.493 39.974 8.47389 39.9898 8.44862 40.0012C7.75906 40.3094 7.16929 39.6772 7.05266 39.0381C6.98399 38.6611 7.00003 38.2753 7.00587 37.8938L7.00644 37.8529C7.01231 37.4134 7.01415 36.9738 7.03655 36.5346C7.11061 35.0662 7.4528 33.6433 7.98499 32.2755C8.48636 30.9879 9.09227 29.6902 9.87279 28.5465C10.2436 28.0035 10.6712 27.4817 11.1865 27.0689C11.7301 26.6341 12.3412 26.3035 12.9812 26.0342C13.6351 25.759 14.3133 25.5415 14.9922 25.336C15.7411 25.1093 16.4989 24.9144 17.2695 24.7776C17.3255 24.7676 17.3806 24.7842 17.4118 24.8355C17.4389 24.8807 17.4642 24.9269 17.4888 24.9739C17.594 24.9078 17.7558 24.8917 17.8611 24.8594C18.1915 24.757 18.786 24.6957 19.0479 24.4624C19.3465 24.1965 19.4901 23.842 19.6235 23.4759ZM8.44785 39.5396C8.40131 39.5822 8.35469 39.6247 8.30668 39.6647C8.36936 39.6383 8.42621 39.6559 8.46802 39.6948C8.46073 39.6431 8.45409 39.5914 8.44785 39.5396ZM23.6072 29.6165C23.5361 29.6605 23.4657 29.7045 23.4015 29.7573C23.1709 29.9481 23.093 30.2595 22.9969 30.5311L22.9907 30.5484C22.8726 30.8771 22.7534 31.2066 22.6283 31.5328C22.5891 31.6352 22.5524 31.7449 22.5132 31.8553C23.042 32.3638 23.5827 32.8669 24.1486 33.334C25.1843 34.1885 26.3129 34.9308 27.5122 35.5355C28.1288 35.8466 28.7655 36.1299 29.4205 36.3497C29.6572 36.4289 29.8981 36.4986 30.1428 36.5504L30.1431 36.5467C30.1442 36.5379 30.1585 36.5339 30.16 36.5445L30.1615 36.5544C30.2663 36.5761 30.372 36.5944 30.478 36.6087C30.6789 36.6355 30.8821 36.6476 31.085 36.6458C31.2108 36.6447 31.3355 36.6292 31.4594 36.6355C30.9104 36.1405 30.3584 35.6492 29.8049 35.1601C28.756 34.2326 27.7012 33.3124 26.6445 32.3936C26.1753 31.9856 25.701 31.5825 25.2338 31.1717L24.7839 30.7742C24.3863 30.4225 23.9911 30.0651 23.6467 29.6631L23.6072 29.6165ZM18.9188 32.3433C18.8869 32.3041 18.9353 32.2542 18.9746 32.2876C19.2089 32.486 19.4737 32.573 19.755 32.6798C19.8207 32.7048 19.8156 32.8093 19.7378 32.8082C19.411 32.8024 19.1165 32.591 18.9188 32.3433ZM22.2022 27.456L22.2256 27.4466C22.5561 27.317 22.9848 27.2526 23.2449 27.5533C23.4334 27.7716 23.4814 28.1847 23.2357 28.3752C23.1767 28.421 23.0516 28.3818 23.089 28.2897C23.1968 28.0266 23.2196 27.682 22.8803 27.5808C22.586 27.4929 22.2418 27.6643 21.9738 27.7836L21.8972 27.8175C21.3745 28.0496 20.8554 28.3308 20.5352 28.8224C20.5267 28.8349 20.5043 28.8268 20.5099 28.8118C20.7655 28.1036 21.5482 27.7224 22.2022 27.456ZM18.3302 25.9396L18.2031 25.8915C17.88 25.7708 17.4776 25.6483 17.2772 25.9957C17.2021 26.1256 17.1374 26.2863 17.1095 26.4359L17.1059 26.4562C17.0982 26.5024 17.0882 26.552 17.1213 26.5875C17.1722 26.6433 17.338 26.6704 17.4048 26.6947L17.8245 26.8472L18.0341 26.9236C18.1295 26.9585 18.2527 26.9933 18.3232 27.07C18.5696 26.7464 18.9617 26.5622 19.3318 26.4004C18.9984 26.2452 18.6753 26.0695 18.3302 25.9396Z" fill="black"/>
<path fill-rule="evenodd" clip-rule="evenodd" d="M20.8785 8.73986C26.4376 8.46637 28.9462 12.382 29.1085 14.1309C29.2211 15.345 28.5041 16.7443 28.5041 17.8291C28.5041 18.3828 29.1818 19.5717 28.8663 20.3787C28.1641 22.1751 26.6772 24.1688 24.7824 24.1688C22.8877 24.1688 20.4218 24.693 18.3282 21.6941C18.1317 21.4127 15.6471 19.8135 15.4057 18.2939C14.8044 14.5086 16.9118 8.935 20.8785 8.73986Z" fill="white"/>
<path fill-rule="evenodd" clip-rule="evenodd" d="M20.6164 6.303C20.8152 6.07551 21.1508 5.98452 21.449 6.00213C21.8821 6.02781 22.2588 6.29529 22.6898 6.31511C23.1416 6.33602 23.5777 6.17935 24.0307 6.252C24.3083 6.29676 24.5834 6.42555 24.7613 6.64276C25.3774 6.46627 26.0464 6.7 26.4389 7.21038C26.923 7.13516 27.4497 7.45588 27.5979 7.92256C28.2129 7.94237 28.7935 8.43661 28.8621 9.05596C29.1079 9.1209 29.3213 9.29045 29.4523 9.5146C29.6045 9.77438 29.6298 10.0723 29.6023 10.3651C29.8917 10.513 30.0387 10.8307 30.0772 11.1668C30.3417 11.3642 30.4565 11.719 30.4026 12.054C30.605 12.1681 30.7096 12.4338 30.7085 12.6708C30.7073 12.892 30.6487 13.088 30.7312 13.3015C30.8047 13.4917 30.8311 13.6502 30.7907 13.8494L30.7866 13.8688C30.7794 13.9012 30.7734 13.9324 30.768 13.9631C30.8228 14.0112 30.8691 14.0714 30.9039 14.1415C31.0307 14.3976 31.0118 14.6897 30.9151 14.9494C30.9575 15.1149 30.9521 15.2896 30.8895 15.4486C31.0067 15.6175 31.0684 15.8248 31.0502 16.0398C31.0299 16.2805 30.92 16.4961 30.7534 16.6555C30.7978 16.9843 30.6641 17.3396 30.4225 17.5711C30.4568 17.7679 30.4272 17.9743 30.3195 18.1609C30.2428 18.2939 30.1395 18.3929 30.0204 18.462C30.0243 18.5718 30.0094 18.6841 29.9729 18.7967C29.9222 18.9528 29.8363 19.0967 29.7232 19.2126C29.7907 19.644 29.5325 20.1227 29.078 20.2437C29.0398 20.2539 29.0034 20.2586 28.9685 20.2593C28.9234 20.6742 28.8248 21.0834 28.6721 21.472C28.2841 22.4615 27.5784 23.3267 26.6582 23.8665C26.203 24.1332 25.6918 24.3159 25.1698 24.3922C24.7943 24.4473 24.433 24.4337 24.056 24.3963C23.5828 24.349 23.1075 24.2781 22.6476 24.1563L22.5736 24.1366C22.3829 24.0856 22.1819 24.0266 22.0167 23.9237C21.8319 23.8085 21.7358 23.6309 21.6933 23.4218C21.6695 23.3054 21.7432 23.1802 21.8706 23.1777L21.8788 23.1778C21.9067 23.1783 21.9343 23.1773 21.9623 23.1755L21.9834 23.1741H21.9844C21.9859 23.1737 21.9867 23.1737 21.9881 23.1737C22.0006 23.1719 22.0127 23.1682 22.0248 23.1664C22.1649 23.1428 22.2875 23.1662 22.4191 23.21L22.4356 23.2156C22.6571 23.2919 22.8768 23.3627 23.1057 23.4152C23.3422 23.4691 23.5817 23.512 23.822 23.5458L23.8458 23.5487L23.8531 23.5498L23.8568 23.5502C23.8575 23.5502 23.8583 23.5502 23.859 23.5505L23.9298 23.5594C23.9856 23.566 24.0413 23.5718 24.097 23.5777C24.1997 23.588 24.3024 23.596 24.4051 23.6019C26.1777 23.7017 27.6665 22.3056 28.1157 20.6317C28.2786 20.026 28.2892 19.4217 28.2412 18.817C28.2258 18.773 28.2166 18.7242 28.217 18.6706C28.217 18.6427 28.2185 18.6152 28.2203 18.5873C28.1605 18.0024 28.0567 17.4172 27.9918 16.8301C27.9159 16.1444 27.8737 15.4546 27.8891 14.7644C27.8968 14.4235 27.9331 14.086 27.9808 13.7485L27.998 13.6272C27.7825 13.5851 27.5822 13.4829 27.4227 13.3349C27.0765 13.5349 26.6285 13.5526 26.2868 13.3414C25.9039 13.5817 25.369 13.6035 24.9834 13.3686C24.7503 13.535 24.4567 13.6068 24.1684 13.5437C24.0388 13.5153 23.9099 13.4538 23.7995 13.3687C23.7207 13.3826 23.6408 13.388 23.5614 13.3839L23.545 13.393C23.362 13.4895 23.1592 13.553 22.9506 13.546C22.7961 13.5408 22.637 13.5103 22.4896 13.4526C22.3322 13.5476 22.16 13.6125 21.9757 13.6357C21.7066 13.6697 21.4162 13.6101 21.1924 13.4574C20.7834 13.6905 20.2804 13.7264 19.8389 13.5698C19.7485 13.723 19.6234 13.8551 19.4769 13.9569C19.5032 14.0509 19.5115 14.1511 19.5025 14.2475C19.4877 14.4062 19.4479 14.5484 19.3829 14.6762C19.4514 14.8188 19.4721 14.994 19.4337 15.1698C19.379 15.4206 19.2332 15.6387 19.0444 15.8086C19.0277 16.2087 18.8083 16.5839 18.4513 16.7924C18.4333 16.8029 18.4153 16.8115 18.3973 16.8192C18.3816 16.8408 18.3627 16.8598 18.3412 16.8758C18.1142 17.0856 17.7549 17.0689 17.4703 16.9504C17.4648 16.9506 17.4593 16.9511 17.4538 16.9512C17.3521 16.9538 17.2828 16.9142 17.2417 16.8558C17.2003 16.8581 17.1592 16.8624 17.1178 16.8701C16.9666 16.8984 16.8009 16.9527 16.6641 17.0232C16.309 17.2059 16.1447 17.5287 16.0956 17.9169C16.0421 18.3404 16.1638 18.7719 16.4913 19.0584C16.6505 19.1978 16.854 19.2852 17.0609 19.3219C17.2894 19.3626 17.5337 19.2624 17.7024 19.4587C17.7361 19.4976 17.7592 19.5519 17.7409 19.6044C17.6837 19.768 17.5894 19.8308 17.442 19.8535C17.6551 20.1063 17.8737 20.3507 18.1157 20.5778C18.3776 20.824 18.6483 21.0625 18.8845 21.334C19.1343 21.6213 19.3598 21.9258 19.5164 22.2744C19.6059 22.4748 19.6778 22.6813 19.7552 22.8864L19.7691 22.9222C19.8554 23.1401 19.9702 23.3501 19.8374 23.5777C19.7845 23.6672 19.665 23.7538 19.5549 23.7395C19.2451 23.6999 19.1413 23.4904 19.0459 23.2174C18.974 23.0112 18.919 22.7991 18.8416 22.5947C18.8271 22.5569 18.8114 22.5194 18.7948 22.4822C18.6161 22.532 18.4196 22.4925 18.2602 22.3905C18.0898 22.4661 17.901 22.5038 17.7187 22.5006C17.4745 22.4963 17.2515 22.4284 17.0598 22.3061C17.0445 22.302 17.0292 22.2982 17.014 22.2938C16.7223 22.4056 16.3807 22.3856 16.1165 22.2044C15.9455 22.0871 15.8286 21.9306 15.7621 21.7563C15.5412 21.752 15.3226 21.6737 15.1642 21.5168C15.0188 21.3729 14.9339 21.1871 14.9086 20.9941C14.7184 20.9564 14.5401 20.8644 14.4002 20.7095C14.2835 20.58 14.2125 20.4152 14.1885 20.2441C13.9568 20.178 13.7479 20.0267 13.6338 19.8157C13.5277 19.6193 13.5123 19.4062 13.5643 19.2124L13.5508 19.193C13.3122 19.0681 13.1301 18.8636 13.1114 18.5714C13.1061 18.4883 13.115 18.405 13.1376 18.3263C13.1295 18.2383 13.1347 18.1503 13.1577 18.0652C12.8368 17.7529 12.7205 17.2514 12.8948 16.8367C12.5812 16.4992 12.4983 15.9653 12.7282 15.5647C12.5705 15.3739 12.4895 15.1306 12.503 14.8708C12.5199 14.5465 12.6685 14.2632 12.8463 14.0009C12.7143 13.8548 12.6439 13.6512 12.6491 13.4545C12.6564 13.1694 12.8078 12.924 12.9975 12.7207C12.832 12.2188 13.0169 11.6743 13.4229 11.3565C13.3407 11.2211 13.3103 11.0534 13.3371 10.8836C13.384 10.5867 13.6067 10.3846 13.8469 10.2246C13.7966 10.061 13.8098 9.88445 13.8898 9.7153C13.9965 9.48965 14.1979 9.34655 14.4081 9.22547C14.4623 8.725 15.0213 8.29754 15.49 8.55585C15.3738 8.18343 15.7087 7.7813 16.0938 7.73873C16.2823 7.16708 16.9325 6.80677 17.5172 6.94877C17.8161 6.54002 18.3725 6.38265 18.8449 6.558C19.3643 6.1599 20.0086 6.10083 20.6164 6.303ZM16.9168 17.5273C17.2817 17.5075 17.5553 17.8054 17.7475 18.078C17.928 18.3338 17.4651 18.6038 17.3301 18.322C17.2817 18.2215 17.2267 18.1151 17.153 18.027C17.1406 18.0444 17.1297 18.0623 17.1188 18.0807L17.1079 18.0993C17.0998 18.1129 17.0913 18.1268 17.0844 18.1411C17.0851 18.1437 17.0741 18.1775 17.0737 18.1789C17.0437 18.2703 16.978 18.329 16.8886 18.3606C16.773 18.4009 16.6637 18.314 16.6266 18.212C16.5676 18.049 16.7048 17.9071 16.8474 17.8425C16.7073 17.8197 16.5694 17.8674 16.4682 17.9753C16.4543 17.9903 16.4308 17.9782 16.4301 17.9595C16.4183 17.7038 16.6857 17.5398 16.9168 17.5273Z" fill="black"/>
<path fill-rule="evenodd" clip-rule="evenodd" d="M23.0033 19.4691C23.011 19.462 23.0232 19.4595 23.0325 19.4653C23.1912 19.5657 23.21 19.9033 23.2118 20.0983C23.2774 20.1154 23.3423 20.1348 23.4036 20.1484C23.5338 20.1772 23.6647 20.2024 23.7954 20.2289L23.8934 20.2491C24.2207 20.3181 24.5543 20.3692 24.8879 20.3948C25.2117 20.4196 25.5448 20.4286 25.8677 20.3869C26.0063 20.369 26.1442 20.339 26.2782 20.2991C26.4365 20.2518 26.5627 20.1735 26.71 20.1049C27.0787 19.933 27.3877 20.4366 27.0329 20.6575C26.7282 20.8471 26.3126 20.9155 25.9609 20.9448C25.6015 20.9748 25.2435 20.9419 24.8883 20.885C24.5044 20.8235 24.1284 20.729 23.7643 20.592C23.6104 20.5341 23.4614 20.4638 23.3159 20.3871L23.2764 20.366C23.2522 20.353 23.227 20.3398 23.2016 20.3264C23.1744 20.5696 23.0959 20.8045 23.001 21.0302L22.9987 21.0263C22.9468 21.2044 22.7594 21.3145 22.5728 21.2359C22.3539 21.1436 22.3372 20.9014 22.4646 20.7294L22.4707 20.7214C22.6205 20.5287 22.7143 20.2895 22.7959 20.0615C22.8378 19.9447 22.8765 19.825 22.9101 19.7054C22.9344 19.619 22.9353 19.532 23.0033 19.4691ZM28.6454 17.5328C28.5157 17.9252 28.2326 18.2273 27.8383 18.3602C27.4476 18.4918 27.013 18.4438 26.6135 18.3727C26.5262 18.3571 26.4376 18.3399 26.3492 18.3198C26.4215 18.3647 26.4855 18.4278 26.5466 18.4945C26.637 18.5931 26.719 18.6971 26.7439 18.8206C26.7686 18.9431 26.7297 19.0363 26.6588 19.1067C26.5497 19.2149 26.3737 19.2732 26.2246 19.3054C25.8908 19.3776 25.5564 19.3663 25.2242 19.2924C25.1394 19.2735 25.0819 19.228 25.0496 19.1686C25.0104 19.0965 25.0072 19.0069 25.0297 18.9252C25.0522 18.8437 25.1008 18.7684 25.1713 18.7268C25.2293 18.6925 25.302 18.6831 25.3844 18.7105C25.5498 18.7656 25.714 18.8021 25.8888 18.8063C25.9627 18.808 26.0372 18.8058 26.111 18.799C26.1528 18.7952 26.1944 18.7899 26.2359 18.7832C26.2114 18.7507 26.1878 18.7176 26.1646 18.6842C26.1372 18.6446 26.1106 18.6046 26.0851 18.5639C26.0115 18.446 25.9503 18.3248 25.8964 18.1969C25.8792 18.1559 25.8632 18.1148 25.8478 18.0735C25.8456 18.0675 25.8434 18.0616 25.8412 18.0556C25.8364 18.0516 25.8317 18.0476 25.827 18.0436C25.7217 17.9525 25.6334 17.8402 25.571 17.7011C25.4019 17.3244 25.4294 16.8569 25.532 16.4658C25.6142 16.1523 25.7957 15.8623 26.0355 15.6653C26.0774 15.5964 26.105 15.5546 26.1389 15.5194C26.2767 15.376 26.4689 15.2793 26.6566 15.2204C27.0757 15.089 27.5321 15.1833 27.8874 15.4336C28.2154 15.6647 28.4722 16.0113 28.6109 16.3969C28.7423 16.762 28.768 17.1624 28.6454 17.5328ZM22.937 15.1483C23.4354 15.1441 23.9425 15.2913 24.347 15.5859C24.7339 15.8678 25.0377 16.284 25.0373 16.7797C25.0369 17.2624 24.779 17.737 24.493 18.1107C24.1719 18.5302 23.7523 18.7325 23.2247 18.7371C22.9505 18.7396 22.6743 18.7153 22.402 18.6819L22.256 18.6635C22.0548 18.6375 21.8516 18.6068 21.6609 18.5377C20.7534 18.2084 20.7253 17.02 21.0614 16.2604C21.3209 15.6739 21.9778 15.102 22.6327 15.1706C22.7314 15.1568 22.8328 15.1493 22.937 15.1483ZM23.7788 15.7072C23.1547 15.4269 22.3963 15.5109 21.7909 15.8099C21.5511 16.0717 21.3758 16.4016 21.3048 16.7044C21.2291 17.0277 21.2402 17.376 21.3541 17.6893C21.4931 18.0718 21.8355 18.1665 22.2048 18.2253L22.3482 18.2478L22.4084 18.257C22.7713 18.3111 23.168 18.3532 23.5168 18.2855C23.9055 18.2098 24.1523 17.8957 24.3466 17.5737L24.3557 17.5586C24.5574 17.2211 24.7263 16.8107 24.5571 16.4241C24.4132 16.0954 24.0989 15.8509 23.7788 15.7072ZM27.4627 15.8048C27.2485 15.6861 27.0042 15.6645 26.7729 15.744C26.6734 15.7782 26.5874 15.8336 26.504 15.8957L26.4708 15.9209C26.3682 15.9996 26.2725 16.0395 26.1956 16.1458L26.1856 16.1601C26.1468 16.2181 26.0789 16.2412 26.0171 16.2335C25.945 16.4323 25.9153 16.6472 25.9147 16.8588L25.9148 16.8869L25.9151 16.9155C25.9197 17.1656 25.9634 17.4716 26.1601 17.6392C26.3395 17.7921 26.6112 17.8288 26.8537 17.85L27.0407 17.8656L27.0904 17.8694C27.346 17.8872 27.6262 17.8811 27.8404 17.7297C28.0271 17.5978 28.1151 17.374 28.1379 17.153C28.1918 16.6309 27.9277 16.0626 27.4627 15.8048ZM22.8003 15.8531C23.144 15.6775 23.5569 15.7215 23.848 15.9415C23.8222 15.9466 23.7967 15.9531 23.7714 15.9658C23.7053 15.9989 23.6643 16.0653 23.6487 16.1359C23.6311 16.2157 23.6724 16.2912 23.7511 16.3164C23.8197 16.3382 23.9009 16.3483 23.9645 16.3066C23.9979 16.2848 24.0212 16.2561 24.0365 16.2199L24.0386 16.2146L24.0413 16.2107L24.0423 16.2089C24.0426 16.2082 24.0414 16.2095 24.0395 16.2125C24.0414 16.208 24.0432 16.2034 24.045 16.1989C24.0477 16.1934 24.0502 16.1879 24.0523 16.1822C24.056 16.179 24.0594 16.1754 24.0628 16.1719C24.1157 16.2533 24.1572 16.3453 24.1836 16.4475C24.3528 17.1041 23.6589 17.7855 23.0389 17.8537C22.8047 17.8795 22.591 17.8237 22.4137 17.7137C22.4153 17.7115 22.4171 17.7095 22.4186 17.7073C22.4898 17.7201 22.5748 17.6882 22.6007 17.6087C22.6667 17.406 22.599 17.1689 22.3782 17.1026C22.2361 17.06 22.0907 17.1071 21.9892 17.2043C21.9124 17.0162 21.8849 16.8045 21.9213 16.5925C21.9725 16.2933 22.1529 16.0238 22.4336 15.8993C22.5703 15.8387 22.6881 15.8259 22.8003 15.8531ZM26.4199 16.2582L26.4303 16.2417C26.5365 16.0782 26.7396 15.8776 26.95 15.9328C26.9795 15.9405 27.0085 15.953 27.0346 15.9692C27.1502 15.9535 27.2713 15.9797 27.3707 16.0409L27.3679 16.0477C27.3675 16.0489 27.3671 16.0501 27.3668 16.0513C27.3578 16.091 27.3631 16.1278 27.3816 16.1644C27.4018 16.2039 27.4305 16.2415 27.4693 16.2642C27.496 16.2797 27.5274 16.2879 27.5581 16.2873C27.6032 16.2865 27.6429 16.2667 27.6754 16.2363C27.6932 16.2199 27.7055 16.1958 27.7123 16.171C27.7284 16.1864 27.744 16.2036 27.7588 16.2231C28.0028 16.544 27.9691 17.0596 27.6829 17.3457C27.6713 17.3572 27.659 17.3676 27.6469 17.3783C27.5307 17.5383 27.3516 17.6469 27.1365 17.6689C26.9373 17.6892 26.7382 17.6303 26.5855 17.5095C26.5978 17.503 26.6092 17.4945 26.6191 17.4833C26.6452 17.4537 26.6667 17.4246 26.6825 17.3885C26.6865 17.3795 26.6903 17.3703 26.694 17.3611L26.6993 17.3472C26.7002 17.3446 26.7083 17.3212 26.7062 17.3253L26.7057 17.3262L26.7086 17.3195C26.7359 17.2512 26.7248 17.1732 26.66 17.1304L26.6528 17.1259C26.6316 17.1136 26.6053 17.1077 26.5788 17.1077C26.5125 17.0265 26.4139 17.0079 26.3214 17.0316L26.3181 17.0054C26.3177 17.0011 26.3172 16.9967 26.3169 16.9923C26.2452 16.7545 26.2798 16.4843 26.4199 16.2582ZM23.2364 13.8641L23.2602 13.8604C23.4403 13.8343 23.5627 13.8643 23.6797 14.0182C23.7355 14.0915 23.7183 14.2023 23.6797 14.2773C23.5551 14.5195 23.2122 14.4694 22.9813 14.5175C22.7558 14.5644 22.5309 14.6283 22.32 14.7213C22.1047 14.8162 21.9027 14.9284 21.7056 15.0566C21.5274 15.1725 21.3658 15.3469 21.1622 15.4143C21.153 15.4174 21.142 15.4092 21.1425 15.3994C21.1571 15.1678 21.3504 14.9552 21.5002 14.7902C21.6735 14.5995 21.8842 14.4301 22.1036 14.2954C22.3301 14.1565 22.5749 14.0422 22.8283 13.9624C22.9618 13.9204 23.0983 13.887 23.2364 13.8641ZM25.979 14.1786C26.2057 13.847 26.7691 13.9106 27.1016 13.9992C27.5185 14.1102 27.9702 14.3348 28.2625 14.6599C28.5244 14.9511 28.1326 15.3295 27.8382 15.0844L27.7596 15.0192L27.7093 14.9779C27.4833 14.7932 27.2594 14.6261 26.984 14.5029C26.661 14.3586 26.3337 14.2883 25.9923 14.2114C25.9789 14.2084 25.971 14.1902 25.979 14.1786Z" fill="black"/>
</svg>
