<svg width="40" height="54" viewBox="0 0 40 54" fill="none" xmlns="http://www.w3.org/2000/svg">
<g clip-path="url(#clip0_112_72)">
<path fill-rule="evenodd" clip-rule="evenodd" d="M40.9856 32.49C41.3463 32.3017 41.6984 32.0971 42.045 31.8841C42.2892 31.738 42.073 31.3701 41.8227 31.503C41.6947 31.571 41.5672 31.6397 41.4393 31.7073C41.54 31.6205 41.6333 31.526 41.717 31.4231L41.7112 31.4173C42.0339 31.1281 41.6194 30.5824 41.2525 30.82C40.9288 31.0547 40.6022 31.2941 40.2308 31.4487C39.4613 31.7751 38.6126 31.8291 37.7868 31.8385C37.4846 31.8158 37.1959 31.8681 36.9027 31.9265C37.0176 31.4651 37.3053 31.1167 37.458 30.6699C37.5706 30.2187 36.9196 29.9114 36.6889 30.345C36.6322 30.4515 36.5783 30.5593 36.5255 30.6675C36.0268 31.1213 35.1942 31.0813 34.6912 31.5685C34.4048 31.8228 34.2646 32.168 34.2092 32.5143C34.1716 32.7495 34.23 32.9853 34.0879 33.1937C33.4006 34.1662 32.3146 35.7033 31.7631 36.7735C31.3726 34.2304 30.33 31.0848 29.2528 28.7593C28.8966 28.0156 28.4891 27.2889 27.9542 26.6585C28.0148 26.4483 27.8008 26.0751 27.6647 26.19C27.2458 25.6781 26.5053 25.5455 25.9099 25.291C25.1061 24.9472 24.4393 24.2325 24.1114 23.4203C23.6902 21.8735 22.6534 21.677 21.2154 21.7453C19.8392 21.7436 18.821 22.3325 18.5207 23.7339C17.9107 24.7976 16.4703 24.6217 15.4341 24.9033C14.6746 25.0769 13.9376 25.3452 13.2372 25.6859C12.458 24.9465 9.66736 28.0496 9.41369 28.8482C9.56302 28.8772 9.71144 28.912 9.85852 28.9545C9.9895 28.9924 9.9345 29.1903 9.80239 29.1586C9.63799 29.1191 9.47253 29.0919 9.3063 29.0731C9.30123 29.089 9.29679 29.1048 9.29348 29.1204C9.27482 29.1191 9.25619 29.1175 9.23753 29.1163C9.2789 29.1378 9.31873 29.1628 9.35753 29.1951C9.45133 29.273 9.32922 29.4234 9.22954 29.3613C9.13563 29.291 9.01264 29.3021 8.9 29.2785C8.89331 29.5102 8.06679 29.251 7.93841 29.1742C7.36781 29.1028 6.78081 29.1794 6.24813 28.9041C5.53936 28.7548 4.82528 28.5897 4.12447 28.3995C3.93894 28.4719 3.76457 28.7308 3.91193 28.9208C3.99482 29.0072 3.88827 29.1484 3.78391 29.087C3.43387 28.8809 3.16317 28.5591 2.93366 28.2125C2.82563 28.1035 2.63387 28.1269 2.48873 28.0817C2.46933 28.1166 2.45788 28.1554 2.45806 28.1953C1.84239 28.2967 2.28158 28.9694 2.59109 29.179C2.4269 29.2859 2.42067 29.4953 2.43503 29.6702C2.40024 29.7325 2.38862 29.8097 2.41891 29.8796C2.53468 30.1464 2.78507 30.3712 2.97545 30.5875C3.18567 30.8263 3.3731 31.0664 3.62887 31.26C4.6038 32.0034 5.78031 32.4191 6.98729 32.5816C7.41584 32.6475 8.03229 32.7482 8.29764 33.1108C8.23253 33.541 8.11299 33.9536 8.00454 34.3732C7.85288 34.9301 7.8632 35.5131 7.86119 36.0808C7.84 36.0638 7.79929 36.0673 7.79324 36.0998C7.75795 36.3351 7.73172 36.5758 7.58873 36.7735C7.46338 37.1413 7.37996 37.5335 7.3331 37.9198C7.14535 39.7514 7.10052 41.6369 7.52383 43.4399C7.68718 44.1088 7.95285 44.7445 8.31482 45.3298C8.42274 45.5044 8.59626 45.5556 8.75207 45.5213C9.27355 45.7923 9.93049 45.8792 10.4926 45.8103C12.4088 45.2677 11.7411 46.5744 14.4278 46.1743C19.0654 45.5833 23.7522 46.7446 28.3799 46.0628C28.4939 46.9435 29.9859 46.6909 30.5042 46.3185C32.0582 45.1628 32.8298 41.5038 33.6097 39.6476C34.1458 38.1846 35.0435 35.5933 36.2191 34.6115C36.5716 34.3357 36.9977 34.1905 37.424 34.0733C39.0151 33.6631 40.6124 33.2753 42.2065 32.8765C42.4769 32.8099 42.4283 32.3486 42.1392 32.3782C41.7556 32.4175 41.3706 32.453 40.9856 32.49Z" fill="white"/>
<path fill-rule="evenodd" clip-rule="evenodd" d="M5.56496 32.2157C5.45721 32.2023 5.35158 32.1639 5.24665 32.1336C5.08644 32.0868 4.9294 32.0322 4.77482 31.9698C4.4558 31.842 4.1463 31.6908 3.85616 31.5059C3.38749 31.2069 2.97341 30.8236 2.66109 30.3622L2.63964 30.33C2.46134 30.0583 2.13244 29.455 2.50123 29.2487C2.26354 29.05 2.03889 28.6932 2.05157 28.4177C2.06953 28.0281 2.54699 28.0335 2.79382 28.1986C2.95544 28.3068 3.07657 28.4582 3.19805 28.6073C3.33255 28.7728 3.47622 28.9306 3.62551 29.0824C3.66512 29.1226 3.70513 29.1619 3.74584 29.2007L3.78678 29.2392C3.78044 29.224 3.77481 29.2085 3.76988 29.1927C3.68748 28.9359 3.78572 28.6016 4.04241 28.484C4.1995 28.4119 4.36264 28.4559 4.51486 28.5171L4.53819 28.5266C4.74312 28.6114 4.95051 28.6865 5.16389 28.7467C6.03361 28.9923 6.94136 29.0331 7.83255 29.1557C8.17586 29.2033 8.52551 29.2631 8.86706 29.3512C8.99734 28.7978 9.3167 28.2673 9.66318 27.8309C11.3223 25.7431 14.0586 25.0531 16.5618 24.6064C16.7899 24.5659 16.979 24.8681 17.1118 24.7966C17.3635 24.6613 17.585 24.4697 17.7794 24.2615C18.1938 23.8173 18.4878 23.295 18.8333 22.8C19.004 22.5556 19.397 22.7743 19.2385 23.0368L19.1609 23.165C18.8413 23.6903 18.4874 24.2317 18.029 24.6391C17.7854 24.8554 17.515 25.0263 17.2058 25.133C16.9716 25.2137 16.6431 25.2816 16.3868 25.2034L16.356 25.1586C16.3662 25.1736 16.3765 25.1885 16.3868 25.2034C17.0558 26.1732 17.8952 26.9939 18.7797 27.7685C19.6725 28.5499 20.6357 29.2497 21.6046 29.9339L21.6854 29.9909C23.2639 28.8391 24.5973 27.3367 25.5329 25.6202C25.3368 25.5966 25.1428 25.4708 24.9752 25.3771C24.7734 25.2637 24.5836 25.1284 24.4357 24.9481C24.1135 24.5553 24.1554 24.0491 24.0973 23.5725C24.0938 23.5429 24.1329 23.5355 24.1509 23.5503C24.3255 23.6955 24.3868 23.9332 24.4597 24.1386C24.54 24.3644 24.6308 24.5504 24.815 24.7092C24.9864 24.8572 25.1956 24.966 25.3988 25.0629C25.5035 25.1126 26.0237 25.2403 26.0829 25.3461C26.9815 25.1351 27.8569 25.4997 28.5227 26.1147C29.166 26.709 29.6382 27.4815 30.0551 28.2441C30.4998 29.0578 30.8643 29.906 31.1783 30.7778C31.4966 31.6627 31.7407 32.5669 31.8748 33.4982C31.9881 34.2835 32.0575 35.081 32.1024 35.875L32.1079 35.9742C32.7727 34.9305 33.454 33.8977 34.1494 32.8741C33.9914 32.4517 34.1664 32.0205 34.4625 31.6944C34.7906 31.3333 35.2445 31.1656 35.6787 30.9705L35.7357 30.9447C35.945 30.8492 36.1536 30.744 36.3343 30.601C36.5083 30.4629 36.6361 30.2727 36.8192 30.1455C37.0854 29.9602 37.5685 29.9997 37.5808 30.4044C37.5871 30.6267 37.4917 30.8705 37.4044 31.0702C37.3054 31.296 37.172 31.5006 37.0135 31.6887C37.0062 31.6975 36.9982 31.7044 36.9901 31.7099L36.984 31.7137C37.203 31.75 37.4238 31.7793 37.6488 31.7895C38.1026 31.8103 38.5614 31.7768 39.0058 31.681C39.4607 31.5831 39.9016 31.4239 40.3107 31.2019C40.6604 31.0124 40.9843 30.7672 41.3815 30.7095C41.4181 30.7038 41.4551 30.7003 41.4931 30.6982C41.5565 30.6947 41.6199 30.7694 41.5949 30.832C41.5811 30.8666 41.5667 30.9008 41.5509 30.9353C41.4135 31.2378 41.2029 31.5314 40.9402 31.7542L40.9199 31.7712C41.0125 31.7391 41.1037 31.7032 41.1935 31.6627C41.7213 31.4249 42.2002 31.0656 42.766 30.9212C42.7928 30.9141 42.8199 30.9078 42.847 30.9018C43.022 30.8641 43.1143 31.0543 43.0114 31.1847C42.9949 31.2058 42.9783 31.2266 42.9611 31.2474C42.7086 31.5609 42.4301 31.8518 42.1231 32.1132C42.0178 32.2027 41.9093 32.2893 41.7988 32.3721C41.7522 32.4072 41.7053 32.4415 41.658 32.4753L41.6347 32.4918C41.6899 32.4528 41.7445 32.413 41.7988 32.3721C42.1452 32.2671 42.4868 32.1428 42.8209 32.0051C42.9537 31.9504 43.0568 32.085 43.0709 32.1956C43.1181 32.5662 42.7068 32.8343 42.4392 33.0125C42.1709 33.1915 41.8755 33.3274 41.573 33.4366C40.9915 33.6468 40.3807 33.7423 39.7708 33.8279L39.4746 33.8691C38.3022 34.0332 37.0777 34.2292 36.2364 35.1419C35.7649 35.6533 35.4459 36.2888 35.154 36.914C34.8625 37.5386 34.6065 38.1797 34.3635 38.8243C34.1118 39.4914 33.8924 40.1709 33.6593 40.8448C33.4452 41.4635 33.1895 42.0743 32.9362 42.679L32.8963 42.7744C32.3586 44.0594 31.7164 45.2697 30.8213 46.3427C30.6737 46.5199 30.4354 46.2684 30.5716 46.0929C31.5079 44.8854 32.1593 43.4606 32.697 42.0392C32.9417 41.3925 33.1466 40.7303 33.3818 40.08L33.5218 39.6937C33.7087 39.1788 33.8972 38.6645 34.0938 38.1536C34.3428 37.5072 34.6164 36.8686 34.9294 36.2507L34.9626 36.1857C35.2691 35.5896 35.6332 35.0022 36.1343 34.5511C37.0363 33.7389 38.2366 33.544 39.3971 33.3897L39.7622 33.3415C40.2528 33.2763 40.7449 33.2043 41.222 33.0731C41.4973 32.9977 41.7663 32.9012 42.0192 32.768C42.1199 32.7152 42.2181 32.6571 42.3132 32.5937C42.0421 32.6733 41.7671 32.7384 41.4871 32.7895C41.3502 32.8145 41.2146 32.8332 41.0794 32.8462C40.7312 32.8807 40.3857 32.8793 40.029 32.8607C39.9988 32.8589 39.9889 32.8114 40.0213 32.8054C40.2697 32.7612 40.5184 32.7059 40.766 32.646L40.8403 32.6278C40.8417 32.5866 40.8579 32.5429 40.8917 32.5014C41.015 32.3513 41.2491 32.2745 41.4114 32.1685C41.5815 32.0575 41.7463 31.9378 41.9033 31.8095C42.047 31.6923 42.185 31.5682 42.3178 31.4387L42.3576 31.3995C42.3444 31.4126 42.3311 31.4257 42.3178 31.4387C41.9593 31.6042 41.6195 31.8166 41.2452 31.9477C40.9477 32.0523 40.6357 32.1227 40.3209 32.1477L40.3014 32.1493L40.2819 32.1505C39.9533 32.1741 39.6227 32.1646 39.2991 32.2358C39.2628 32.2439 39.2516 32.1953 39.284 32.1815C39.5667 32.0639 39.8607 32.0184 40.1579 31.9635C40.1642 31.9402 40.1804 31.9194 40.2086 31.9061L40.2846 31.8697C40.5111 31.761 40.7221 31.6511 40.9104 31.4746C41.0766 31.3185 41.2149 31.1361 41.3188 30.9339C40.903 31.0251 40.5378 31.3404 40.1597 31.5175C39.7477 31.7109 39.3118 31.8497 38.8639 31.9286L38.8129 31.9374C37.9759 32.0771 36.9694 32.0593 36.2195 31.6239C36.1956 31.6098 36.2128 31.5778 36.2375 31.5816C36.4502 31.6165 36.6607 31.6577 36.8713 31.6944C36.8301 31.6567 36.8118 31.589 36.8593 31.5348C37.0484 31.318 37.198 31.0702 37.2936 30.799L37.3119 30.746C37.3559 30.6202 37.4303 30.4249 37.3544 30.3114C37.2818 30.2033 37.1111 30.2181 37.009 30.2639C36.7966 30.3597 36.6554 30.5989 36.4766 30.7433C36.2815 30.9011 36.0597 31.018 35.8326 31.1227L35.7846 31.1445C35.3918 31.3212 34.9721 31.47 34.6632 31.7821C34.497 31.9497 34.354 32.1593 34.3061 32.3943C34.2843 32.5021 34.2843 32.613 34.3132 32.7198C34.3361 32.8032 34.384 32.8547 34.3565 32.9396C34.3206 33.0491 34.1935 33.1802 34.128 33.2777C34.0519 33.3905 33.9762 33.5035 33.9005 33.6166C33.7495 33.8427 33.5991 34.0696 33.4487 34.2961C33.148 34.7498 32.8505 35.2056 32.5554 35.6628C32.4594 35.8117 32.3637 35.9607 32.2683 36.1099L32.1255 36.3339L32.05 36.4519L31.9213 36.6544C31.9259 36.6731 31.9255 36.6928 31.9195 36.71C31.8976 36.7726 31.8565 36.8153 31.8054 36.8463L31.7963 36.8517C31.0449 38.0398 30.3054 39.2357 29.5586 40.4267C29.5188 40.7902 29.4815 41.154 29.4491 41.5179C29.3755 42.3415 29.3252 43.1672 29.309 43.9939C29.3012 44.3941 29.3333 44.7967 29.3505 45.1965C29.359 45.3873 29.3705 45.5779 29.3856 45.7684L29.3967 45.9035C29.4116 46.089 29.42 46.2733 29.3533 46.4502C29.2942 46.6055 29.1139 46.6403 29.0072 46.522C27.6153 46.466 26.2223 46.4234 24.8294 46.3969C22.3361 46.349 19.8417 46.3564 17.348 46.4047C16.0956 46.429 14.8428 46.4632 13.5907 46.5054C12.9738 46.5259 12.3565 46.5548 11.7392 46.5632C11.4067 46.5677 10.8833 46.4466 10.8565 46.0723L10.8558 46.0609C10.8142 46.0722 10.7713 46.0813 10.7273 46.088C10.7077 46.091 10.6889 46.0902 10.6715 46.0861L10.6628 46.0838C10.1671 46.235 9.54003 46.0193 9.06898 45.8936L9.0301 45.8834C8.58045 45.7661 8.21918 45.5984 7.92446 45.2257C7.40862 44.573 7.23256 43.6966 7.14101 42.8889C7.0551 42.1287 7.05017 41.3545 7.15474 40.5958C7.09312 39.9776 7.15333 39.3396 7.2234 38.7249C7.25791 38.4209 7.2984 38.1173 7.34699 37.8151C7.37411 37.6463 7.40967 37.4794 7.44594 37.3127C7.46042 37.2462 7.47247 37.1745 7.49083 37.1052L7.4991 37.0757C7.44277 37.0831 7.38115 37.0708 7.32164 37.038C7.18009 36.9602 7.13889 36.8027 7.13643 36.652C7.12868 36.1975 7.18291 35.7301 7.23079 35.2785C7.27903 34.8277 7.34523 34.375 7.43185 33.9297L7.45426 33.8149C7.5199 33.4819 7.595 33.138 7.72727 32.8251C7.23045 32.7406 6.73503 32.6507 6.25299 32.4978C6.01778 32.4228 5.78609 32.3295 5.56496 32.2157ZM31.4966 36.9447C31.4889 36.9464 31.4815 36.9485 31.4741 36.9507C31.2755 37.0063 31.0748 37.0535 30.8748 37.1042C30.529 37.1912 30.191 37.2885 29.8695 37.4396C29.8022 38.2899 29.7023 39.1375 29.6074 39.9855L29.5885 40.1551C29.7343 39.8845 29.8836 39.6161 30.0396 39.3509C30.5146 38.5425 31.0005 37.7404 31.4966 36.9447ZM7.62023 37.0289C7.62129 37.1299 7.60016 37.2349 7.5889 37.3321C7.57059 37.49 7.5558 37.6485 7.53713 37.8063C7.49911 38.1233 7.46671 38.4407 7.44312 38.7591C7.42798 38.9624 7.41812 39.1663 7.40932 39.3703C7.60897 38.6238 7.87341 37.8936 8.12481 37.1623C8.08279 37.1579 8.03983 37.1476 7.99552 37.1359L7.92092 37.1158C7.87693 37.1044 7.73423 37.0693 7.62023 37.0289ZM32.1255 36.3339L32.1269 36.3673C32.1322 36.486 32.0611 36.553 31.9748 36.5702C32.0248 36.4913 32.0752 36.4124 32.1255 36.3339ZM9.28044 30.7077C9.49065 30.7264 9.69664 30.7711 9.89312 30.8486L9.91208 30.856C10.0574 30.9122 10.2699 30.9827 10.3174 31.1378C10.3308 31.1819 10.2949 31.2181 10.2537 31.2217C10.0959 31.2344 9.91002 31.0652 9.76389 31.0082C9.60122 30.9448 9.43079 30.8976 9.25826 30.8726C8.87058 30.8158 8.46636 30.8589 8.10157 31.0001C8.08009 31.0086 8.06671 30.9744 8.08608 30.9641C8.45368 30.7641 8.86248 30.6707 9.28044 30.7077ZM4.82587 31.7152C4.80156 31.6937 4.77727 31.6711 4.75332 31.6486C4.56454 31.4699 4.39737 31.2614 4.27359 31.0323L4.24101 30.9703C4.1402 30.775 4.0164 30.4968 4.25332 30.3562C4.39487 30.272 4.5653 30.2931 4.72304 30.3442C4.73325 30.3474 4.74347 30.3509 4.75368 30.3544C4.8241 30.3791 4.89206 30.4086 4.95262 30.4368C5.21565 30.5576 5.44769 30.7334 5.69065 30.8884C5.9539 31.0565 6.21384 31.1639 6.51767 31.2268L6.54628 31.2326C6.83149 31.289 7.14065 31.3252 7.33959 31.5598C7.38959 31.619 7.34382 31.7299 7.25755 31.7007C6.70755 31.5151 6.12551 31.4742 5.62058 31.1695C5.41142 31.0434 5.21354 30.8987 4.9998 30.7792C4.88642 30.7158 4.76936 30.6603 4.64461 30.6222L4.57646 30.6021C4.53654 30.5905 4.48889 30.579 4.45685 30.5904C4.39585 30.6116 4.41532 30.6442 4.43419 30.7012L4.43607 30.707C4.58431 31.1657 5.00685 31.5496 5.3984 31.8036C5.48818 31.862 5.58009 31.9156 5.67375 31.9653C6.30774 32.3033 7.01714 32.4607 7.71387 32.6474C7.98243 32.7224 8.1612 32.774 8.25017 32.8022C8.39876 32.7898 8.56812 32.8424 8.6801 32.9051C8.7889 32.966 8.87657 33.0477 8.94277 33.1439C8.94277 33.1439 9.0065 33.1971 9.01812 33.2795C9.05157 33.3559 9.07411 33.4383 9.08538 33.5243C9.09172 33.5747 9.07904 33.6134 9.0551 33.6409C9.12712 34.7467 8.82854 35.8463 8.49193 36.8972L8.45857 37.0008L8.43714 37.0665C8.07411 38.1807 7.65756 39.2868 7.47164 40.4485C7.34735 41.2245 7.35122 42.0276 7.44242 42.8071L7.44885 42.8609C7.53871 43.5979 7.71159 44.4247 8.1801 45.0179C8.41906 45.3206 8.70218 45.4551 9.06415 45.5526L9.08397 45.5579C9.41143 45.6442 9.74946 45.7664 10.0871 45.8034C10.4005 45.8376 10.6632 45.721 10.9452 45.6118L10.9456 45.6114C11.5396 45.0855 11.8093 44.3197 12.0086 43.5469C12.5252 41.5468 12.4611 39.4707 12.1681 37.4413C12.0153 36.3811 11.8076 35.33 11.6005 34.2792C11.497 33.754 11.3854 33.2298 11.2928 32.7029L11.2378 32.3927C11.2074 32.2204 11.1781 32.048 11.153 31.8747C11.1192 31.6419 11.109 31.4129 11.0973 31.1787C10.8128 30.707 10.3998 30.3185 9.92129 30.0399C9.57868 29.8401 9.21601 29.7017 8.84171 29.6013C7.77164 29.3128 6.60509 29.3332 5.52833 29.1113C5.1666 29.0369 4.82324 28.9263 4.48006 28.7938L4.43326 28.7756C4.27586 28.7143 4.1153 28.6802 4.03713 28.8658C3.9815 28.9979 4.0146 29.1353 4.09805 29.2462C4.30262 29.5182 4.71389 29.6443 5.0234 29.7422C5.20967 29.8014 5.39981 29.8482 5.59206 29.8831C5.78431 29.918 5.97727 29.9268 6.16178 29.9948C6.23291 30.0208 6.24699 30.1339 6.16178 30.1539C5.92798 30.2086 5.69277 30.1617 5.46037 30.1163C5.20509 30.0659 4.95368 29.9944 4.70931 29.9039C4.66424 29.8873 4.6176 29.8697 4.57009 29.8511L4.53431 29.8369C4.57129 29.8637 4.60826 29.8902 4.64558 29.9166C4.65544 29.9236 4.64946 29.9423 4.63643 29.9377C4.06185 29.7232 3.53905 29.3363 3.13404 28.8786L3.11389 28.8556C2.97129 28.6921 2.64629 28.1976 2.37234 28.3353C2.1151 28.4645 2.55361 28.9624 2.72025 29.166L2.7396 29.1899C2.92904 29.1948 3.11249 29.3128 3.26601 29.4079C3.53256 29.5731 3.81108 29.7154 4.09488 29.8486C4.65897 30.1138 5.25791 30.3009 5.81601 30.5795C5.82341 30.5834 5.81777 30.5929 5.81073 30.5918C5.45545 30.5351 5.10404 30.4446 4.76073 30.3322L4.74541 30.3274L4.7301 30.3223C4.51566 30.2519 4.30404 30.1723 4.09594 30.0874C3.8646 29.993 3.63855 29.887 3.41918 29.7669C3.22059 29.6584 3.00017 29.4629 2.76988 29.434C2.74524 29.4308 2.72341 29.4304 2.70439 29.4322C2.43996 29.4544 2.65862 29.8926 2.73256 30.0236C2.85334 30.2389 2.99911 30.4375 3.16637 30.6189C3.50545 30.9874 3.91637 31.2794 4.36109 31.5066C4.51285 31.5841 4.66813 31.6524 4.82587 31.7152Z" fill="black"/>
<path fill-rule="evenodd" clip-rule="evenodd" d="M21.7183 8.40845C23.2948 8.40845 25.1863 9.17299 25.3471 9.18828L25.3514 9.18852C25.436 9.18852 25.7667 9.44049 26.3433 9.94443L25.7187 11.163L25.7693 11.2113C26.0111 11.4433 26.2176 11.6547 26.3806 11.8214C27.7113 13.1823 27.9504 18.5255 27.6368 20.3889C27.3232 22.2523 26.7424 24.0756 24.0382 24.0756C21.334 24.0756 18.3256 22.449 17.8622 21.9425C17.5532 21.6048 17.2062 21.443 16.821 21.4571C16.8052 21.4372 16.7895 21.4172 16.7739 21.3974L16.7173 21.3893C16.1843 21.3121 15.8024 21.2082 15.5716 21.0775C15.1208 20.8224 14.6253 19.4811 14.6253 19.1856C14.6253 18.893 13.8854 16.765 13.8706 16.5398L13.8703 16.5336C13.8703 16.3453 12.9038 15.4799 12.9038 15.2051C12.9038 14.9303 12.7089 14.9469 12.9038 13.9785L12.9604 13.694C13.1677 12.6628 13.5735 10.9554 15.1208 10.2135C16.821 9.39823 20.126 8.40845 21.7183 8.40845Z" fill="white"/>
<path fill-rule="evenodd" clip-rule="evenodd" d="M14.8583 10.1752C15.7063 9.27479 20.5204 7.88206 22.956 8.17729L23.0291 8.18675C23.2235 8.21141 23.415 8.24875 23.6041 8.29947C24.2151 8.44224 24.8463 8.65842 25.3512 9.01951C25.7727 9.31491 27.1024 9.79731 26.7105 10.5701C26.8558 10.8455 26.9101 11.1858 26.8119 11.457C26.7995 11.5507 26.7706 11.637 26.7337 11.7265C27.0442 12.1848 27.29 12.7031 27.4889 13.1961C27.8367 14.4368 28.053 15.7279 28.0847 16.9937C28.1901 19.3986 27.9265 22.2712 25.8328 23.8264C24.568 24.8118 22.5867 24.8449 21.1654 23.6231C21.0847 23.5276 20.7054 23.2699 20.8319 23.2247C20.8696 23.2645 20.9083 23.3032 20.9478 23.3413C20.946 23.337 20.9456 23.3328 20.9464 23.3282L20.9093 23.2946C20.8394 23.23 20.7489 23.1362 20.852 23.1546C20.8565 23.1599 20.8615 23.1644 20.8664 23.1697C20.8882 23.1828 20.9047 23.1942 20.9176 23.2042L20.9242 23.2095L20.9221 23.2074C20.8628 23.144 20.8272 23.0794 20.9159 23.1207L20.9277 23.1264C20.9671 23.168 21.0073 23.2078 21.0481 23.2465C21.0474 23.2419 21.0481 23.2374 21.0506 23.2324L21.0125 23.1956C20.9753 23.1592 20.981 23.159 20.9992 23.1296C20.9202 23.0188 21.0677 23.0846 21.078 23.1278C21.1703 23.106 21.2513 23.2793 21.3108 23.3004C23.9164 25.3044 27.6976 23.5262 27.6364 17.9422L27.6354 17.8329C27.6175 16.0474 27.4673 14.2122 26.7291 12.5959C26.6573 12.4402 26.577 12.2887 26.4886 12.1422C26.4277 12.0323 26.3626 11.9252 26.2925 11.8209C26.0963 11.8051 25.9027 11.7691 25.7119 11.7135C25.6463 11.6969 25.5815 11.6786 25.5168 11.6571C24.5703 11.7088 23.6449 11.7649 22.6958 11.8182L22.3993 11.8367C21.5953 11.8884 20.7638 11.9712 20.115 12.4687C19.4784 12.9216 19.4755 13.8148 18.9305 14.312C18.1534 14.8397 18.1477 15.3155 17.9981 16.093C18.0092 16.6792 18.4155 17.5308 17.6699 17.7775C17.7957 17.9569 17.6204 17.8707 17.6066 17.8078C17.6052 17.8081 17.6038 17.8085 17.6027 17.8085C17.7148 18.0169 17.55 17.8857 17.5355 17.8187C17.5267 17.8162 17.5179 17.8099 17.509 17.8011C17.622 17.9837 17.4394 17.8558 17.4502 17.8226C17.232 17.487 16.783 17.4349 16.4664 17.5239C16.4625 17.5358 16.4485 17.5369 16.4397 17.5305C15.0937 17.8224 15.441 20.6099 16.8203 20.3405C16.8794 20.3284 16.878 20.3568 16.8897 20.3595C16.8578 20.2758 16.9476 20.3098 16.9467 20.3274L16.9522 20.3272C16.9565 20.3268 16.9547 20.3263 16.958 20.3274C16.9271 20.1563 17.1005 20.4042 17.0868 20.4144C17.0921 20.4113 17.0981 20.4095 17.1034 20.4088L17.0974 20.3925C17.0687 20.3159 17.0711 20.3477 17.0713 20.3038C17.0497 20.2495 17.0481 20.2733 17.0532 20.2379C17.1292 20.179 17.1516 20.3577 17.177 20.3707C17.1335 20.3102 17.1681 20.2607 17.209 20.2936C17.5197 20.9473 17.921 21.5615 18.4396 22.0453C18.4964 22.0901 18.5538 22.1341 18.6132 22.1757C18.8338 22.3679 19.1722 22.4915 19.3787 22.6618C19.3787 22.6646 19.3774 22.6681 19.3752 22.6716L19.38 22.6759L19.3848 22.6805L19.4566 22.715C19.4777 22.7329 19.4967 22.753 19.5136 22.7752C19.5316 22.796 19.5474 22.8189 19.5608 22.8432C19.5675 22.8728 19.5527 22.8851 19.5245 22.8724C19.5122 22.8682 19.4999 22.8633 19.4876 22.8587C19.4883 22.8597 19.4886 22.8605 19.4893 22.8612C19.4934 22.8673 19.5207 22.9307 19.4892 22.9204L19.4855 22.9189C19.4682 22.9126 19.451 22.9055 19.434 22.8988C19.4541 22.9239 19.4724 22.951 19.4886 22.9739C19.5059 22.9918 19.5164 23.013 19.5207 23.0369C19.5199 23.0503 19.5126 23.056 19.4992 23.0542C19.4788 23.0475 19.4587 23.0405 19.4386 23.0331L19.4443 23.044C19.4585 23.0719 19.4787 23.1188 19.4429 23.1032C19.4122 23.0936 19.3826 23.0827 19.3531 23.0707C19.3506 23.0757 19.3457 23.0774 19.3358 23.0729C19.2418 23.0394 19.151 22.9985 19.064 22.9503C18.9876 22.8946 18.9104 22.84 18.8337 22.7847C18.7615 22.7414 18.6918 22.6931 18.6252 22.6389C18.18 22.3512 17.7901 21.9857 17.4809 21.5786C16.9637 22.0267 15.9295 21.5986 15.2899 21.2478C14.724 20.9343 14.5017 20.3547 14.4442 19.7297C14.3246 18.8883 13.6373 18.6003 13.6851 16.7542C13.684 16.7545 13.683 16.7545 13.6815 16.7545C13.6565 16.7471 13.6323 16.7373 13.6094 16.7246C13.5858 16.7133 13.5636 16.6999 13.5428 16.6837L13.5171 16.6482C13.5038 16.6408 13.4918 16.633 13.4826 16.6253L13.4779 16.6314C13.4629 16.6495 13.473 16.6222 13.4738 16.6168L13.4292 16.5561C13.3233 16.4115 13.2072 16.2492 13.1125 16.1194L13.1096 16.1247C13.1074 16.1287 13.1063 16.1316 13.1073 16.1328C12.8821 15.8092 12.6704 15.4182 12.6115 15.0398C12.542 14.7483 12.5692 14.4479 12.6298 14.1778C12.8896 13.2322 13.7407 11.0924 14.8583 10.1752ZM20.9691 23.2526L20.955 23.24L20.9674 23.2556C20.9739 23.2636 20.9806 23.2709 20.9914 23.2782C20.9907 23.2758 20.9907 23.2733 20.9911 23.2705C20.9839 23.265 20.9765 23.259 20.9691 23.2526ZM22.9453 8.65243C21.2936 8.51036 19.669 8.87438 18.0929 9.31501L17.9842 9.34627C17.088 9.6021 16.1404 9.8323 15.383 10.3799C14.3249 11.1906 13.7785 12.4804 13.3016 13.6713C12.8852 14.5561 13.0981 15.5538 13.7256 16.1716C13.7908 15.5576 13.9021 14.9617 14.0761 14.3705C14.1124 14.2781 14.0849 14.2479 14.1632 14.2358C14.2813 15.829 13.6993 17.006 14.8511 18.8942C15.3508 19.7851 14.7723 20.437 16.1836 20.9058L16.2218 20.9204C16.5158 21.0314 16.8369 21.119 17.1249 21.0569L17.0991 21.0149C17.0727 20.9717 17.0648 20.9507 17.103 20.9322C17.102 20.9301 17.1006 20.928 17.0992 20.9255C17.0682 20.8671 17.0383 20.8079 17.0097 20.748C16.9981 20.7519 16.9865 20.7547 16.9745 20.7579C16.9823 20.7723 16.9833 20.7868 16.9615 20.7917C16.8839 20.8183 16.8042 20.829 16.7227 20.824L16.7052 20.8227C16.613 20.817 16.555 20.8002 16.503 20.7846C16.4858 20.7818 16.4686 20.779 16.4516 20.7755C16.2845 20.7384 16.1077 20.6442 15.9932 20.5507C14.6883 19.8093 14.8232 17.2855 16.4316 17.0469C16.4646 15.4578 17.2201 12.7769 18.474 11.2627C19.6074 9.86988 22.7015 9.26619 24.8542 9.47905C24.8856 9.48944 24.9169 9.49994 24.9483 9.51054C25.2804 9.54006 25.5969 9.68808 25.9293 9.75684C25.6907 9.57793 25.42 9.45876 25.1411 9.35749C24.5856 9.01754 23.9487 8.83359 23.3333 8.70386C23.2059 8.67251 23.0767 8.65525 22.9453 8.65243ZM16.358 18.3235C16.4444 18.2765 16.4346 18.3218 16.4544 18.3087C17.0765 18.2579 17.7472 18.8027 18.0949 19.2569C18.0675 19.2855 17.9932 19.2009 17.9802 19.1875C17.9784 19.1893 17.9763 19.1907 17.9742 19.1914L17.9838 19.2051C18.1248 19.4074 17.8454 19.1693 17.8192 19.1203C17.8147 19.1227 17.8101 19.1241 17.8048 19.1231C17.8269 19.1448 17.8946 19.2015 17.9062 19.2418L17.9241 19.2567C18.0932 19.4016 18.0792 19.5105 17.8872 19.3048C17.8918 19.3143 17.8935 19.3231 17.8904 19.3302L17.897 19.3346C17.9914 19.4006 18.069 19.5846 17.8717 19.3957C17.8922 19.5337 17.6762 19.267 17.6692 19.2689C17.2954 18.9753 16.7449 18.6898 16.2759 18.6514L16.2598 18.6496C16.1737 18.6385 16.133 18.6129 16.1632 18.5567C16.0573 18.5314 16.0821 18.4792 16.1323 18.4809C16.0575 18.4317 16.1248 18.3847 16.1682 18.4031C16.1384 18.3205 16.258 18.3755 16.2689 18.364C16.331 18.2682 16.3477 18.3481 16.358 18.3235ZM15.0541 13.2035C15.3529 13.094 16.2354 13.4218 16.1648 13.8558C16.1227 13.9554 15.9842 14.0125 15.8868 13.9563L15.7598 13.8709C15.5386 13.7228 15.3392 13.5929 15.1018 13.4636C14.9725 13.3995 14.9169 13.2633 15.0541 13.2035ZM16.7539 12.5585L16.6385 12.4834C16.0159 12.0757 15.1356 11.458 16.6967 12.0971C16.8746 12.1734 17.111 12.2186 17.2081 12.3881C17.3606 12.7005 16.9593 12.7215 16.7539 12.5585ZM16.8239 10.7293C16.7739 10.5396 17.3957 10.7622 17.5766 10.8209L17.6042 10.8313C17.7803 10.8969 17.9821 10.9578 18.0874 11.1098C18.2108 11.3198 17.961 11.3633 17.8064 11.2684C17.4892 11.0611 17.1415 10.9047 16.8239 10.7293ZM18.4049 9.84567C18.0549 9.46336 18.9915 9.8296 19.1318 9.93126L19.1358 9.93426C19.2405 10.008 19.2193 10.1668 19.1209 10.2134C18.8411 10.2187 18.6352 9.98541 18.4049 9.84567ZM19.9974 9.4268C19.441 9.02682 20.1739 9.21707 20.4284 9.37382C20.6019 9.52688 20.4232 9.78525 19.9974 9.4268Z" fill="black"/>
<path fill-rule="evenodd" clip-rule="evenodd" d="M25.3542 20.9628C25.5767 20.9109 25.7515 21.0994 25.7078 21.3165C25.6615 21.5463 25.4145 21.6251 25.2074 21.6179C24.9725 21.6097 24.7379 21.5612 24.5019 21.5515C24.2595 21.5415 24.0161 21.5396 23.7736 21.5462C23.5492 21.5523 23.3189 21.5918 23.0963 21.5563C23.0096 21.5425 23.0178 21.428 23.0742 21.3873C23.2417 21.2665 23.4587 21.2172 23.6561 21.1665C23.8574 21.1148 24.0631 21.0752 24.2696 21.0511C24.4788 21.0266 24.6898 21.0144 24.9004 21.012C24.9963 21.0109 25.1139 21.0322 25.2074 21.0149C25.255 21.0061 25.3035 20.9746 25.3542 20.9628ZM24.7118 17.9777C24.9777 18.1394 25.3828 18.5164 25.0968 18.9172C24.7601 19.2707 24.2753 18.8654 24.0364 18.6822C23.8149 18.5401 23.566 18.9054 23.7715 19.0713C25.4977 20.3498 26.1983 18.02 24.8463 17.7876C24.6974 17.762 24.6421 17.9277 24.7118 17.9777ZM22.7838 16.7703C23.1394 16.7112 23.2017 17.2184 22.8492 17.2538C22.7752 17.2613 22.7016 17.2677 22.6282 17.2742C22.6354 17.2972 22.6401 17.3208 22.6427 17.3451C22.6461 17.3657 22.6486 17.3876 22.6508 17.4127C22.6619 17.5375 22.5735 17.6673 22.4702 17.7278C22.3628 17.7907 22.2086 17.799 22.1019 17.7278C22.0469 17.691 21.992 17.6495 21.9617 17.5887C21.921 17.5263 21.8988 17.454 21.8966 17.3798C21.7344 17.422 21.5693 17.4789 21.4056 17.5091C21.4116 17.515 21.4175 17.5213 21.4232 17.5283C21.4276 17.5336 21.4216 17.5436 21.4153 17.5387L21.3331 17.5204C21.3078 17.5238 21.2825 17.5265 21.2573 17.5281L21.2579 17.5258C21.2158 17.5251 21.1813 17.4753 21.219 17.4354C21.3637 17.2824 21.5894 17.1807 21.7953 17.0957L21.9936 17.0144C22.2472 16.9113 22.5149 16.8151 22.7838 16.7703ZM25.6451 16.9272C25.878 16.9007 26.1087 16.9112 26.342 16.9255C26.7347 16.9494 26.57 17.5223 26.2548 17.39C26.258 17.411 26.2589 17.432 26.2565 17.4515C26.2441 17.5522 26.2113 17.6373 26.1189 17.6914C26.0331 17.7417 25.9244 17.7415 25.8385 17.6914C25.7466 17.6378 25.7052 17.5623 25.6817 17.4641C25.6636 17.388 25.6709 17.3243 25.6814 17.2489C25.6848 17.2239 25.6957 17.2006 25.7108 17.1797C25.6888 17.1742 25.6668 17.1689 25.6448 17.1639C25.4488 17.1193 25.2554 17.1283 25.06 17.1C25.0392 17.097 25.0359 17.0633 25.0541 17.0548C25.2297 16.9722 25.4529 16.9492 25.6451 16.9272ZM22.7479 15.1579C22.8823 15.1065 23.0512 15.1919 23.1198 15.3093C23.1977 15.4425 23.1644 15.5963 23.0683 15.7086C22.9208 15.8808 22.64 15.9869 22.433 16.0851L22.4164 16.0931C22.2039 16.1957 21.9855 16.2899 21.7642 16.3719C21.5466 16.4527 21.3202 16.516 21.0946 16.5703C20.9756 16.5989 20.8541 16.6226 20.7325 16.6375C20.6365 16.6493 20.5625 16.6229 20.4707 16.6229C20.4572 16.623 20.453 16.6052 20.464 16.5984C20.5498 16.5444 20.6135 16.4733 20.7071 16.4234C20.8046 16.3713 20.9024 16.3202 21.0005 16.2695C21.199 16.1672 21.3902 16.0532 21.5816 15.9386C21.7835 15.8177 21.9807 15.6905 22.1726 15.5542C22.3603 15.4209 22.5333 15.2398 22.7479 15.1579ZM25.1435 15.0482C25.3114 15.0157 25.4777 15.0951 25.5274 15.2663C25.575 15.4303 25.5252 15.4654 25.6523 15.5828C25.7536 15.6763 25.8628 15.7597 25.973 15.8419L26.1352 15.9626C26.4291 16.1802 26.7254 16.3859 27.0632 16.5327C27.0918 16.5451 27.0753 16.5876 27.0482 16.5881C26.5111 16.5985 25.9961 16.5258 25.5112 16.2852C25.2848 16.1728 25.0572 16.0307 24.926 15.8064C24.774 15.5466 24.7784 15.119 25.1435 15.0482Z" fill="black"/>
</g>
<defs>
<clipPath id="clip0_112_72">
<rect width="40" height="54" fill="white"/>
</clipPath>
</defs>
</svg>
