<svg width="40" height="54" viewBox="0 0 40 54" fill="none" xmlns="http://www.w3.org/2000/svg">
<path fill-rule="evenodd" clip-rule="evenodd" d="M8.1937 47.5606C8.37937 47.8427 8.74458 47.7993 8.90138 47.5808C10.6868 47.9969 12.5172 47.8329 14.3274 47.7309C19.4286 47.5233 24.5585 48.1741 29.6391 47.4932C30.178 47.3854 30.8053 47.4369 31.2463 47.063C31.9516 46.2362 31.7997 44.9808 31.6873 43.9737C30.7867 38.2967 29.5063 32.5676 28.8676 26.8541C28.832 26.3099 29.0562 25.6337 29.2571 25.1221C29.3068 25.0269 29.6206 24.9336 29.7834 24.8238C30.2831 24.465 30.202 23.822 29.7689 23.4447C28.3664 22.4557 26.414 22.8013 24.9262 23.1662C24.6411 22.0949 24.3206 21.3903 23.7777 21.3205C22.7445 21.1877 20.238 20.7819 19.466 21.3205C19.0966 21.5782 18.8595 22.4862 18.5937 22.9286C16.6547 22.8941 12.7194 20.2989 11.9103 23.2213C11.253 23.2667 10.6019 23.8408 10.7277 24.5297C9.87518 25.2833 10.5476 26.4133 10.5358 27.3513C10.4237 29.3415 9.34722 31.1214 8.89937 33.0439C7.87567 36.7726 6.71701 43.5552 7.98669 47.1948C7.95937 47.1805 7.89969 47.202 7.93835 47.2323C8.08211 47.2729 8.10081 47.454 8.1937 47.5606Z" fill="white"/>
<path fill-rule="evenodd" clip-rule="evenodd" d="M30.486 46.6123C30.2479 44.6998 30.0823 42.391 30.0804 40.4626C30.0802 40.281 30.3619 40.2813 30.3621 40.4626C30.364 42.391 30.5296 44.6998 30.7677 46.6123C30.7901 46.7921 30.5081 46.7899 30.486 46.6123ZM28.7219 34.754C28.354 34.9791 27.8708 34.8229 27.5066 34.6739C27.3408 34.606 27.4138 34.3335 27.5815 34.4021C27.8586 34.5156 28.2637 34.6826 28.5562 34.5244C28.8481 34.3665 28.8613 33.932 28.8635 33.6453C28.8649 33.4637 29.1465 33.4639 29.1452 33.6453C29.1422 34.0353 29.0901 34.5287 28.7219 34.754ZM28.0408 43.5059C27.6696 43.3156 27.3528 43.0553 27.0979 42.725C26.9871 42.5814 27.2319 42.4412 27.3412 42.5827C27.5655 42.8735 27.8579 43.0959 28.183 43.2626C28.3446 43.3455 28.2019 43.5885 28.0408 43.5059ZM26.2565 33.671C25.6195 36.2245 25.192 38.8237 24.9825 41.4473C24.9399 41.9799 24.91 42.5118 24.8931 43.044C24.8762 43.1828 24.86 43.322 24.8449 43.4611C24.7875 43.9873 24.7434 44.5221 24.7473 45.0519C24.7491 45.2896 24.7565 45.5264 24.7727 45.7634C24.7445 45.6841 24.7184 45.6046 24.6931 45.5253C24.6413 45.3629 24.6072 45.1945 24.5544 45.0332C24.5107 44.8997 24.4544 44.7718 24.4019 44.6426V44.6422C24.4177 44.1128 24.3818 43.5784 24.3635 43.0514C24.3399 42.3688 24.3107 41.6868 24.2956 41.0038C24.2653 39.6378 24.2804 38.2707 24.3297 36.9054C24.4287 34.1543 24.6787 31.4163 24.9308 28.6765C25.0008 27.9145 25.0762 27.153 25.1283 26.3896C25.1808 25.6182 25.2019 24.8454 25.2079 24.0719C25.2082 24.0162 25.1237 24.0014 25.1082 24.0553C25.0945 23.8718 25.0702 23.6886 25.0297 23.5114C25.6371 23.8989 26.2776 24.2339 26.9054 24.5861C27.2361 24.7718 27.5653 24.9606 27.9061 25.1268C28.0935 25.2184 28.2825 25.3026 28.4755 25.3822C28.6755 25.4646 28.8667 25.5781 29.0868 25.5206C29.1058 25.5157 29.1237 25.5087 29.141 25.4995C29.116 25.547 29.091 25.5943 29.067 25.6422C28.9839 25.8074 28.9047 25.9733 28.828 26.1406C28.8075 26.1557 28.7896 26.1766 28.7755 26.2037C28.7382 26.2766 28.7019 26.3502 28.6667 26.4248C28.6596 26.4182 28.6526 26.4115 28.6456 26.4048C28.616 26.377 28.5751 26.4188 28.6012 26.4492C28.6132 26.4629 28.6248 26.4763 28.6364 26.49C28.4068 26.9842 28.2202 27.5038 28.028 28.0111C27.7917 28.6345 27.5677 29.2626 27.3568 29.8949C26.941 31.1387 26.5741 32.3987 26.2565 33.671ZM17.1498 42.9378C15.9758 43.5668 14.8788 44.3184 13.8236 45.1291C13.6798 45.2396 13.5396 44.9947 13.6814 44.8858C14.7366 44.0751 15.8337 43.3235 17.0076 42.6945C17.1676 42.6088 17.3097 42.8522 17.1498 42.9378ZM13.1846 35.5717C13.1236 35.5671 13.0643 35.5317 13.0488 35.4682C12.9537 35.0787 12.8793 34.6544 12.9677 34.2571C13.0071 34.0799 13.2787 34.1553 13.2393 34.332C13.1696 34.6453 13.225 34.9839 13.2974 35.2963C14.3213 35.3412 15.3315 34.9736 16.3111 34.7268C16.4873 34.6824 16.5617 34.9543 16.386 34.9985C15.3469 35.2603 14.272 35.6522 13.1846 35.5717ZM33.5684 45.9617C33.5695 45.9593 33.5706 45.9565 33.5713 45.954C33.6315 45.7715 33.6329 45.5595 33.6396 45.3682C33.6512 45.0279 33.6389 44.6869 33.6082 44.3477C33.5434 43.6337 33.404 42.9313 33.2375 42.2349C32.9075 40.8555 32.4413 39.5134 32.1882 38.1154C31.6913 35.371 31.8093 32.5135 30.8343 29.8664C30.429 28.7659 29.8501 27.7081 29.0635 26.8338C29.1209 26.6591 29.1769 26.484 29.2315 26.3083C29.3269 26.0025 29.4244 25.6869 29.4832 25.372C29.4846 25.3635 29.4864 25.3547 29.4875 25.3459C29.8223 25.2015 30.1269 24.9292 30.179 24.5671C30.2015 24.4107 30.1755 24.2374 30.1079 24.0863C30.2459 23.9588 30.3346 23.7932 30.3135 23.5713C30.2741 23.1535 29.7864 23.046 29.447 22.9644C29.0611 22.8717 28.6607 22.846 28.266 22.8897C28.0667 22.9115 27.8695 22.9482 27.6769 23.0031C27.5096 23.0507 27.3276 23.0996 27.1934 23.2145C27.1776 23.2278 27.1906 23.2539 27.2096 23.2539C27.4811 23.2529 27.7515 23.1532 28.0258 23.1401C28.3132 23.1267 28.5998 23.1503 28.8815 23.2095C29.1568 23.2673 29.4315 23.3518 29.6818 23.4825C29.7523 23.5195 29.8554 23.5445 29.7727 23.6192C29.7121 23.6738 29.5931 23.6784 29.5153 23.6865C29.3431 23.7044 29.1945 23.8052 29.1727 23.9891C29.1533 24.1514 29.2501 24.3353 29.4227 24.372C29.4322 24.3741 29.441 24.3765 29.4487 24.3797C29.4533 24.3885 29.4604 24.3959 29.4596 24.3839C29.4596 24.3839 29.46 24.3836 29.46 24.3839C29.4642 24.4096 29.4656 24.4198 29.4656 24.4216C29.4646 24.4195 29.4628 24.4107 29.4614 24.4037C29.4625 24.41 29.4646 24.4202 29.4674 24.4354C29.4635 24.4188 29.4667 24.4593 29.4635 24.4657C29.372 24.6347 29.1012 24.6823 28.9434 24.7552C28.9128 24.7693 28.8864 24.7858 28.8639 24.8045C28.8265 24.7915 28.7885 24.7784 28.7501 24.764C28.5611 24.6932 28.3723 24.6245 28.1808 24.5607C27.8111 24.4371 27.4368 24.3269 27.067 24.2029C26.367 23.9683 25.6903 23.672 25.0033 23.4036C24.9815 23.3226 24.9561 23.2433 24.9262 23.1662C24.9202 23.15 24.8913 23.1447 24.8882 23.1662C24.8776 23.2345 24.8692 23.3032 24.8621 23.3723C24.8593 23.3786 24.8586 23.3857 24.86 23.3923C24.8202 23.7939 24.8308 24.205 24.8104 24.6062C24.785 25.1064 24.7142 25.6031 24.6942 26.1036V26.1128C24.6202 26.5401 24.5533 26.9687 24.4927 27.3988C24.4248 27.3777 24.347 27.3819 24.2674 27.4246C23.7047 27.725 23.0723 27.8923 22.4361 27.9297C22.1156 27.9483 21.7984 27.9378 21.4797 27.9008C21.2702 27.8768 21.0639 27.8332 20.8572 27.7916C20.966 27.3354 21.0829 26.8814 21.2149 26.4319C21.3237 26.0624 21.4449 25.6947 21.5945 25.3392C21.7456 24.9803 21.9336 24.6375 22.1086 24.2895C22.1892 24.1285 22.0942 23.8823 21.8846 23.8992C21.8227 23.9042 21.7607 23.908 21.6984 23.9109C21.092 23.9398 20.4614 23.8721 19.8628 23.8119C19.1815 23.7428 18.491 23.6713 17.8156 23.559C17.7656 23.5509 17.7452 23.6188 17.7945 23.6354C18.1149 23.7432 18.4315 23.865 18.76 23.9457C19.098 24.0292 19.4382 24.1053 19.7811 24.1648C20.1096 24.2216 20.4396 24.2691 20.7706 24.3093C20.9864 24.3357 21.2047 24.3491 21.422 24.3667C21.1294 24.8345 20.9276 25.3621 20.7519 25.8817C20.5262 26.5489 20.3604 27.2354 20.198 27.9205C19.8508 29.3891 19.5646 30.8724 19.3406 32.3649C19.1801 33.435 19.0501 34.5094 18.9526 35.5866C18.9237 35.2593 18.8885 34.9331 18.8487 34.6073C18.7156 33.5255 18.5213 32.4508 18.2614 31.3923C18.2846 31.3514 18.2956 31.3025 18.2878 31.2549C18.241 30.964 18.1177 30.7107 18.0096 30.4409C17.9023 30.064 17.7864 29.6895 17.6618 29.3179C17.5202 28.8117 17.3614 28.3133 17.1582 27.8265C17.003 27.4556 16.8258 27.0941 16.6287 26.7437C16.3931 26.2537 16.1343 25.7743 15.8501 25.316C15.8354 25.2734 15.8114 25.2336 15.7773 25.2001C15.7255 25.1184 15.673 25.0377 15.6195 24.9577C15.5846 24.9056 15.4846 24.9373 15.5111 25.0035C15.5234 25.0346 15.5357 25.0655 15.5484 25.0962C14.391 24.8066 13.2561 25.2494 12.1537 25.5763C11.8755 25.6591 11.5945 25.7338 11.3093 25.7876C11.085 25.8299 10.8237 25.8813 10.6001 25.8348C10.4505 25.8039 10.3843 25.7359 10.4572 25.5759C10.5325 25.4104 10.7382 25.3015 10.9167 25.2283C10.9839 25.2138 11.0501 25.1881 11.1139 25.1494C11.2625 25.0592 11.3276 24.8711 11.2575 24.7108C11.1938 24.566 11.0079 24.4413 10.8434 24.5076C10.8199 24.5171 10.7966 24.5262 10.7734 24.5354C10.7709 24.5319 10.7681 24.5269 10.7656 24.5199C10.742 24.4554 10.7318 24.5326 10.742 24.4403C10.7589 24.2895 10.9184 24.1525 11.0276 24.0662C11.2991 23.851 11.6913 23.6918 12.0417 23.7731C12.0681 23.7791 12.0945 23.7865 12.1206 23.7957C12.4815 23.9207 12.6572 23.4008 12.3688 23.2071C12.3512 23.1954 12.329 23.1806 12.3047 23.1634C12.1846 23.0799 12.0089 22.9393 12.0568 22.8126C12.116 22.6551 12.4649 22.5646 12.597 22.511C13.0744 22.3173 13.5903 22.2074 14.1051 22.1848C14.623 22.1623 15.1477 22.2193 15.6473 22.3592C15.8924 22.4275 16.1442 22.5314 16.3758 22.6364C16.5839 22.7305 17.0368 22.8548 17.0656 23.1183C17.072 23.1764 17.1547 23.1961 17.1727 23.1327C17.3146 22.6269 16.7639 22.3004 16.4005 22.0915C16.1621 21.9541 15.8917 21.8685 15.6301 21.7843C15.3794 21.7033 15.1234 21.6438 14.8621 21.6078C14.3012 21.5311 13.7336 21.5409 13.1773 21.6487C12.6706 21.747 12.1068 21.9147 11.6973 22.2408C11.4459 22.4409 11.3322 22.7593 11.4332 23.07C11.4368 23.0803 11.4403 23.0908 11.4438 23.101C10.9913 23.1821 10.5632 23.4413 10.2769 23.8027C10.0417 24.0997 9.91845 24.5129 10.129 24.8584C10.1202 24.8648 10.1114 24.8714 10.103 24.8785C9.90225 25.0391 9.75296 25.2723 9.70859 25.5273C9.62162 26.0303 9.92549 26.3822 10.3505 26.5168C10.2452 26.6197 10.1442 26.7289 10.0452 26.8381C9.82373 27.0829 9.61211 27.3495 9.42549 27.6215C9.04732 28.1724 8.72408 28.7723 8.44134 29.3767C7.86 30.6181 7.49345 31.9541 7.29908 33.3089C7.20119 33.9916 7.1357 34.6777 7.1107 35.3667C7.08183 36.1523 7.11105 36.9381 7.09591 37.724C7.08112 38.4792 6.99767 39.2161 6.82901 39.9524C6.66739 40.6565 6.4519 41.3466 6.25683 42.0415C6.03676 42.8242 5.7945 43.6034 5.67831 44.4104C5.6195 44.8211 5.57725 45.2329 5.61 45.6482C5.6431 46.0713 5.79662 46.4331 5.93817 46.8265C5.97408 46.9269 6.08359 46.9674 6.17127 46.9459C6.19098 47.1344 6.26211 47.3183 6.3681 47.4775C6.5931 47.8149 6.93957 48.0302 7.33641 48.1084C7.78359 48.1961 8.2445 48.1753 8.69732 48.1591C9.18852 48.1415 9.68007 48.1256 10.1713 48.1052C10.6855 48.0839 11.1998 48.0621 11.714 48.0402C11.697 47.5129 11.6767 46.9858 11.6538 46.4587C11.5298 43.6096 11.3346 40.7588 11.3294 37.9059C11.3194 37.9 11.3096 37.8931 11.3003 37.884C11.0688 37.6601 10.7845 37.5131 10.5175 37.3379C10.3664 37.2387 10.5076 36.9949 10.6597 37.0946C10.8848 37.2423 11.1194 37.3736 11.3304 37.5391C11.3317 37.2421 11.3343 36.9451 11.3401 36.6481C11.3437 36.4668 11.6254 36.4668 11.6218 36.6481C11.6042 37.5432 11.6101 38.4385 11.6303 39.3335C11.6958 42.2339 11.9018 45.1289 11.9956 48.0281C13.3759 47.9691 14.7563 47.9097 16.1368 47.8593C17.2596 47.8185 18.3825 47.7776 19.5054 47.7367C19.741 47.7283 19.8734 47.5599 19.9023 47.3397C19.9551 46.9346 19.8558 46.5158 19.6311 46.1752C19.6079 46.14 19.5804 46.1086 19.5498 46.0819C19.5551 45.8392 19.5649 45.5961 19.5512 45.3534C19.5308 44.9828 19.5001 44.6123 19.4734 44.2421C19.4192 43.5006 19.3773 42.7577 19.3607 42.0144C19.3269 40.5279 19.3515 39.04 19.4357 37.5556C19.6044 34.59 19.997 31.6435 20.6396 28.7427C20.6864 28.5313 20.7336 28.32 20.7825 28.109C21.2822 28.3686 21.8899 28.4619 22.4361 28.4655C23.1206 28.4697 23.7899 28.3122 24.4082 28.0259C24.404 28.0579 24.3998 28.0896 24.3959 28.1217C24.2234 29.4954 24.078 30.872 23.9512 32.2504C23.6984 34.9983 23.5434 37.7575 23.5649 40.5177C23.5709 41.2824 23.6001 42.0447 23.6364 42.8084C23.6734 43.5851 23.7301 44.4058 23.9463 45.1551C23.9702 45.2378 24.0234 45.2854 24.0846 45.3027C24.0878 45.4119 24.0949 45.5214 24.1026 45.6292C24.1276 45.9797 24.1991 46.7078 24.3519 47.0255C24.5008 47.3355 24.7491 47.5814 25.0656 47.7167C25.4677 47.8882 25.9026 47.8389 26.3273 47.8114C28.1737 47.6909 30.0188 47.5296 31.8642 47.388C32.1213 47.3683 32.3783 47.3489 32.635 47.3288C32.8635 47.3112 33.0998 47.2957 33.3026 47.177C33.5332 47.0421 33.7132 46.3795 33.6336 46.1055C33.6192 46.0554 33.5973 46.0061 33.5684 45.9617Z" fill="black"/>
<path fill-rule="evenodd" clip-rule="evenodd" d="M28.2537 11.4075C28.2419 10.9862 27.6294 10.8114 27.4525 11.2285C27.4415 11.2397 27.4296 11.2504 27.4184 11.26C27.4738 11.2125 27.3579 11.2912 27.3391 11.3009C27.323 11.3092 27.3065 11.3167 27.2901 11.3244C27.1763 10.2573 26.7899 9.10695 25.7916 8.57132C24.3992 7.89585 22.7903 7.764 21.2627 7.8311C20.4889 7.87704 19.5953 8.00082 18.9078 7.60918C18.6936 7.48717 18.5219 7.29508 18.2798 7.21967C17.5156 7.01286 17.169 7.79789 17.2731 8.44345C16.9471 8.44603 16.6238 8.62655 16.4831 8.92378C16.4005 9.0997 16.4019 9.28953 16.3307 9.46607C16.1121 9.91378 15.7994 10.2356 15.9762 10.7784C15.6653 11.1324 15.8426 11.6683 16.0935 12.0072C16.2174 12.1834 16.365 12.3527 16.4557 12.55C16.5438 12.7389 16.4108 12.9629 16.3368 13.142C15.7896 14.44 15.8209 15.8695 16.1153 17.2234C15.5245 17.4798 15.3472 18.2816 15.7325 18.7864C15.865 18.9648 16.0268 19.031 16.2102 19.1408C16.4423 19.2686 16.2527 19.7805 16.327 20.0277C16.428 20.6313 16.9773 21.0029 17.5204 20.611C17.8651 20.5588 18.1431 21.562 18.3934 21.8138C18.5476 22.0167 18.7188 22.1989 18.9049 22.367C19.4595 23.7945 22.3012 24.5184 23.7062 24.4357C25.1775 24.2816 26.1701 23.0316 26.9966 21.9222C27.421 21.3311 27.697 20.6695 27.7974 19.948C27.8982 19.2227 27.8541 18.4962 27.7859 17.7701C27.6427 16.2274 27.4168 14.0049 27.2709 12.4455C27.7981 12.402 28.2697 11.953 28.2537 11.4075Z" fill="white"/>
<path fill-rule="evenodd" clip-rule="evenodd" d="M16.7611 10.4799C16.7607 10.4821 16.7614 10.4838 16.7619 10.4861C16.762 10.4854 16.7621 10.4851 16.7623 10.4843C16.7619 10.4825 16.7615 10.4814 16.7611 10.4799Z" fill="#4F66AF"/>
<path fill-rule="evenodd" clip-rule="evenodd" d="M16.761 10.5024C16.7591 10.5003 16.7563 10.4988 16.7536 10.4968L16.7534 10.497C16.756 10.4987 16.7585 10.5006 16.761 10.5024Z" fill="#4F66AF"/>
<path fill-rule="evenodd" clip-rule="evenodd" d="M28.1698 11.6068C28.343 11.4629 28.6158 11.5954 28.5571 11.8323C28.4933 12.0904 28.2168 12.2667 27.9886 12.3728C27.7536 12.4819 27.5248 12.5029 27.2685 12.491L27.2653 12.4903C27.3365 12.7757 27.3768 13.0724 27.4313 13.3596C27.5004 13.7239 27.5683 14.0883 27.6352 14.453C27.7 14.8054 27.7819 15.1584 27.8316 15.5126C27.8818 15.8702 27.93 16.228 27.9793 16.5856C28.0615 17.183 28.1279 17.7831 28.198 18.3822L28.2313 18.6658C28.3014 19.2661 28.3579 19.867 28.225 20.4643C28.1005 21.0241 27.8199 21.5463 27.4945 22.0136C27.1758 22.4711 26.8198 22.9111 26.4289 23.3091C25.6751 24.0767 24.7455 24.6915 23.6555 24.8055C23.1862 24.8546 22.6849 24.8 22.2437 24.6293L22.2144 24.6179C21.7678 24.4415 21.2208 24.1394 21.1045 23.6437C21.0332 23.3397 21.3464 23.1023 21.621 23.2466C21.7482 23.3134 21.8439 23.3898 21.9483 23.4856L21.9669 23.5027C22.0522 23.582 22.0851 23.6064 22.1836 23.6684C22.3856 23.7955 22.537 23.8557 22.7664 23.9135C23.1894 24.0199 23.646 24.0031 24.0754 23.8772C24.9872 23.6099 25.6945 22.9124 26.3005 22.2131C26.6295 21.8334 26.9418 21.435 27.1826 20.9924C27.4353 20.528 27.552 20.0405 27.545 19.5121C27.537 18.9159 27.4547 18.3174 27.4006 17.724C27.3456 17.1191 27.2947 16.5144 27.2498 15.9087C27.2078 15.3406 27.2037 14.7699 27.189 14.2001L27.1861 14.0933C27.1775 13.7907 27.1715 13.4881 27.1646 13.1855C27.1579 12.8838 27.134 12.5783 27.165 12.2779C27.1673 12.256 27.1967 12.2505 27.2039 12.2726C27.2222 12.3289 27.2382 12.386 27.2534 12.4435C27.2557 12.4418 27.2583 12.4402 27.2615 12.4391C27.4623 12.37 27.6473 12.2322 27.798 12.0836C27.9418 11.9417 28.0169 11.7339 28.1698 11.6068ZM17.1812 7.37988C17.3074 6.8615 17.8751 6.74572 18.2949 6.99536C18.4969 7.11541 18.6586 7.28854 18.8472 7.42613C19.0347 7.56294 19.242 7.67281 19.4607 7.75041C19.8952 7.90455 20.3535 7.9606 20.8127 7.9626C21.9303 7.9675 23.025 7.65329 24.1443 7.68834C25.0103 7.71546 25.9296 7.97152 26.5578 8.59782C26.8962 8.9352 27.1142 9.36896 27.2312 9.82946C27.2859 10.0447 27.3266 10.2651 27.3588 10.4851L27.3666 10.54C27.3846 10.6686 27.4135 10.8046 27.4162 10.9345C27.4186 11.0512 27.3891 11.1733 27.3731 11.2888C27.3394 11.5322 26.9625 11.5044 26.9084 11.2888C26.7851 10.7977 26.8367 10.2909 26.686 9.80149C26.5524 9.36752 26.2934 8.98808 25.9181 8.72857C24.3351 7.63378 22.305 8.55058 20.5607 8.46541C20.1344 8.44459 19.7019 8.37868 19.2998 8.23183C19.0924 8.15609 18.8882 8.06373 18.7003 7.94756C18.528 7.84119 18.3788 7.70755 18.2193 7.58457L18.149 7.53108C18.0397 7.44881 17.8536 7.32019 17.7433 7.42901C17.6953 7.47639 17.6924 7.5835 17.6933 7.66529L17.6938 7.70226C17.6988 8.0495 17.7696 8.39612 17.6397 8.7316C17.5804 8.88462 17.4158 8.9811 17.2591 8.89444L17.251 8.8898C16.9197 8.69263 16.4844 9.08882 16.739 9.41671L16.7469 9.42663C16.8901 9.60071 16.8137 9.90728 16.5574 9.90652L16.5482 9.90636C16.0916 9.89209 15.889 10.463 16.2826 10.7124L16.2947 10.7199C16.6142 10.9112 16.334 11.3711 16.0065 11.2132C16.0342 11.2266 15.986 11.2264 15.9584 11.2635C15.9318 11.299 15.9299 11.3298 15.9362 11.3748C15.9553 11.511 16.075 11.6257 16.172 11.7119C16.3923 11.9076 16.6653 12.0428 16.9467 12.1251C18.0738 12.4547 19.2302 12.0515 20.3283 11.808C21.4732 11.5541 22.7663 11.4519 23.7648 12.1722C23.7766 12.1808 23.7662 12.1998 23.7531 12.1922C23.0366 11.7759 22.159 11.8129 21.3757 11.9835C20.3486 12.2074 19.3304 12.624 18.2785 12.7337C18.5738 13.2553 18.6974 13.8713 18.6185 14.4678C18.5642 14.8784 18.4009 15.2346 18.2079 15.5956L18.1711 15.6644C17.9991 15.9884 17.8658 16.2945 17.8637 16.6698C17.8616 17.0427 17.3074 17.1214 17.2135 16.7579C17.0002 15.9324 17.7772 15.2822 18.0942 14.6014C18.3651 14.0195 18.3735 13.341 18.1542 12.7452C17.9068 12.7651 17.6575 12.7672 17.4056 12.7447C17.1893 12.7254 16.9668 12.6864 16.7499 12.6247L16.6631 12.9896C16.5482 13.4757 16.4417 13.9614 16.4094 14.4663C16.3856 14.8373 16.3869 15.2101 16.423 15.5802C16.4543 15.8998 16.5203 16.2081 16.5874 16.5201C16.645 16.5962 16.6745 16.7125 16.6583 16.8052C17.0322 16.9129 17.3263 17.2081 17.4338 17.599C17.4404 17.6229 17.4071 17.6362 17.3946 17.6156C17.1396 17.1924 16.4831 17.0367 16.0678 17.3163C15.6711 17.5832 15.5147 18.1221 15.7392 18.5488C15.8573 18.7731 16.0324 18.9308 16.2581 19.0393L16.3035 19.0606C16.4218 19.1166 16.5304 19.1777 16.6065 19.2902C16.7052 19.4361 16.7085 19.5903 16.6992 19.757L16.6952 19.8246C16.689 19.9363 16.6875 20.0514 16.7208 20.1589L16.7284 20.1828C16.7372 20.2096 16.7464 20.2332 16.7624 20.2589C16.7672 20.2665 16.8121 20.3106 16.8268 20.3265L16.8452 20.3321L16.8659 20.3329C16.8887 20.3333 16.9188 20.3234 16.909 20.3302L16.9116 20.3287C16.9203 20.3233 16.9283 20.3176 16.935 20.3125L16.9478 20.3025C16.9777 20.2593 17.0152 20.2236 17.0611 20.1963L17.105 20.1768C17.2191 20.0563 17.4145 20.1196 17.4963 20.2396C17.5551 20.3259 17.5868 20.4137 17.5894 20.5002C17.5986 20.4855 17.619 20.4774 17.632 20.4939L17.7095 20.5927C18.0061 20.9719 18.2976 21.3533 18.6346 21.6989C18.8203 21.8894 19.02 22.0683 19.2288 22.2331C19.407 22.3738 19.7451 22.5092 19.7503 22.7656C19.7519 22.8488 19.6929 22.9077 19.6206 22.936C19.3854 23.0278 19.0949 22.7153 18.925 22.5632L18.9111 22.5509C18.7032 22.3687 18.5135 22.1688 18.3385 21.955C17.9984 21.5396 17.7141 21.0616 17.5888 20.5357C17.5829 20.6275 17.5435 20.7174 17.4669 20.8023C17.3649 20.9152 17.2253 20.9944 17.0762 21.027C16.7383 21.1009 16.4085 20.9792 16.2074 20.6976C16.0375 20.4595 15.9875 20.1451 16.0094 19.8575L16.0121 19.823C16.0152 19.7769 16.0191 19.6922 16.0311 19.6562L15.9247 19.5978C15.7943 19.5283 15.6734 19.4373 15.5649 19.3373C15.1289 18.9351 14.9101 18.2816 15.1094 17.7097C15.2341 17.352 15.4961 17.0407 15.8316 16.8789C15.7756 16.7493 15.7568 16.5953 15.7356 16.4591L15.7321 16.4366C15.6962 16.2131 15.6662 15.9868 15.6547 15.7607C15.6333 15.3383 15.6593 14.912 15.7257 14.4946C15.8334 13.8165 16.0565 13.0974 16.4654 12.5286C16.1534 12.4047 15.8663 12.2253 15.6447 11.9762C15.4131 11.7159 15.2655 11.3432 15.4446 11.0126C15.4902 10.9283 15.5497 10.8575 15.618 10.8012C15.4995 10.5774 15.4611 10.3127 15.5343 10.0598C15.6217 9.75746 15.859 9.52163 16.1456 9.41152C16.076 9.12503 16.1329 8.81688 16.3456 8.57813C16.5566 8.34127 16.8842 8.25501 17.1875 8.30915C17.2039 8.00445 17.108 7.68038 17.1812 7.37988ZM16.3307 18.0777C16.6087 17.9416 16.9382 17.9632 17.2159 18.0922L17.2347 18.1012C17.5379 18.2482 17.9395 18.5919 17.8431 18.9574C17.7867 19.1711 17.5493 19.2441 17.3653 19.1519C17.2115 19.0748 17.1764 18.9369 17.0993 18.7985C17.0447 18.7005 16.9773 18.624 16.8981 18.5453C16.7312 18.3794 16.5437 18.2562 16.3307 18.1576C16.3 18.1433 16.301 18.0923 16.3307 18.0777ZM23.3361 10.69C23.3101 10.6781 23.329 10.6373 23.3552 10.6447C24.0538 10.8443 24.7052 11.2923 25.0944 11.9141C25.1182 11.9521 25.1218 12.0145 25.0944 12.0521L25.0818 12.0691C25.064 12.0924 25.0464 12.1096 25.0128 12.1148C24.9497 12.1246 24.8949 12.1082 24.8585 12.0521C24.4751 11.4594 23.9838 10.9864 23.3361 10.69ZM28.0131 10.8074C28.0723 10.7071 28.2292 10.7273 28.2604 10.8397L28.2649 10.8495C28.2818 10.8878 28.2741 10.8957 28.2427 10.874C28.3206 10.9381 28.3558 11.0337 28.332 11.1365C28.2034 11.6917 27.5749 12.0881 27.0269 12.0335C26.9791 12.0288 26.9726 11.97 27.0159 11.9524C27.2267 11.8671 27.4138 11.7284 27.5643 11.5582C27.7105 11.3928 27.772 11.2035 27.8507 11.0038C27.8802 10.9288 27.9261 10.8748 27.9908 10.8453C27.9994 10.8335 28.0068 10.8208 28.0131 10.8074ZM24.897 10.4506L24.9008 10.4508C25.1823 10.4872 25.4259 10.6262 25.6236 10.8299C25.814 11.026 26.0543 11.3497 26.0337 11.6375C26.0201 11.8283 25.7489 11.9374 25.6477 11.7421C25.5873 11.6256 25.5736 11.4979 25.5313 11.3746C25.4925 11.2617 25.4389 11.1545 25.3748 11.0539C25.2427 10.8467 25.0611 10.6712 24.8751 10.5128C24.8533 10.4943 24.8685 10.4507 24.897 10.4506ZM17.6757 10.366C17.6132 10.3066 17.6782 10.2052 17.7576 10.2253C18.1763 10.3313 18.5911 10.4603 19.0264 10.4732C19.2439 10.4795 19.4601 10.4624 19.6756 10.4342L19.7846 10.4197C19.9526 10.3978 20.1235 10.3806 20.2895 10.4151C20.4002 10.4381 20.4219 10.5808 20.3529 10.6552C20.0271 11.0067 19.3988 10.9731 18.9668 10.9139C18.4977 10.8495 18.0244 10.6984 17.6757 10.366ZM25.2378 9.27039C25.2092 9.23062 25.2574 9.16785 25.303 9.1855C25.7192 9.34641 26.1554 9.76534 26.27 10.2036C26.3003 10.3194 26.1543 10.4069 26.0686 10.3209C25.9089 10.1607 25.7962 9.97154 25.6612 9.79151C25.5266 9.61204 25.3692 9.45264 25.2378 9.27039ZM18.4191 9.46614C18.3857 9.43278 18.4193 9.36634 18.4672 9.38332C18.7382 9.47931 19.0112 9.56237 19.2958 9.60594C19.5874 9.65054 19.8817 9.61665 20.1747 9.63472C20.2933 9.64201 20.374 9.82652 20.2422 9.88394C19.6566 10.139 18.8612 9.90772 18.4191 9.46614ZM19.1672 8.89402C19.1206 8.85957 19.1471 8.76503 19.2105 8.79141C19.4685 8.89889 19.7294 8.9253 20.0063 8.91424C20.1086 8.91012 20.1301 9.07092 20.0305 9.09262C19.7244 9.15923 19.4173 9.07903 19.1672 8.89402Z" fill="black"/>
<path fill-rule="evenodd" clip-rule="evenodd" d="M22.0875 20.6021C22.0912 20.2139 22.4274 20.147 22.7467 20.1988C23.2874 20.2863 23.8301 20.3478 24.3781 20.3589L24.4725 20.3606C24.4877 20.3384 24.5131 20.3216 24.5476 20.3179C24.8514 20.285 25.1617 20.2903 25.4671 20.2813C25.7336 20.2735 26.0074 20.2468 26.2738 20.2678L26.295 20.2696C26.6206 20.3012 26.9642 20.4674 26.9249 20.8497C26.8887 21.2037 26.5505 21.517 26.2804 21.7137C26.2258 21.7531 26.1699 21.7901 26.1125 21.8238C26.0944 21.8468 26.0681 21.8628 26.0377 21.8661C25.7718 22.0098 25.4783 22.0948 25.1745 22.1231C24.5304 22.1831 23.7816 22.1182 23.163 21.839C22.9619 21.7482 22.7743 21.6349 22.6084 21.4956C22.3527 21.2809 22.0846 20.9552 22.0875 20.6021ZM24.6252 21.3716C24.367 21.3638 24.1092 21.4 23.8633 21.4797C23.6967 21.5334 23.5448 21.6369 23.3851 21.7088C23.9232 21.9141 24.5484 21.9589 25.1006 21.9215C25.3428 21.9051 25.5776 21.8492 25.7964 21.7531C25.7623 21.7285 25.7278 21.7035 25.6917 21.6817C25.5825 21.6155 25.4684 21.5593 25.3493 21.5145C25.1174 21.4275 24.8727 21.3794 24.6252 21.3716ZM24.7118 17.9777C24.6421 17.9277 24.6974 17.762 24.8462 17.7876C26.1982 18.02 25.4977 20.3498 23.7715 19.0713C23.566 18.9054 23.8149 18.5401 24.0364 18.6822L24.115 18.7428C24.3708 18.9389 24.7937 19.2353 25.0967 18.9172C25.3828 18.5164 24.9776 18.1394 24.7118 17.9777ZM25.627 16.2144C25.9144 15.9691 26.2749 16.1499 26.4865 16.3983L26.5238 16.4428C26.5661 16.4934 26.613 16.5525 26.6412 16.6156C26.8756 16.4159 27.1936 16.2753 27.4979 16.3666C27.7929 16.4554 27.9612 16.7372 27.9105 17.0397C27.853 17.3838 27.5928 17.615 27.3132 17.7938L27.2339 17.8442C26.8979 18.0585 26.5835 18.2743 26.307 18.5689C26.2619 18.6167 26.1644 18.6104 26.1348 18.5467L26.111 18.4954L26.0869 18.4441C25.8908 18.0257 25.6806 17.61 25.508 17.1817C25.3802 16.8643 25.3387 16.4603 25.627 16.2144ZM22.3509 16.4366L22.3947 16.386C22.6052 16.1408 22.9619 15.9766 23.2433 16.2144C23.5429 16.4677 23.4841 16.8865 23.3506 17.2095C23.1899 17.5991 23.0022 17.9801 22.8219 18.3623L22.7834 18.4442C22.7672 18.4783 22.7514 18.5125 22.7355 18.5467C22.7059 18.6104 22.6081 18.6168 22.5633 18.5689C22.2954 18.2835 21.9923 18.0724 21.6685 17.8649L21.5708 17.8027C21.2866 17.6224 21.0179 17.3895 20.9594 17.0397C20.9094 16.7379 21.0767 16.4543 21.3721 16.3666C21.6771 16.2761 21.9943 16.4156 22.2292 16.6156C22.2572 16.5509 22.3054 16.4899 22.3509 16.4366ZM22.7362 14.6777C22.839 14.8113 22.7292 15.0296 22.579 15.0641C22.393 15.1069 22.2051 15.0809 22.0225 15.134C21.8552 15.1826 21.6949 15.2801 21.5515 15.3772C21.388 15.488 21.2373 15.6116 21.0989 15.7525C21.0166 15.8363 20.9128 16.0348 20.7859 16.0385C20.6596 16.0422 20.8291 15.6473 20.8431 15.6131C20.9426 15.3699 21.0825 15.1461 21.2574 14.95C21.6025 14.5632 22.3333 14.1549 22.7362 14.6777ZM26.5901 14.5708L26.6762 14.5948C26.8894 14.6541 27.117 14.7269 27.2999 14.8547L27.3142 14.8649L27.3364 14.8811C27.566 15.0524 27.8907 15.394 27.7281 15.6921C27.7169 15.7126 27.6931 15.7147 27.6739 15.7063C27.4576 15.6115 27.2972 15.4222 27.0671 15.343L27.0246 15.3286C26.8018 15.2535 26.5261 15.1745 26.2862 15.1817C26.1176 15.2365 25.8898 15.1911 25.8459 14.9857L25.8439 14.9757L25.8401 14.9544C25.8148 14.8141 25.8524 14.6351 25.9974 14.5675C26.1962 14.4749 26.39 14.5161 26.5901 14.5708Z" fill="black"/>
<path fill-rule="evenodd" clip-rule="evenodd" d="M21.5748 21.5997C21.8599 20.9316 22.4821 20.4406 23.1985 20.2611C23.7245 20.1296 24.2766 20.1338 24.8129 20.1859C25.0938 20.2131 25.3952 20.2353 25.66 20.3397C25.8861 20.4289 26.0703 20.5975 26.2089 20.7953C26.3738 21.0298 26.486 21.2981 26.5648 21.5732C26.5759 21.6123 26.5865 21.6517 26.5963 21.6913C26.562 21.8988 26.4893 22.0754 26.2972 22.2059C26.1097 22.3333 25.8859 22.3854 25.6629 22.4039C25.6411 22.3934 25.6199 22.3826 25.6005 22.3716C25.253 22.1725 25.0084 21.7022 24.5698 21.7659C24.1783 21.8227 23.9206 22.3154 23.6878 22.6044C22.9406 22.6915 22.1939 22.4668 21.5859 22.0394C21.555 21.8931 21.5532 21.7455 21.5748 21.5997ZM27.1041 21.0929C27.0444 20.9251 26.9691 20.7626 26.8798 20.6094C26.5848 20.1031 26.1319 19.6997 25.5942 19.4691C24.3223 18.9242 22.6766 19.3083 21.6495 20.2018C21.2986 20.5073 20.9438 20.9561 20.8365 21.4389C20.8045 21.4453 20.7742 21.462 20.7494 21.4854C20.0072 21.018 19.243 20.5683 18.645 19.9204C18.2107 19.4497 17.9087 18.8925 17.7237 18.2803C17.7086 18.23 17.6273 18.2373 17.6298 18.2931C17.6305 18.3061 17.6312 18.3191 17.6319 18.3322C17.6242 18.3082 17.5876 18.3205 17.5848 18.3438C17.4853 19.0875 17.3608 19.876 17.4754 20.6236C17.544 21.0696 17.7465 21.3962 18.0173 21.7488C18.3074 22.1268 18.6359 22.4784 18.9717 22.8155C19.1848 23.0295 19.4074 23.2764 19.6683 23.4333C19.9718 23.6156 20.316 23.7542 20.6399 23.8949C20.9694 24.0384 21.3038 24.171 21.6445 24.2859C22.3257 24.5166 23.0297 24.6759 23.746 24.7458C24.3195 24.8015 24.975 24.8622 25.5246 24.6463C25.9459 24.4809 26.2859 24.1819 26.5556 23.8222C26.8492 23.4305 27.0814 22.9842 27.2097 22.5136C27.343 22.0248 27.1322 21.1717 27.1041 21.0929Z" fill="black"/>
</svg>
